<?xml version="1.0" encoding="utf-8"?>
<!-- Generator: Adobe Illustrator 23.0.4, SVG Export Plug-In . SVG Version: 6.00 Build 0)  -->
<svg version="1.1" id="Layer_1" xmlns="http://www.w3.org/2000/svg" xmlns:xlink="http://www.w3.org/1999/xlink" x="0px" y="0px"
	 viewBox="0 0 792.5 151.2" style="enable-background:new 0 0 792.5 151.2;" xml:space="preserve">
<style type="text/css">
	.st0{fill-rule:evenodd;clip-rule:evenodd;fill:#231F20;}
	.st1{fill:#231F20;}
	.st2{enable-background:new    ;}
</style>
<g>
	<path class="st0" d="M464.7,76.3v-2.4c0-0.4-0.1-0.8-0.1-1.1v-0.2l-0.2-0.1c-3.1-1.8-7-2.9-11-3c-0.1-0.5-0.6-4.2-0.6-4.7
		c3.8-1.1,7.3-3.1,9.8-5.7l0.1-0.1v-0.2c-0.2-1.4-0.7-3.3-1.2-4.5l-0.1-0.2h-0.2c-3.4-1-7.5-0.9-11.3,0c-0.3-0.5-1.6-3.8-1.8-4.3
		c3.3-2,6.3-4.9,8-8l0.1-0.2l-0.1-0.2c-0.5-1.2-1.5-2.9-2.3-4l-0.1-0.2h-0.2c-3.6-0.1-7.5,1-11,2.9c-0.3-0.4-2.6-3.4-2.9-3.8
		c2.7-2.8,4.8-6.3,5.7-9.8l0.1-0.2l-0.1-0.2c-0.8-1.1-2.2-2.5-3.3-3.3l-0.2-0.2l-0.2,0.1c-3.5,0.9-7.1,2.9-9.9,5.7
		c-0.4-0.3-3.4-2.7-3.8-3c1.9-3.3,2.9-7.2,2.9-10.7v-0.5l-0.2-0.1c-1.1-0.8-2.8-1.8-4-2.4l-0.2-0.1l-0.2,0.1c-3.1,1.8-6,4.7-8,8
		c-0.5-0.2-4.1-1.7-4.6-1.9c0.5-1.9,0.8-3.8,0.8-5.7c0-2-0.3-3.8-0.8-5.6l-0.1-0.2l-0.2-0.1c-1.2-0.5-3.1-1.1-4.5-1.2l0.2-0.1
		L408.9,5c-2.6,2.5-4.6,6.1-5.7,9.8c-0.5-0.1-4.2-0.5-4.8-0.7c0-3.8-1.1-7.8-2.9-10.9L395.4,3l-0.2-0.1C394.5,3,393.7,3,392.9,3
		h-0.2c-0.8,0-1.6,0-2.3,0.1l-0.2,0.1l-0.1,0.2c-1.9,3.1-2.9,7.1-3,10.9c-0.5,0.1-4.3,0.6-4.8,0.6c-1.1-3.8-3.1-7.3-5.7-9.8L376.4,5
		h-0.2c-1.4,0.2-3.3,0.7-4.5,1.2h-0.2v0.2c-0.5,1.7-0.8,3.6-0.8,5.6c0,1.9,0.3,3.8,0.7,5.7c-0.5,0.2-4.1,1.8-4.6,1.9
		c-2-3.3-4.9-6.3-8-8l-0.2-0.1l-0.1,0.1c-1.3,0.5-3,1.5-4,2.3l-0.2,0.1v0.5c0,3.5,1.1,7.3,3,10.7c-0.4,0.3-3.2,2.4-3.6,2.8
		c-2.8-2.7-6.3-4.8-9.8-5.7h-0.2l-0.2,0.1c-1,0.8-2.5,2.2-3.4,3.3l-0.1,0.2v0.2c0.9,3.5,2.9,7,5.6,9.9c-0.3,0.4-2.6,3.6-3,3.9
		c-3.4-1.9-7.4-3-10.9-2.9h-0.2l-0.1,0.2c-0.8,1.1-1.8,2.8-2.3,4l-0.1,0.2l0.1,0.2c1.8,3.1,4.7,6,8,8c-0.2,0.5-1.6,3.8-1.8,4.3
		c-3.8-0.9-7.9-1-11.3,0V54l-0.1,0.2c-0.5,1.2-1.1,3.1-1.2,4.5v0.2l0.1,0.1c2.5,2.6,6.1,4.6,9.8,5.7c-0.1,0.5-0.5,4.2-0.6,4.7
		c-3.9,0.1-7.9,1.1-11,2.9l-0.2,0.1v0.2c-0.1,0.7-0.1,1.5-0.1,2.3s0,1.7,0.1,2.3v0.2l0.2,0.1c3.1,1.8,7.1,2.9,11,2.9
		c0.1,0.5,0.6,4.3,0.7,4.9c-3.8,1.1-7.3,3.2-9.8,5.7l-0.1,0.2v0.2c0.2,1.4,0.7,3.3,1.2,4.5l0.1,0.2l0.2,0.1c3.5,1,7.6,0.9,11.3,0
		c0.2,0.5,1.7,3.8,1.9,4.3c-3.3,2-6.2,4.9-8,8l-0.1,0.2l0.1,0.2c0.5,1.2,1.5,3,2.4,4.1l0.1,0.1h0.2c3.5,0.1,7.5-1,10.9-2.9
		c0.3,0.5,2.6,3.5,3,3.9c-2.7,2.8-4.8,6.3-5.7,9.8l-0.1,0.2l0.1,0.2c0.9,1.1,2.2,2.4,3.3,3.3l0.2,0.1l0.2-0.1c3.5-0.9,7-2.9,9.8-5.6
		c0.4,0.3,3.5,2.6,3.9,3c-1.8,3.4-2.9,7.3-2.9,10.8v0.4l0.1,0.1c1.1,0.8,2.8,1.8,4.1,2.4l0.2,0.1l0.2-0.1c3.1-1.7,6-4.7,8.1-8.1
		c0.5,0.2,3.8,1.5,4.2,1.8c-0.5,1.9-0.8,3.8-0.8,5.7s0.3,3.9,0.8,5.7l0.1,0.2l0.1,0.1c1.2,0.5,3.1,1.1,4.5,1.3h0.2l0.1-0.1
		c2.6-2.5,4.6-6.1,5.6-9.8c0.5,0,4.3,0.6,4.9,0.6c0.1,3.9,1.2,7.9,3,11l0.1,0.2h0.2c1.4,0.2,3.4,0.2,4.6,0h0.2l0.1-0.2
		c1.9-3.1,2.9-7,3-11c0.5-0.1,4.1-0.6,4.6-0.6c1.1,3.7,3.1,7.3,5.7,9.8l0.1,0.1h0.2c1.4-0.2,3.3-0.7,4.5-1.2l0.2-0.1v-0.2
		c0.5-1.8,0.8-3.7,0.8-5.6c-0.1-1.9-0.3-3.9-0.8-5.7c0.5-0.2,4-1.7,4.4-1.9c2,3.3,4.9,6.2,8,8l0.2,0.1l0.1-0.1
		c1.3-0.5,3-1.5,4.1-2.4l0.2-0.1v-0.5c0-3.5-1.1-7.3-2.9-10.7c0.4-0.3,3.3-2.5,3.7-2.9c2.8,2.7,6.4,4.8,9.8,5.7l0.3,0.1l0.1-0.1
		c1.1-0.9,2.5-2.3,3.3-3.3l0.1-0.1l-0.1-0.2c-0.8-3.5-2.9-7.1-5.6-9.9c0.3-0.4,2.6-3.5,2.9-3.9c3.5,1.9,7.4,3,10.9,2.9h0.2l0.1-0.2
		c0.9-1.1,1.8-2.8,2.4-4.1l0.1-0.2l-0.1-0.2c-1.6-3.1-4.6-6-7.9-8c0.1-0.5,1.5-3.8,1.7-4.3c3.8,0.9,7.9,1,11.3,0h0.2l0.1-0.2
		c0.6-1.2,1.1-3.1,1.3-4.5v-0.2l-0.1-0.2c-2.5-2.6-6.1-4.6-9.8-5.7c0.1-0.5,0.5-4.1,0.6-4.6c4-0.1,7.9-1.1,11-3l0.2-0.1v-0.2
		C464.7,77.1,464.7,76.7,464.7,76.3z M430.6,105.5l1.1,1.7l1,1.7l1.3-1.7l0.3-0.4L430.6,105.5z M377.7,121.2
		c-0.1-0.3-0.2-0.5-0.5-0.6l-2.3-0.8l-0.5,1.4l-0.2,0.5l0,0l2.1,0.8c0.6,0.3,1.1-0.3,1.3-0.8C377.7,121.6,377.7,121.4,377.7,121.2z
		 M395.4,127.2l-0.7-1.7l-0.7-1.9l-0.6,1.9l-0.6,1.8L395.4,127.2z M420.1,119.8c0-0.5-0.1-1-0.4-1.5c-0.8-1.4-2.5-1.9-3.9-1.1
		c-1,0.5-1.5,1.5-1.5,2.5c0,0.5,0.1,1,0.4,1.4c0.1,0.1,0.2,0.3,0.3,0.4c0.9,1,2.4,1.3,3.6,0.6c0.3-0.2,0.6-0.4,0.8-0.6
		C419.8,121.2,420.1,120.5,420.1,119.8z M439.5,102.1l-6.6-3.6l-0.8,1.5l7.9,4.4l3.1-5.5l-1.4-0.7L439.5,102.1z M352.1,97.6
		l-7.8,4.5c0.3,0.5,0.6,1.2,0.9,1.7l7.8-4.6C352.6,98.6,352.4,98.2,352.1,97.6z M357,104.8l-4.2,3.6l2.2-6.3c-0.4-0.5-0.6-0.9-1-1.4
		l-7.6,5.1c0.3,0.5,0.8,1,1.1,1.5l4.5-3.2l-2.1,6.3c0.4,0.4,0.7,1.1,1.3,1.5l7-6C357.9,105.7,357.4,105.3,357,104.8z M361.7,111.8
		l-4.8,5.7l-1.5-1.3l5-5.5c-0.8-0.7-1.4-1.4-2.1-2.1l1.1-1.1c1.9,1.8,3.6,3.2,5.6,4.9l-1,1.2C363.2,112.9,362.4,112.4,361.7,111.8z
		 M367.3,116c1.2,0.7,2.4,1.4,3.8,2l0.8-1.3c-1.9-1-3.6-2.1-5.2-3.1l-5.1,7.5c1.9,1.3,3.7,2.4,5.7,3.5l0.8-1.3l-4.1-2.4l1.4-2
		l2.7,1.6l0.8-1.3c-0.9-0.5-1.8-1-2.8-1.6L367.3,116z M379.4,121.2v0.5c-0.1,1.2-1,2.4-2.3,2.6l0.3,4.2c-0.6-0.1-1.3-0.3-2-0.6
		l-0.1-4l-1.8-0.8l-1.4,3.5c-0.6-0.2-1.2-0.4-1.7-0.7l1.8-4.3l0.2-0.5l1.5-3.5l4.1,1.6C378.9,119.6,379.3,120.4,379.4,121.2z
		 M387.2,121.3l-0.7,5.5l-2.6-6c-0.6-0.1-1-0.3-1.6-0.4l-2.1,8.9c0.6,0.2,1.3,0.2,1.9,0.4l1.1-5.5l2.7,6.1c0.6,0.1,1.3,0.3,2,0.3
		l1-9.2C388.3,121.3,387.7,121.4,387.2,121.3z M396.6,125.5l2,4.8c-0.6,0-1.2,0.1-1.8,0.2l-0.6-1.5l-3.9,0.1l-0.4,1.6
		c-0.6-0.1-1.2-0.1-1.8-0.1l1.7-5l1.2-3.8l0.1-0.1l2-0.1l0.1,0.2L396.6,125.5z M405.3,119.9c-2.6,0.6-4.7,1.1-7.3,1.5l0.2,1.5
		c1-0.2,1.9-0.3,2.9-0.4l1.3,7.3l1.9-0.4l-1.6-7.3c1-0.2,1.9-0.5,2.9-0.7L405.3,119.9z M407.4,119.1l3,8.6c0.6-0.2,1.2-0.4,1.8-0.6
		l-2.9-8.5C408.5,118.8,408.2,118.9,407.4,119.1z M421.1,117.6c0.4,0.7,0.6,1.5,0.6,2.3c0,0.6-0.1,1.3-0.4,1.8
		c-0.4,0.8-1,1.6-1.9,2.1c-2.1,1.2-4.9,0.5-6.1-1.7c0-0.1-0.1-0.3-0.2-0.4c-0.3-0.6-0.4-1.2-0.4-1.8c0.1-1.6,0.8-3.1,2.3-3.9
		C417,114.7,419.8,115.4,421.1,117.6z M424.4,109.1l3.7,4l-6.3-1.9c-0.5,0.4-0.9,0.5-1.3,0.9l5.5,7.4c0.5-0.4,1-0.8,1.4-1.2
		l-3.3-4.4l6.4,1.9c0.4-0.4,1.1-0.8,1.5-1.3l-6.3-6.7C425.3,108.2,424.9,108.7,424.4,109.1z M429.5,103.5l9,3
		c-0.2,0.3-0.4,0.5-0.6,0.8c-0.2,0.2-0.3,0.4-0.5,0.7l-1.6-0.6l-2.5,3.1l0.9,1.4c-0.4,0.4-0.8,0.9-1.3,1.3l-3.6-5.9l-1.3-2.2
		L429.5,103.5z M395.8,25.3c1,0,1.9,0.2,2.8,0.3l-0.5-1.9l-0.6-1.9l-0.9,1.9L395.8,25.3z M375.6,26.2c0.1,1.6,1.5,2.8,3.1,2.6
		c1.5-0.2,2.7-1.4,2.7-2.9c0.1-0.1,0-0.2,0-0.3c-0.1-1.6-1.5-2.7-3.1-2.6c-1.5,0.1-2.7,1.3-2.6,2.9v0.3H375.6z M406.5,25.3l2,0.7
		c0.6,0.2,1.3-0.7,1.3-1.5c0-0.4-0.1-0.7-0.6-0.8c-0.7-0.3-1.3-0.4-2.1-0.6l-0.4,1.4L406.5,25.3z M365.9,28.3l0.2,0.4l0.9,1.6l1.9-1
		c0.2-0.1,0.3-0.3,0.3-0.6c0-0.9-0.6-2-1.5-1.5C367.1,27.6,366.6,27.9,365.9,28.3z M373.9,26.3v-0.4c0-2.3,1.7-4.3,4.1-4.4
		c2.5-0.2,4.7,1.6,4.9,4.1V26c0,2.3-1.8,4.3-4.2,4.5C376.3,30.7,374.1,28.8,373.9,26.3z M394.3,28.4c-0.8,0-1.1,0-1.8,0l2.2-4.7
		l2-4.2l2,0.2l1.1,4l1.5,5.4c-0.7-0.1-1.2-0.2-1.9-0.3l-0.5-1.7c-1.3-0.2-2.5-0.3-3.8-0.3L394.3,28.4z M405.2,30.1
		c-0.7-0.2-1.3-0.3-2.1-0.5l1.5-5l1.1-3.6c1.6,0.4,3,0.9,4.5,1.4c0.8,0.3,1.3,1.2,1.4,2.2c0.1,1.4-0.6,2.9-2,3.2l0.5,4
		c-0.6-0.3-1.1-0.5-1.8-0.8l-0.5-3.5l-1.7-0.5L405.2,30.1z M363.9,28.8l-0.5-0.9c1.3-0.8,2.7-1.6,4.1-2.3c1.6-0.9,3.9,1.3,3.7,3.2
		c0,0.3-0.1,0.6-0.3,1l3.3,2.4c-0.6,0.3-1.1,0.5-1.8,0.9l-2.9-2.1l-1.6,0.9l1.7,2.8c-0.7,0.4-1.1,0.7-1.8,1.1L363.9,28.8z
		 M386.9,21.3l0.8,7.4l1.9-0.2l-0.8-7.3l2.9-0.2l-0.1-1.6c-3.3,0.2-4.6,0.3-7.9,0.8l0.2,1.6L386.9,21.3z M415.2,34.2l2-3.8l5.3-2.5
		c-0.6-0.4-1.2-0.7-1.7-1l-3.6,1.7l-0.7-4c-0.8-0.4-1.2-0.5-2-0.8l1.1,5.8l-2,3.7L415.2,34.2z M392.7,89.3c7.9,0,14.3-6.4,14.3-14.3
		s-6.4-14.3-14.3-14.3s-14.3,6.4-14.3,14.3C378.4,82.9,384.8,89.3,392.7,89.3z M392.7,87.9c-7.1,0-12.9-5.8-12.9-12.9
		s5.8-12.9,12.9-12.9s12.9,5.8,12.9,12.9S399.8,87.9,392.7,87.9z M428.5,89.2c0.6,0.4,1.3,0.9,1.9,0.6c0.4-0.1,0.8-0.6,1-1.4
		c2.8-9.5,2.8-17.6,0-27c-0.2-0.6-0.4-1.2-0.9-1.4s-1.1,0-2,0.6l-18.3,12.5c-0.7,0.5-1.1,1.1-1.1,1.8c0,0.7,0.4,1.3,1.1,1.8
		L428.5,89.2z M424.5,49.5c0-0.4-0.2-0.9-0.7-1.4c-6.8-7.2-13.8-11.2-23.4-13.5c-0.5-0.1-1.2-0.3-1.6,0.1c-0.4,0.3-0.6,1-0.5,2
		l1.6,22.2c0.1,0.8,0.4,1.5,1,1.8s1.4,0.3,2.1-0.1l20-9.6c0.6-0.3,1.4-0.6,1.5-1.3C424.5,49.7,424.5,49.6,424.5,49.5z M361,49.9
		c0.1,0.7,0.8,1,1.5,1.3l20,9.7c0.8,0.4,1.5,0.4,2.1,0.1c0.6-0.4,0.9-1,1-1.9l1.6-22.1c0.1-1.1-0.1-1.7-0.4-2
		c-0.4-0.4-1-0.3-1.6-0.1c-9.6,2.3-16.5,6.3-23.4,13.5C361.1,48.9,360.9,49.5,361,49.9z M357,60.8c-0.7-0.4-1.3-0.9-1.9-0.7
		c-0.5,0.1-0.8,0.6-1,1.4c-2.8,9.5-2.8,17.6,0,27c0.2,0.6,0.4,1.2,1,1.4c0.5,0.2,1.1,0,2-0.6l18.3-12.5c0.7-0.5,1.1-1.1,1.1-1.8
		c0-0.7-0.4-1.3-1.1-1.8L357,60.8z M361.3,100.5c0,0.4,0.3,0.9,0.7,1.4c6.9,7.2,13.8,11.2,23.4,13.5c0.6,0.2,1.2,0.3,1.6-0.1
		c0.4-0.3,0.6-1,0.5-2l-1.6-22.2c-0.1-0.8-0.4-1.5-1-1.8s-1.3-0.3-2.1,0L362.9,99c-0.7,0.3-1.4,0.7-1.6,1.3
		C361.3,100.3,361.3,100.4,361.3,100.5z M398.8,115c0.3,0.3,0.9,0.3,1.7,0.1c9.5-2.3,16.5-6.3,23.3-13.5c0.4-0.5,0.9-1,0.7-1.5
		c-0.1-0.5-0.6-1-1.5-1.4L403,89c-0.8-0.4-1.5-0.4-2.1,0s-0.9,1-1,1.9l-1.6,22.1C398.3,113.7,398.3,114.5,398.8,115z M356.6,33.1
		l5.9,6.6c0.8,0.9,1.7,0.8,2.9-0.2c7.5-5.9,17.1-9.3,27.3-9.3c10.2,0,19.8,3.5,27.4,9.3c1.2,0.9,2.1,1,2.9,0.2l5.9-6.6
		c0.7-0.7,0.7-1.7-0.6-2.8c-9.9-7.7-22.2-12.5-35.6-12.5s-25.8,4.8-35.5,12.5C355.9,31.4,355.9,32.4,356.6,33.1z M444.9,93.7
		l-8.5-2.9c-0.4-0.2-1.6-0.2-2.2,1.3c-6.9,16.5-22.9,27.8-41.5,27.8s-34.9-11.6-41.5-28.1c-0.5-1.2-1.7-1.2-2.1-1.1l-8.5,2.9
		c-0.9,0.3-1.5,1.1-1,2.3c8.3,21.2,29,36.2,53.1,36.2s44.9-15.1,53.2-36.3C446.3,94.8,445.8,94,444.9,93.7z M339.2,89.1l8.5-2.5
		c0.8-0.2,1.5-1.1,1.4-2.1c-3.1-15.8,0.8-28.7,10.1-39c0.9-0.7,1-2,0.1-3l-6.2-6.2c-0.6-0.7-1.7-0.7-2.6,0.3
		c-11.8,12.5-17.8,31.6-13.4,51.2C337.3,88.7,338.1,89.4,339.2,89.1z M435.1,36.6c-0.8-1-2.2-0.9-2.6-0.2l-6.2,6.2
		c-0.9,0.9-0.8,2.3,0.1,3c9.3,10.3,13.2,23.1,10.1,39c-0.1,1,0.6,1.9,1.4,2.1l8.5,2.5c1.1,0.3,1.9-0.4,2.1-1.3
		C452.9,68.2,446.9,49,435.1,36.6z M392.9,83.7c-4.6,0-8.5-3.9-8.5-8.6c0-3.7,2.4-7,6-8.1c0-0.4,0.1-2.3,0.1-2.3h4.3
		c0,0,0.1,1.8,0.1,2.2c3.7,0.9,6.5,4.3,6.5,8.3C401.4,79.8,397.6,83.7,392.9,83.7z"/>
	<g>
		<g>
			<path class="st1" d="M279.5,76.5l0.3,5.1c0,0.8-0.5,1.4-1.3,1.6c-2.2,0.4-5.1,0.9-7,0.9c-9.4,0-12.2-3.6-12.2-15.3v-18h-3.6
				c-0.9,0-1.5-0.7-1.5-1.5V44c0-0.9,0.7-1.5,1.5-1.5h3.6v-6.3c0-0.7,0.5-1.3,1.2-1.5l6.2-1.5c0.5-0.1,0.9,0,1.3,0.3
				s0.6,0.7,0.6,1.2v7.8h9.5c0.9,0,1.5,0.7,1.5,1.5v5.3c0,0.9-0.7,1.5-1.5,1.5h-9.5v16.7c0,5.8,0.2,7.8,4.2,7.8
				c1.5,0,3.8-0.1,5.1-0.2C278.7,75.1,279.5,75.7,279.5,76.5z"/>
			<path class="st1" d="M195.8,41.5c-4.7,0-12.2,1.1-15.2,1.6c-0.8,0.1-1.3,0.8-1.3,1.6l0.2,5.2c0,0.4,0.2,0.8,0.5,1.1
				s0.7,0.4,1.2,0.4c3.4-0.3,9.7-0.8,14.1-0.8c3.2,0,5.1,1.8,5.1,4.9V58l-10.1,0.8c-9.7,0.7-13.6,4.3-13.6,12.4
				c0,8.3,4.3,13,11.8,13c6.2,0,13.2-2.8,13.3-2.8c1.5,1.1,3,2.1,6.2,2.6c0.4,0.1,0.9-0.1,1.2-0.4s0.5-0.7,0.5-1.2v-27
				C209.7,45.8,205.3,41.5,195.8,41.5z M200.4,74.4c-0.1,0-5.9,1.6-10.2,1.6c-3.6,0-4.2-3.3-4.2-5.3c0-3.2,1.7-4.9,5.4-5.2l9-0.5
				V74.4z"/>
			<path class="st1" d="M169.7,42.1c-4.1,0.2-8.2,2.6-10.7,4.4V44c0-0.9-0.7-1.5-1.5-1.5h-6.2c-0.9,0-1.5,0.7-1.5,1.5v37.6
				c0,0.9,0.7,1.5,1.5,1.5h6.2c0.9,0,1.5-0.7,1.5-1.5v-26c1.4-1.2,5.7-4.4,10.9-4.9c0.8-0.1,1.4-0.7,1.4-1.5v-5.5
				c0-0.4-0.2-0.8-0.5-1.1C170.5,42.2,170.1,42.1,169.7,42.1z"/>
			<path class="st1" d="M248.5,75.7l0.2,5.2c0,0.8-0.5,1.5-1.3,1.6c-3,0.5-7.8,1.6-12.5,1.6c-12.7,0-18.4-6.5-18.4-21.1l0,0
				c0-0.1,0-0.2,0-0.3c0-14.6,5.7-21.1,18.4-21.1c4.7,0,9.5,1.1,12.5,1.6c0.8,0.1,1.3,0.8,1.3,1.6l-0.2,5.2c0,0.4-0.2,0.8-0.5,1.1
				s-0.7,0.4-1.2,0.4c-3.4-0.3-7.5-1.3-11.9-1.3c-6.6,0-8.9,3.3-8.9,12.6c0,0.4,0,0.7,0,1c0,0.2,0,0.4,0,0.6c0,0.3,0,0.6,0,0.9
				s0,0.5,0,0.8c0,0.1,0,0.3,0,0.4c0.6,6.7,3.1,9.2,8.8,9.2c4.4,0,8.5-1,11.9-1.3c0.4,0,0.8,0.1,1.2,0.4
				C248.3,74.9,248.5,75.3,248.5,75.7z"/>
			<path class="st1" d="M100.4,76.3l0.3,5.1c0,0.8-0.5,1.4-1.3,1.6c-2.2,0.4-5.1,0.9-7,0.9c-9.4,0-12.2-3.6-12.2-15.3v-18h-3.6
				c-0.9,0-1.5-0.7-1.5-1.5v-5.3c0-0.9,0.7-1.5,1.5-1.5h3.6V36c0-0.7,0.5-1.3,1.2-1.5l6.2-1.5c0.5-0.1,0.9,0,1.3,0.3
				s0.6,0.7,0.6,1.2v7.8H99c0.9,0,1.5,0.7,1.5,1.5v5.3c0,0.9-0.7,1.5-1.5,1.5h-9.5v16.7c0,5.8,0.2,7.8,4.2,7.8
				c1.5,0,3.8-0.1,5.1-0.2C99.7,74.8,100.4,75.4,100.4,76.3z"/>
			<path class="st1" d="M18.2,82.7l-7.3,0.1c-0.8,0-1.5-0.6-1.5-1.5L9,29.7c0-0.8,0.6-1.4,1.5-1.4l7.3-0.1c0.8,0,1.5,0.6,1.5,1.4
				l0.4,51.7C19.6,82.1,19,82.7,18.2,82.7z"/>
			<path class="st1" d="M66.3,82.4l-6.8,0.1c-0.8,0-1.5-0.7-1.5-1.5l-0.1-24c0-6.4-0.6-8.2-6.3-8.2c-2.5,0-5.2,1.1-8.3,2.7L43.6,81
				c0,0.8-0.6,1.5-1.5,1.6l-6.8,0.1c-0.8,0-1.5-0.7-1.5-1.5l-0.3-38.4c0-0.8,0.6-1.5,1.5-1.5h6.4c0.8,0,1.5,0.6,1.5,1.5v1.5
				c4.2-2.7,7-3.6,11.9-3.6c10.6-0.1,12.8,7,12.8,16.3l0.2,23.9C67.8,81.6,67.2,82.4,66.3,82.4z"/>
			<path class="st1" d="M123.8,40.7c-11.2,0-17.6,7.2-17.6,18.6v5.4c0,14.5,10.4,18.4,17.8,18.4c6.6,0,9.5-0.4,14.2-1.2
				c1.3-0.2,1.5-0.7,1.5-1.9v-4.8c0-0.7-0.6-1.1-1.3-1.1c-0.1,0-0.1,0-0.2,0c-3.1,0.3-8.1,0.7-13.5,0.7c-7,0-8.8-5.1-8.8-9.3v-0.2
				h23.9c1,0,1.5-0.7,1.5-1.8v-4.1C141.2,48.4,135.1,40.7,123.8,40.7z M131.5,58.4h-15.6v-0.3c0-5.8,3.3-9,7.9-9
				c4.6,0,7.7,3.3,7.7,9V58.4z"/>
		</g>
		<g class="st2">
			<path class="st1" d="M9.5,113.1L12.2,98h8.7l-0.3,1.5h-7.1l-1,5.4H19l-0.3,1.5h-6.5l-1.2,6.7H9.5z"/>
			<path class="st1" d="M24.4,103.3c0.6-3.6,3.1-5.6,6.2-5.6c3.4,0,5.9,2.2,5.9,5.8c0,0.5,0,1.2-0.2,1.8l-0.4,2.4
				c-0.7,3.6-2.7,5.6-6.4,5.6c-3.2,0-5.7-2-5.7-5.6c0-0.7,0-1.4,0.2-2.2L24.4,103.3z M25.6,105.9c-0.1,0.5-0.2,1-0.2,1.7
				c0,2.6,1.6,4.3,4.3,4.3c2.4,0,4-1.6,4.6-4.5l0.4-2.4c0.1-0.5,0.1-1.2,0.1-1.5c0-2.6-1.7-4.3-4.2-4.3c-2.2,0-3.9,1.3-4.5,4.3
				L25.6,105.9z"/>
			<path class="st1" d="M42.9,107.2c0,0.2-0.1,0.7-0.1,1.1c0,2.1,1.4,3.6,3.6,3.6c2,0,3.6-1.2,4.1-3.6l1.8-10.2H54l-1.8,10.3
				c-0.6,3.5-2.9,5-5.7,5c-3.1,0-5.3-1.8-5.3-4.9c0-0.6,0.1-1.2,0.1-1.5l1.6-9h1.7L42.9,107.2z"/>
			<path class="st1" d="M67.2,113.1l-5.8-12.3h-0.1l-2.2,12.3h-1.6L60.2,98h1.6l5.7,12.4h0.1L69.8,98h1.6l-2.7,15.1H67.2z"/>
			<path class="st1" d="M81.9,98.1c4,0,6,2.3,6,5.6c0,0.4,0,1.1-0.1,1.7c0,0.1-0.3,1.6-0.3,1.7c-0.7,4-3.4,6-8.3,6h-4L77.9,98h4
				V98.1z M77.1,111.7h2.2c3.6,0,6-1.6,6.6-4.8l0.3-1.5c0.1-0.4,0.1-1.1,0.1-1.5c0-2.8-1.6-4.4-4.8-4.4h-2.2L77.1,111.7z"/>
			<path class="st1" d="M100.9,113.1h-8.8L94.8,98h8.8l-0.3,1.5h-7.1l-0.9,5.1h6.8l-0.3,1.4H95l-1,5.6h7.2L100.9,113.1z"/>
			<path class="st1" d="M113.3,98.1c4,0,6,2.3,6,5.6c0,0.4,0,1.1-0.1,1.7c0,0.1-0.3,1.6-0.3,1.7c-0.7,4-3.4,6-8.3,6h-4l2.7-15.1h4
				V98.1z M108.5,111.7h2.2c3.6,0,6-1.6,6.6-4.8l0.3-1.5c0.1-0.4,0.1-1.1,0.1-1.5c0-2.8-1.6-4.4-4.8-4.4h-2.2L108.5,111.7z"/>
			<path class="st1" d="M130.6,113.1l2.7-15.1h1.6l-2.7,15.1H130.6z"/>
			<path class="st1" d="M148.4,113.1l-5.8-12.3h-0.1l-2.2,12.3h-1.6l2.7-15.1h1.6l5.7,12.4h0.1L151,98h1.6l-2.7,15.1H148.4z"/>
		</g>
		<g class="st2">
			<path class="st1" d="M174,98.1c3.9,0,6,2.4,6,5.8c0,0.4,0,1-0.1,1.6c0,0.1-0.3,1.5-0.3,1.6c-0.8,3.9-3.6,6.1-8.2,6.1h-4.7
				l2.7-15.1H174z M169.5,110.9h1.7c3.1,0,5.3-1.3,5.8-4.1c0-0.1,0.3-1.3,0.3-1.4c0.1-0.4,0.1-1,0.1-1.3c0-2.6-1.5-3.8-4.2-3.8h-1.8
				L169.5,110.9z"/>
			<path class="st1" d="M186.5,113.1l2.3-12.6h-0.2l-3.6,2l0.4-2.4l3.7-2.1h2.6l-2.7,15.1H186.5z"/>
			<path class="st1" d="M214.1,113.1l2.3-12.6h-0.2l-3.6,2l0.4-2.4l3.7-2.1h2.6l-2.7,15.1H214.1z"/>
			<path class="st1" d="M224.7,104.3c0.7-4,2.7-6.5,6.1-6.5c3,0,4.9,2,4.9,5.9c0,0.7,0,1.4-0.2,2.1l-0.2,1.1
				c-0.7,3.9-2.7,6.5-6.1,6.5c-3,0-4.8-2-4.8-5.8c0-0.7,0-1.4,0.2-2.3L224.7,104.3z M227,105.8c-0.1,0.8-0.2,1.4-0.2,1.8
				c0,2.4,0.9,3.6,2.4,3.6c1.8,0,3-1.6,3.6-4.6l0.2-1.2c0.1-0.6,0.2-1.4,0.2-1.9c0-2.2-0.9-3.5-2.5-3.5c-1.8,0-2.9,1.6-3.5,4.6
				L227,105.8z"/>
			<path class="st1" d="M237.2,116.6l8.9-19.3h2.2l-8.9,19.3C239.4,116.6,237.2,116.6,237.2,116.6z"/>
			<path class="st1" d="M251.1,102.1v-0.2c0.1-2.3,2.1-4.2,5-4.2c2.7,0,4.7,1.5,4.7,4c0,2.1-1.4,3.6-3.1,5.1l-4.3,3.9v0.2h6.6
				l-0.4,2.2h-10l0.3-1.9l6.2-5.7c1.1-1,2.3-2.2,2.3-3.5c0-1-0.8-2.1-2.4-2.1c-1.5,0-2.4,1-2.6,2.1v0.1H251.1z"/>
			<path class="st1" d="M265.5,104.3c0.7-4,2.7-6.5,6.1-6.5c3,0,4.9,2,4.9,5.9c0,0.7,0,1.4-0.2,2.1l-0.2,1.1
				c-0.7,3.9-2.7,6.5-6.1,6.5c-3,0-4.8-2-4.8-5.8c0-0.7,0-1.4,0.2-2.3L265.5,104.3z M267.7,105.8c-0.1,0.8-0.2,1.4-0.2,1.8
				c0,2.4,0.9,3.6,2.4,3.6c1.8,0,3-1.6,3.6-4.6l0.2-1.2c0.1-0.6,0.2-1.4,0.2-1.9c0-2.2-0.9-3.5-2.5-3.5c-1.8,0-2.9,1.6-3.5,4.6
				L267.7,105.8z"/>
			<path class="st1" d="M202.2,97.7c-3.3,0-5.5,2.3-5.5,5.4c0,2.8,2,4.7,4.4,4.7c1,0,1.6-0.3,2-0.6h0.2c0,0-0.5,0.5-0.8,0.8
				c-0.3,0.4-4.9,4.8-5.2,5.1h3.3c0.3-0.4,3.7-3.7,4-4.2c1.8-1.9,2.9-3.7,2.9-5.9C207.6,99.7,205.4,97.7,202.2,97.7z M202.1,106
				c-1.8,0-3.1-1.3-3.1-3c0-1.8,1.3-3.1,3.2-3.1c1.8,0,3.1,1.3,3.1,3C205.3,104.7,203.9,106,202.1,106z"/>
		</g>
	</g>
	<g>
		<g>
			<path class="st1" d="M501.9,71.2V46h5v25.2H501.9z"/>
			<path class="st1" d="M516.9,71.2V46h4.2l11,16.4h0.2V46h4.7v25.2h-4.1l-11.1-16.5h-0.2v16.5H516.9z"/>
			<path class="st1" d="M551.9,71.2V50.3h-7.1V46h19.3v4.3h-7.2v20.9H551.9z"/>
			<path class="st1" d="M588,71.2h-16.2V46H588v4.2h-11.3v6.3h10.6v3.9h-10.6V67H588V71.2z"/>
			<path class="st1" d="M616.2,54c0,3.7-2.3,6.2-4.6,7.1l5.1,10.1h-5.6l-4.4-9.3h-4.5v9.3h-4.9V46h10.1
				C612.9,46,616.2,49.2,616.2,54z M606.6,58c2.8,0,4.5-1.3,4.5-3.9c0-2.6-1.8-4.1-4.4-4.1h-4.4v8H606.6z"/>
			<path class="st1" d="M629.3,60.2c0,4.6,2,7.1,5.5,7.1c2.9,0,4.8-1.8,5-4.4h4.8v0.5c-0.2,4.9-4.3,8.2-9.8,8.2
				c-6.8,0-10.6-4.3-10.6-11.5V57c0-7.1,3.8-11.6,10.6-11.6c5.5,0,9.6,3.4,9.8,8.5v0.5h-4.8c-0.2-2.7-2.1-4.6-5-4.6
				c-3.5,0-5.5,2.6-5.5,7.2V60.2z"/>
			<path class="st1" d="M669.2,71.2V60.5h-10.6v10.7h-5V46h5v10.2h10.6V46h5v25.2H669.2z"/>
			<path class="st1" d="M681.9,71.2l8.4-25.2h5.8l8.4,25.2h-5.3l-2-6.3h-8.4l-2,6.3H681.9z M693,50.9L689.9,61h6.4l-3.1-10.1H693z"
				/>
			<path class="st1" d="M712.3,71.2V46h4.2l11,16.4h0.2V46h4.7v25.2h-4.1l-11.1-16.5H717v16.5H712.3z"/>
			<path class="st1" d="M757.2,53.6c-0.5-2.2-2.3-3.8-5.1-3.8c-3.6,0-5.7,2.6-5.7,7.1V60c0,4.3,1.8,7.2,5.8,7.2c3.5,0,5.2-2,5.2-4.4
				v-1.5h-5.2v-3.8h9.9v5c0,4.9-3.2,9.1-10,9.1c-7.2,0-10.8-4.8-10.8-11.6v-3.2c0-6.8,3.9-11.4,10.8-11.4c6,0,9.5,3.7,9.9,8.1
				L757.2,53.6L757.2,53.6z"/>
			<path class="st1" d="M787.5,71.2h-16.2V46h16.2v4.2h-11.3v6.3h10.6v3.9h-10.6V67h11.3V71.2z"/>
		</g>
		<g>
			<path class="st1" d="M501.8,103.9V85.7h2v18.1h-2V103.9z"/>
			<path class="st1" d="M511.8,103.9V85.7h2l9.4,14.8h0.1V85.7h1.9v18.1h-1.9L513.8,89h-0.1v14.8L511.8,103.9L511.8,103.9
				L511.8,103.9z"/>
			<path class="st1" d="M536.8,103.9V87.5h-5.6v-1.8h13.2v1.8h-5.6v16.4H536.8z"/>
			<path class="st1" d="M561.1,103.9h-10.7V85.7h10.7v1.8h-8.7v6.2h8.3v1.8h-8.3v6.6h8.7V103.9z"/>
			<path class="st1" d="M580.3,91c0,2.5-1.3,4.3-3.5,5l3.8,7.8h-2.2l-3.5-7.4h-4.7v7.4h-1.9V85.7h6.4
				C578.1,85.7,580.3,87.8,580.3,91z M574.3,94.7c2.6,0,4-1.2,4-3.5s-1.4-3.7-3.9-3.7h-4.2v7.2H574.3z"/>
			<path class="st1" d="M585.8,103.9l6.5-18.1h1.9l6.5,18.1h-2l-1.9-5.7h-7l-1.9,5.7H585.8z M593.2,88.1l-2.9,8.5h5.9L593.2,88.1
				L593.2,88.1z"/>
			<path class="st1" d="M607.7,96.2c0,3.9,1.8,6.2,5.1,6.2c2.5,0,4.3-1.4,4.5-3.4h1.9c-0.3,3-2.9,5.2-6.5,5.2c-4.6,0-7.1-3-7.1-8
				v-2.8c0-5,2.6-8.1,7-8.1c3.6,0,6.2,2.4,6.5,5.5l0,0h-1.9c-0.2-2.1-2-3.7-4.5-3.7c-3.3,0-5.1,2.5-5.1,6.4L607.7,96.2L607.7,96.2z"
				/>
			<path class="st1" d="M630,103.9V87.5h-5.6v-1.8h13.2v1.8H632v16.4H630z"/>
			<path class="st1" d="M652.4,103.9V85.7h2l9.4,14.8h0.1V85.7h1.9v18.1h-1.9L654.4,89h-0.1v14.8L652.4,103.9L652.4,103.9z"/>
			<path class="st1" d="M684.5,103.9h-10.7V85.7h10.7v1.8h-8.7v6.2h8.3v1.8h-8.3v6.6h8.7V103.9z"/>
			<path class="st1" d="M695.4,103.9V87.5h-5.6v-1.8H703v1.8h-5.6v16.4H695.4z"/>
			<path class="st1" d="M712.3,103.9l-5-18.1h2.3l3.6,15.1h0.1l3.8-15.1h2l3.8,15.1h0.1l3.6-15.1h2.3l-5,18.1h-1.7l-4-14.9h-0.1
				l-4,14.9H712.3z"/>
			<path class="st1" d="M741.3,104.2c-4.3,0-7.1-3-7.1-8v-2.8c0-5.1,2.8-8.1,7.1-8.1s7.1,3,7.1,8.1v2.8
				C748.4,101.3,745.6,104.2,741.3,104.2z M741.3,87.1c-3,0-5.2,2.1-5.2,6.3v2.8c0,4.1,2.2,6.3,5.2,6.3s5.2-2.1,5.2-6.3v-2.8
				C746.5,89.2,744.3,87.1,741.3,87.1z"/>
			<path class="st1" d="M767.7,91c0,2.5-1.3,4.3-3.5,5l3.8,7.8h-2.2l-3.5-7.4h-4.7v7.4h-1.9V85.7h6.4
				C765.5,85.7,767.7,87.8,767.7,91z M761.7,94.7c2.6,0,4-1.2,4-3.5s-1.4-3.7-3.9-3.7h-4.2v7.2H761.7z"/>
			<path class="st1" d="M780.8,93.5l7.3,10.4h-2.5l-6.2-9l-2.3,2.5v6.6h-1.9V85.7h1.9v9h0.1l8.2-9h2.4L780.8,93.5z"/>
		</g>
	</g>
</g>
</svg>
