<?xml version="1.0" encoding="UTF-8"?>
<svg width="261px" height="40px" viewBox="0 0 261 40" version="1.1" xmlns="http://www.w3.org/2000/svg" xmlns:xlink="http://www.w3.org/1999/xlink">
    <!-- Generator: Sketch 52.2 (67145) - http://www.bohemiancoding.com/sketch -->
    <title>Group 28</title>
    <desc>Created with Sketch.</desc>
    <g id="Page-1" stroke="none" stroke-width="1" fill="none" fill-rule="evenodd">
        <g id="Group-28" fill="#474747">
            <path d="M132.462976,20.3904278 C132.51463,20.0288496 132.51463,19.4864823 132.462976,19.1249041 C131.533203,18.5696233 130.396815,18.3113531 129.389561,18.3113531 C129.350821,17.8206399 129.27334,17.3299266 129.195858,16.8521268 C130.164372,16.5938567 131.197452,16.0514894 131.946436,15.276679 C131.894781,14.9151008 131.752733,14.385647 131.623598,14.0628093 C130.590517,13.7657986 129.428302,13.8174527 128.446875,14.0757228 C128.278999,13.62375 128.085297,13.1717773 127.891594,12.7327181 C128.756799,12.2290913 129.622004,11.4413673 130.138545,10.4986813 C130.04815,10.2920652 129.919015,10.0467086 129.78988,9.82717894 C129.699485,9.67221686 129.596177,9.53016828 129.505783,9.41394672 C128.421048,9.3881197 127.310486,9.7496979 126.432368,10.2404112 C126.148271,9.84009245 125.85126,9.45268724 125.528422,9.06528202 C126.238665,8.35503913 126.858514,7.36069908 127.129697,6.32761851 C126.897254,6.03060784 126.522762,5.65611613 126.238665,5.423673 C125.192671,5.69485665 124.211245,6.314705 123.501002,7.02494789 C123.12651,6.70211021 122.726191,6.39218604 122.325873,6.09517538 C122.829499,5.2299704 123.191078,4.10649528 123.165251,3.03467418 C122.86824,2.80223105 122.416267,2.54396091 122.067603,2.40191233 C121.124917,2.91845262 120.337193,3.7836576 119.846479,4.63594907 C119.394507,4.41641945 118.916707,4.22271684 118.425994,4.04192774 C118.697177,3.08632821 118.748831,1.91119906 118.451821,0.878118486 C118.116069,0.736069908 117.586616,0.594021329 117.237951,0.5423673 C116.46314,1.30426422 115.920773,2.33734479 115.662503,3.29294432 C115.17179,3.20254977 114.655249,3.13798224 114.164536,3.09924172 C114.164536,2.10490167 113.91918,0.968513037 113.363899,0.0387405215 C113.18311,0.0129135072 112.96358,2.84217094e-14 112.74405,2.84217094e-14 C112.511607,2.84217094e-14 112.292078,0.0129135072 112.111289,0.0387405215 C111.556008,0.968513037 111.297738,2.10490167 111.297738,3.09924172 C110.794111,3.13798224 110.290484,3.20254977 109.799771,3.29294432 C109.541501,2.32443129 108.98622,1.29135072 108.211409,0.5423673 C107.849831,0.594021329 107.320377,0.736069908 106.99754,0.865204979 C106.700529,1.89828555 106.752183,3.0605012 107.010453,4.04192774 C106.532653,4.22271684 106.054854,4.42933295 105.589967,4.64886258 C105.086341,3.7836576 104.298617,2.91845262 103.355931,2.40191233 C103.188055,2.47939337 102.981439,2.58270143 102.774823,2.698923 C102.58112,2.81514456 102.400331,2.93136612 102.258283,3.03467418 C102.232456,4.11940878 102.594034,5.2299704 103.097661,6.10808888 C102.723169,6.39218604 102.348677,6.6762832 101.987099,6.98620737 C101.276856,6.27596448 100.282516,5.65611613 99.2494354,5.38493248 C98.9524247,5.61737561 98.577933,5.99186732 98.3454899,6.27596448 C98.6166735,7.32195856 99.2365219,8.3033851 99.9467648,9.01362799 C99.6368406,9.40103321 99.3140029,9.81426544 99.0169923,10.2274977 C98.1517873,9.72387089 97.0412257,9.37520619 95.9564911,9.3881197 C95.853183,9.53016828 95.7369614,9.71095738 95.6207399,9.90465999 C95.5045183,10.1112761 95.4012103,10.3178922 95.3237292,10.4857678 C95.853183,11.4284538 96.7054745,12.2161778 97.5706795,12.7198045 C97.3769769,13.1588638 97.1832742,13.6108365 97.0153987,14.0628093 C96.0468856,13.8045391 94.8717565,13.7528851 93.8386759,14.0628093 C93.6966273,14.3985605 93.5545787,14.9280143 93.5029247,15.276679 C94.2519081,16.0514894 95.2979022,16.5938567 96.2535017,16.8521268 C96.1760207,17.3299266 96.1114532,17.8335534 96.0597991,18.3242667 C95.0525456,18.3242667 93.9161569,18.5825368 92.9863844,19.1378176 C92.9347304,19.4993958 92.9347304,20.0417631 92.9863844,20.4033413 C93.9161569,20.9586221 95.0525456,21.2168923 96.0597991,21.2168923 C96.1114532,21.720519 96.1889342,22.2241458 96.2664152,22.7148591 C95.2979022,22.9860427 94.2648216,23.52841 93.5158382,24.3032205 C93.5674922,24.6647987 93.7095408,25.1942525 93.8386759,25.5170901 C94.8717565,25.8141008 96.0339721,25.7624468 97.0153987,25.5041766 C97.1961878,25.9561494 97.3898904,26.4210356 97.5965065,26.8471814 C96.7313015,27.3378946 95.8660965,28.1385321 95.3495562,29.0683046 C95.4012103,29.1845262 95.4657778,29.3136612 95.5432588,29.4557098 C95.6853074,29.71398 95.8402695,29.9722501 95.9823181,30.1659527 C97.0670527,30.1917797 98.1776143,29.8302015 99.0428193,29.3394883 C99.3269164,29.7527205 99.6368406,30.1530392 99.9596783,30.5275309 C99.2494354,31.2248603 98.629587,32.2192003 98.3584034,33.2651944 C98.5908465,33.5622051 98.9653382,33.9366968 99.2494354,34.1691399 C100.295429,33.8979563 101.276856,33.2781079 101.987099,32.5807785 C102.361591,32.9036162 102.774823,33.2006269 103.188055,33.4976376 C102.697342,34.3628425 102.348677,35.4863177 102.361591,36.5710523 C102.658601,36.7905819 103.123488,37.0617655 103.459239,37.2038141 C104.401925,36.6743603 105.189649,35.8220688 105.693275,34.9439504 C106.119421,35.137653 106.571394,35.3184421 107.023367,35.4863177 C106.765097,36.4419172 106.713443,37.6170463 107.023367,38.6501269 C107.359118,38.7921755 107.888572,38.9342241 108.237236,38.9858781 C109.012047,38.2368947 109.554414,37.1909006 109.799771,36.2353011 C110.27757,36.3386091 110.794111,36.4031767 111.310651,36.4419172 C111.310651,37.4362572 111.568921,38.5726459 112.124202,39.5024184 C112.304991,39.5282454 112.511607,39.5411589 112.731137,39.5411589 C112.96358,39.5411589 113.196023,39.5282454 113.389726,39.5024184 C113.945007,38.5726459 114.203277,37.4362572 114.203277,36.4290037 C114.681076,36.3902632 115.17179,36.3127821 115.636676,36.2223876 C115.894946,37.1909006 116.437313,38.2239812 117.212124,38.9729646 C117.573702,38.9213106 118.103156,38.779262 118.425994,38.6501269 C118.723004,37.6170463 118.67135,36.4548307 118.41308,35.4734042 C118.877966,35.2926151 119.342853,35.0989124 119.781912,34.8793828 C120.285539,35.7445878 121.073262,36.6097928 122.015949,37.1263331 C122.3517,36.9842845 122.829499,36.7131008 123.113597,36.4935712 C123.139424,35.4088366 122.777845,34.298275 122.287132,33.4201565 C122.674537,33.1489729 123.061943,32.8390487 123.436434,32.5291245 C124.146677,33.2264539 125.141017,33.8592158 126.187011,34.1303994 C126.484022,33.8979563 126.858514,33.5234646 127.090957,33.2393674 C126.819773,32.1933733 126.199925,31.2119468 125.489682,30.5017039 C125.799606,30.1272122 126.10953,29.71398 126.406541,29.3007477 C127.271746,29.791461 128.395221,30.1530392 129.467042,30.1272122 C129.57035,29.9980771 129.673658,29.843115 129.764053,29.6881529 C129.893188,29.4686233 130.022323,29.2361802 130.099804,29.0424776 C129.583264,28.0997916 128.718059,27.3120676 127.865767,26.8084409 C128.072383,26.3693816 128.253172,25.9174089 128.421048,25.4783496 C129.376648,25.7366198 130.551777,25.7882738 131.584857,25.4912631 C131.726906,25.1555119 131.868954,24.6260581 131.920608,24.2773934 C131.171625,23.502583 130.125631,22.9602157 129.182945,22.7019456 C129.27334,22.2370593 129.337907,21.746346 129.376648,21.2685463 C130.396815,21.2039787 131.533203,20.9457086 132.462976,20.3904278 L132.462976,20.3904278 Z M102.903958,7.41235311 C105.602881,5.26871092 109.02496,3.95153319 112.718223,3.95153319 C116.411486,3.95153319 119.807739,5.26871092 122.545402,7.3994396 C122.894067,7.68353676 122.894067,7.96763391 122.713278,8.17425003 L121.073262,9.98214103 C120.840819,10.2404112 120.595463,10.1887571 120.259712,9.930487 C118.180637,8.3033851 115.533368,7.36069908 112.70531,7.36069908 C109.877252,7.36069908 107.229983,8.31629861 105.176735,9.930487 C104.853897,10.1887571 104.608541,10.2274977 104.376098,9.98214103 L102.736082,8.17425003 C102.568207,7.96763391 102.568207,7.68353676 102.903958,7.41235311 L102.903958,7.41235311 Z M107.901485,19.3186067 C108.263063,19.5639633 108.275977,19.9642821 107.901485,20.2225522 L102.83939,23.6575451 C102.32285,24.0062098 102.206629,23.7737667 102.116234,23.476756 C101.341424,20.8811411 101.354337,18.6471043 102.116234,16.0644029 C102.28411,15.5220356 102.555293,15.6899112 102.83939,15.8836138 L107.901485,19.3186067 L107.901485,19.3186067 Z M104.221136,12.4227939 C105.150908,11.4542808 106.080681,10.6923839 107.113761,10.0854491 C108.159755,9.47851425 109.309057,9.03945501 110.639149,8.71661733 C110.936159,8.63913629 111.19443,8.62622278 111.155689,9.24607112 L110.71663,15.35416 C110.703716,15.5736896 110.613322,15.7286517 110.471273,15.8190463 C110.329225,15.9094408 110.135522,15.9094408 109.928906,15.8061328 L104.427752,13.1459503 C104.104914,12.9909882 103.83373,12.8360261 104.221136,12.4227939 L104.221136,12.4227939 Z M104.518146,26.4081221 L110.032214,23.7350261 C110.432533,23.5413235 110.781197,23.7350261 110.819938,24.1869989 L111.271911,30.2950878 C111.310651,30.9149361 111.052381,30.9020226 110.75537,30.8245416 C108.121015,30.2046932 106.196902,29.0812181 104.337357,27.118365 C103.924125,26.7051328 104.208222,26.5630842 104.518146,26.4081221 L104.518146,26.4081221 Z M108.792517,19.7447524 C108.792517,17.5752832 110.561668,15.8061328 112.731137,15.8061328 C114.900606,15.8061328 116.669757,17.5752832 116.669757,19.7447524 C116.669757,21.9142216 114.900606,23.6833721 112.731137,23.6833721 C110.561668,23.6704586 108.792517,21.9013081 108.792517,19.7447524 L108.792517,19.7447524 Z M114.358239,30.2176067 L114.797298,24.1095179 C114.836039,23.6704586 115.17179,23.4638425 115.585022,23.6575451 L121.099089,26.3177276 C121.667284,26.5889112 121.512322,26.8084409 121.305706,27.0279705 C119.433247,28.9908236 117.509135,30.1013852 114.887693,30.734147 C114.319498,30.8891091 114.332412,30.5662714 114.358239,30.2176067 L114.358239,30.2176067 Z M117.599529,20.1708982 C117.237951,19.9255415 117.225037,19.5252228 117.599529,19.2669527 L122.661624,15.8319598 C123.178164,15.4832951 123.294386,15.7157382 123.38478,16.0127489 C124.159591,18.6083638 124.146677,20.8424005 123.38478,23.425102 C123.216905,23.9674693 122.945721,23.7995937 122.661624,23.6058911 L117.599529,20.1708982 L117.599529,20.1708982 Z M121.073262,13.0942963 L115.559195,15.7544787 C115.158876,15.9481813 114.810212,15.7673922 114.771471,15.302506 L114.332412,9.19441709 C114.280758,8.57456875 114.551941,8.58748226 114.848952,8.6649633 C117.483307,9.29772515 119.40742,10.4212003 121.266965,12.3711399 C121.667284,12.7972856 121.383187,12.9393342 121.073262,13.0942963 L121.073262,13.0942963 Z M97.3769769,23.2572264 C96.1631072,17.8722939 97.8160361,12.5906695 101.083153,9.15567657 C101.354337,8.88449292 101.638434,8.88449292 101.819223,9.07819553 L103.523806,10.7827785 C103.769163,11.0539621 103.743336,11.4284538 103.485066,11.6092429 C100.928191,14.4502145 99.8563702,17.9885155 100.695748,22.3661944 C100.721575,22.6502915 100.527873,22.8827347 100.308343,22.9343887 L97.9580847,23.6188046 C97.6481605,23.7221126 97.4415444,23.52841 97.3769769,23.2572264 L97.3769769,23.2572264 Z M127.413794,25.5041766 C125.102277,31.3669089 119.36868,35.5250582 112.731137,35.5250582 C106.093594,35.5250582 100.372911,31.3798224 98.0743062,25.5170901 C97.9451712,25.1942525 98.1001333,24.9747228 98.3454899,24.8843283 L100.695748,24.0707773 C100.824883,24.0320368 101.147721,24.0191233 101.28977,24.367788 C103.110574,28.926256 107.617388,32.1029788 112.74405,32.1029788 C117.870713,32.1029788 122.287132,28.9779101 124.185418,24.4323555 C124.366207,24.0191233 124.676131,24.0191233 124.805266,24.0578638 L127.155524,24.8714148 C127.387967,24.9747228 127.530016,25.1942525 127.413794,25.5041766 L127.413794,25.5041766 Z M128.136951,23.2572264 C128.072383,23.52841 127.865767,23.7221126 127.555843,23.6317181 L125.205585,22.9473022 C124.986055,22.8956482 124.805266,22.6632051 124.81818,22.3791079 C125.657558,18.0143425 124.585736,14.463128 122.028862,11.6221564 C121.770592,11.4413673 121.744765,11.0668756 121.990121,10.795692 L123.694704,9.09110904 C123.810926,8.89740643 124.185418,8.85866591 124.417861,9.14276307 C127.684978,12.577756 129.350821,17.8722939 128.136951,23.2572264 L128.136951,23.2572264 Z" id="Shape-Copy-21"></path>
            <path d="M116.295265,19.7447524 C116.295265,17.7818994 114.69399,16.1806245 112.718223,16.167711 C110.75537,16.167711 109.154095,17.7689858 109.141182,19.7447524 C109.141182,21.7076055 110.742457,23.3088804 112.718223,23.3217939 C114.69399,23.3088804 116.295265,21.7076055 116.295265,19.7447524 L116.295265,19.7447524 Z M110.71663,20.7390925 C110.574581,20.4420818 110.484187,20.1063306 110.484187,19.7447524 C110.484187,19.3444337 110.587495,18.9570285 110.781197,18.6341908 C110.987813,18.2855261 111.271911,17.9885155 111.620575,17.7948129 C111.775537,17.7044183 111.956326,17.6269373 112.137116,17.5881967 L112.175856,16.9812619 L112.756964,16.9812619 L113.170196,16.9812619 L113.196023,17.5494562 C113.790044,17.6785913 114.293671,18.027256 114.603595,18.5179693 C114.836039,18.8795475 114.978087,19.3056932 114.978087,19.7576659 C114.978087,20.1708982 114.861866,20.5583034 114.668163,20.8940546 C114.280758,21.5526434 113.570515,21.9917027 112.74405,22.0046162 L112.731137,22.0046162 C111.840105,22.0046162 111.078208,21.4880759 110.71663,20.7390925 L110.71663,20.7390925 Z" id="Shape-Copy-20"></path>
            <path d="M118.852139,31.0311577 C118.451821,31.2636008 118.232291,31.6639195 118.232291,32.1029788 C118.232291,32.2837679 118.271031,32.4516435 118.348512,32.6195191 C118.374339,32.6582596 118.387253,32.6970001 118.41308,32.7357406 C118.761745,33.329762 119.523642,33.5363781 120.117663,33.2006269 C120.350106,33.0585783 120.530895,32.8648757 120.634203,32.6324326 C120.711684,32.464557 120.750425,32.2966814 120.750425,32.1158923 C120.750425,31.9092762 120.698771,31.6897466 120.582549,31.4960439 C120.208058,30.8891091 119.446161,30.682493 118.852139,31.0311577 L118.852139,31.0311577 Z M120.078922,32.6195191 C120.027268,32.6840866 119.949787,32.7486541 119.872306,32.7873947 C119.536555,32.9810973 119.110409,32.9165297 118.865053,32.6195191 C118.826312,32.5807785 118.800485,32.542038 118.774658,32.490384 C118.697177,32.3612489 118.67135,32.2321139 118.658437,32.0900653 C118.658437,31.8059681 118.800485,31.547698 119.058755,31.3927359 C119.446161,31.1732063 119.936874,31.2894278 120.156403,31.6897466 C120.233885,31.8188816 120.272625,31.9609302 120.272625,32.0900653 C120.285539,32.2837679 120.208058,32.4774705 120.078922,32.6195191 L120.078922,32.6195191 Z" id="Shape-Copy-19"></path>
            <path d="M101.509299,25.9690629 L99.3527434,27.2216731 C99.4302245,27.3766352 99.520619,27.5445108 99.6110136,27.6865593 L101.767569,26.4339491 C101.664261,26.25316 101.599694,26.1369385 101.509299,25.9690629 L101.509299,25.9690629 Z" id="Shape-Copy-18"></path>
            <path d="M116.798892,31.9092762 L117.625356,34.272448 C117.793232,34.220794 117.974021,34.1691399 118.128983,34.1045724 L117.302518,31.7414006 C117.108816,31.8188816 116.992594,31.8576221 116.798892,31.9092762 L116.798892,31.9092762 Z" id="Shape-Copy-17"></path>
            <path d="M104.802243,30.3596553 L105.060514,30.0239041 C104.492319,29.5461044 104.027433,29.1716127 103.497979,28.6808994 L103.200969,28.9779101 C103.407585,29.1716127 103.588374,29.3524018 103.782076,29.5461044 L102.413245,31.0828117 L102.826477,31.4314764 L104.143655,29.868942 C104.363184,30.0497311 104.582714,30.1917797 104.802243,30.3596553 L104.802243,30.3596553 Z" id="Shape-Copy-16"></path>
            <path d="M116.20487,32.1158923 C115.481714,32.2837679 114.900606,32.412903 114.190363,32.516211 L114.254931,32.9423568 C114.526114,32.8907027 114.771471,32.8648757 115.055568,32.8261352 L115.417146,34.8535558 L115.9466,34.7373342 L115.520454,32.7357406 C115.791638,32.6711731 116.036995,32.5936921 116.308178,32.5291245 L116.20487,32.1158923 L116.20487,32.1158923 Z" id="Shape-Copy-15"></path>
            <path d="M113.363899,32.6195191 L113.338072,32.5549515 L112.782791,32.5807785 L112.769877,32.6324326 L112.421213,33.6784267 L111.956326,35.0601719 C112.124202,35.0601719 112.292078,35.0730854 112.459953,35.0859989 L112.602002,34.6469397 L113.686736,34.6081992 L113.841698,35.0343449 C114.009574,35.0085179 114.164536,34.9956044 114.332412,34.9826909 L113.790044,33.6655132 L113.363899,32.6195191 L113.363899,32.6195191 Z M112.756964,34.1691399 L112.924839,33.6525996 L113.092715,33.1360594 L113.299331,33.6525996 L113.493034,34.1433129 L112.756964,34.1691399 L112.756964,34.1691399 Z" id="Shape-Copy-14"></path>
            <path d="M122.532489,28.0223105 L122.894067,28.6292454 L123.888407,30.2563473 C124.004629,30.1272122 124.12085,30.0109906 124.224158,29.8947691 L123.978802,29.5073638 L124.663217,28.6550724 L125.089363,28.8100345 C125.128104,28.7454669 125.179758,28.6808994 125.218498,28.6292454 C125.270152,28.5517643 125.321806,28.4742833 125.386374,28.4097157 L122.894067,27.5832513 L122.532489,28.0223105 L122.532489,28.0223105 Z M124.198331,28.5130238 L124.107937,28.6292454 L123.746358,29.0941316 L123.462261,28.6292454 L123.178164,28.1643591 L124.198331,28.5130238 L124.198331,28.5130238 Z" id="Shape-Copy-13"></path>
            <polygon id="Shape-Copy-12" points="125.644644 27.2216731 123.82384 26.2144195 123.578483 26.6405653 125.786693 27.8544349 126.626071 26.3435546 126.238665 26.1369385"></polygon>
            <path d="M111.19443,32.490384 L111.01364,34.0141778 L110.27757,32.3483354 C110.096781,32.3095949 110.006387,32.2579409 109.838511,32.2321139 L109.270317,34.6985937 C109.438193,34.7373342 109.606068,34.7631613 109.786857,34.7889883 L110.109695,33.2910214 L110.845765,34.9697774 C111.01364,34.9956044 111.19443,35.0472584 111.388132,35.0472584 L111.672229,32.5032975 C111.517267,32.5032975 111.349392,32.516211 111.19443,32.490384 L111.19443,32.490384 Z" id="Shape-Copy-11"></path>
            <path d="M121.473581,29.1199586 L122.519575,30.2434338 L120.776252,29.7268935 C120.634203,29.843115 120.530895,29.8818556 120.40176,29.9851636 L121.91264,32.0254977 C122.054689,31.9221897 122.183824,31.8059681 122.312959,31.6897466 L121.383187,30.4758769 L123.139424,31.0053307 C123.268559,30.8891091 123.423521,30.7858011 123.539742,30.630839 L121.796419,28.7712939 C121.693111,28.8875155 121.602716,29.0166506 121.473581,29.1199586 L121.473581,29.1199586 Z" id="Shape-Copy-10"></path>
            <path d="M102.878131,27.9706565 L101.715915,28.9779101 L102.309937,27.2604136 C102.193715,27.1054515 102.167888,27.015057 102.051666,26.8730084 L99.9596783,28.2805807 C100.062986,28.4226292 100.166294,28.5517643 100.269602,28.6938129 L101.522213,27.8156944 L100.928191,29.5461044 C101.031499,29.6752394 101.134807,29.843115 101.276856,29.9593366 L103.213882,28.2934942 C103.110574,28.2030996 102.981439,28.0997916 102.878131,27.9706565 L102.878131,27.9706565 Z" id="Shape-Copy-9"></path>
            <path d="M108.663382,31.9351032 L107.539907,31.5089575 L107.126675,32.4774705 L107.062107,32.6195191 L106.55848,33.7946482 C106.726356,33.8850428 106.881318,33.9366968 107.03628,33.9883508 L107.423685,33.0198378 L107.914399,33.2264539 L107.940226,34.324102 C108.133928,34.4015831 108.314717,34.4532371 108.482593,34.4919776 L108.405112,33.329762 C108.76669,33.2781079 108.98622,32.9552703 109.02496,32.6195191 C109.037874,32.567865 109.037874,32.516211 109.037874,32.4774705 C109.02496,32.2450274 108.908739,32.0254977 108.663382,31.9351032 L108.663382,31.9351032 Z M108.560074,32.6195191 C108.50842,32.7744812 108.353458,32.9165297 108.198496,32.8519622 L107.630302,32.6324326 L107.643215,32.6195191 L107.694869,32.4774705 L107.836918,32.0771518 L108.456766,32.3095949 C108.534247,32.3483354 108.572988,32.3999894 108.585901,32.4774705 C108.585901,32.516211 108.572988,32.567865 108.560074,32.6195191 L108.560074,32.6195191 Z" id="Shape-Copy-8"></path>
            <path d="M105.706189,31.0440712 C106.04194,31.2377738 106.390605,31.4314764 106.752183,31.599352 L106.971713,31.2248603 C106.468086,30.9665902 105.990286,30.656666 105.551227,30.3596553 L104.143655,32.43873 C104.673108,32.7873947 105.176735,33.0844053 105.719102,33.407243 L105.938632,33.0456648 L104.815157,32.3741624 L105.189649,31.8317951 L105.938632,32.2837679 L106.171075,31.9351032 C105.925719,31.8059681 105.667448,31.651006 105.409178,31.4831304 L105.706189,31.0440712 L105.706189,31.0440712 Z" id="Shape-Copy-7"></path>
            <path d="M108.882912,7.45109363 C109.528587,7.38652609 110.032214,6.84415879 110.032214,6.19848343 C110.032214,6.15974291 110.0193,6.12100239 110.0193,6.09517538 C109.954733,5.4107595 109.347798,4.90713272 108.663382,4.95878675 C108.017707,5.02335428 107.526993,5.55280808 107.526993,6.19848343 L107.526993,6.314705 C107.604475,6.99912088 108.211409,7.50274766 108.882912,7.45109363 L108.882912,7.45109363 Z M108.715036,5.39784599 C109.154095,5.35910547 109.541501,5.68194315 109.580241,6.12100239 L109.580241,6.19848343 C109.580241,6.61171566 109.270317,6.94746685 108.857085,6.99912088 C108.418025,7.0378614 108.03062,6.71502372 107.99188,6.27596448 L107.99188,6.21139694 C107.978966,5.7723377 108.301804,5.423673 108.715036,5.39784599 L108.715036,5.39784599 Z" id="Shape-Copy-6"></path>
            <path d="M113.402639,6.45675358 C113.751304,6.46966708 114.074142,6.48258059 114.448633,6.54714813 L114.590682,7.01203438 C114.771471,7.0378614 114.91352,7.05077491 115.107222,7.08951543 L114.706903,5.5915486 L114.409893,4.48098698 L113.854612,4.42933295 L113.299331,5.5915486 L112.679483,6.88289931 C112.899012,6.89581282 112.976493,6.88289931 113.196023,6.89581282 L113.402639,6.45675358 L113.402639,6.45675358 Z M114.074142,5.0491813 L114.229104,5.57863509 L114.371152,6.10808888 C114.112882,6.06934836 113.854612,6.04352135 113.596342,6.03060784 L113.815871,5.57863509 L114.074142,5.0491813 L114.074142,5.0491813 Z" id="Shape-Copy-5"></path>
            <path d="M111.116948,4.92004623 L111.336478,6.96038036 L111.865932,6.90872633 L111.659316,4.8683922 L112.459953,4.81673817 L112.421213,4.37767893 C111.530181,4.42933295 111.168602,4.46807348 110.264657,4.59720855 L110.329225,5.03626779 L111.116948,4.92004623 L111.116948,4.92004623 Z" id="Shape-Copy-4"></path>
            <path d="M118.942534,8.4841742 L119.484901,7.45109363 L120.944127,6.77959126 C120.789165,6.66336969 120.62129,6.58588865 120.466328,6.4954941 L119.446161,6.94746685 L119.265371,5.86273225 C119.058755,5.75942419 118.92962,5.70777016 118.723004,5.61737561 L119.007101,7.20573699 L118.464734,8.23881756 L118.942534,8.4841742 L118.942534,8.4841742 Z" id="Shape-Copy-3"></path>
            <path d="M116.411486,6.45675358 L116.889286,6.61171566 L117.018421,7.59314221 C117.225037,7.67062325 117.354172,7.72227728 117.534962,7.79975832 L117.379999,6.68919671 C117.754491,6.59880216 117.948194,6.19848343 117.922367,5.82399173 C117.909453,5.53989457 117.780318,5.29453793 117.547875,5.21705689 C117.134643,5.08792182 116.721411,4.94587324 116.308178,4.84256518 L116.011168,5.83690523 L115.597935,7.2186505 C115.817465,7.28321803 115.959514,7.30904505 116.16613,7.36069908 L116.411486,6.45675358 L116.411486,6.45675358 Z M116.708497,5.4107595 C116.94094,5.47532703 117.070075,5.51406755 117.289605,5.57863509 C117.41874,5.61737561 117.45748,5.70777016 117.45748,5.81107822 C117.45748,6.01769433 117.250864,6.25013746 117.095902,6.21139694 L116.540621,6.03060784 L116.605189,5.81107822 L116.708497,5.4107595 L116.708497,5.4107595 Z" id="Shape-Copy-2"></path>
            <path d="M105.835324,8.88449292 C106.04194,8.76827136 106.145248,8.69079031 106.338951,8.57456875 L105.874065,7.79975832 L106.313124,7.55440169 L107.100848,8.13550951 C107.307464,8.04511496 107.436599,7.98054742 107.604475,7.90306638 L106.700529,7.24447751 C106.752183,7.15408296 106.77801,7.06368841 106.790924,6.97329386 C106.842578,6.44384007 106.196902,5.84981874 105.757843,6.09517538 C105.383351,6.30179149 104.983033,6.4954941 104.621454,6.71502372 L104.763503,6.97329386 L105.835324,8.88449292 L105.835324,8.88449292 Z M105.848238,6.56006163 C106.093594,6.41801306 106.274383,6.74085073 106.248556,6.97329386 C106.248556,7.05077491 106.209816,7.10242893 106.158162,7.14116946 L105.641621,7.41235311 L105.383351,6.97329386 L105.318784,6.8570723 C105.5254,6.74085073 105.641621,6.6762832 105.848238,6.56006163 L105.848238,6.56006163 Z" id="Shape-Copy"></path>
            <path d="M148.553327,16.9124979 L149.623222,16.9124979 L149.623222,22.9492735 L148.553327,22.9492735 L148.553327,16.9124979 Z M152.884919,16.9124979 L154.302956,16.9124979 L157.096573,21.4315531 L157.113555,21.4315531 L157.113555,16.9124979 L158.183451,16.9124979 L158.183451,22.9492735 L156.824853,22.9492735 L153.971797,18.2852675 L153.954815,18.2852675 L153.954815,22.9492735 L152.884919,22.9492735 L152.884919,16.9124979 Z M162.659394,17.850415 L160.816796,17.850415 L160.816796,16.9124979 L165.571889,16.9124979 L165.571889,17.850415 L163.72929,17.850415 L163.72929,22.9492735 L162.659394,22.9492735 L162.659394,17.850415 Z M168.205234,16.9124979 L172.187624,16.9124979 L172.187624,17.850415 L169.275129,17.850415 L169.275129,19.3851885 L172.034782,19.3851885 L172.034782,20.2889995 L169.275129,20.2889995 L169.275129,21.9943034 L172.340466,21.9943034 L172.340466,22.9492735 L168.205234,22.9492735 L168.205234,16.9124979 Z M175.321952,16.9124979 L177.410796,16.9124979 C177.693839,16.9124979 177.968386,16.9423404 178.234446,17.0020264 C178.500506,17.0617123 178.736843,17.1597663 178.943464,17.2961913 C179.150086,17.4326163 179.315663,17.6116714 179.440202,17.833362 C179.564741,18.0550526 179.627009,18.3250563 179.627009,18.6433813 C179.627009,19.0810782 179.503887,19.4377673 179.25764,19.7134595 C179.011393,19.9891517 178.675993,20.1753121 178.251429,20.2719465 L179.856272,22.9492735 L178.565604,22.9492735 L177.173041,20.3913178 L176.391848,20.3913178 L176.391848,22.9492735 L175.321952,22.9492735 L175.321952,16.9124979 Z M177.266445,19.5130863 C177.419288,19.5130863 177.572129,19.5017177 177.724972,19.4789802 C177.877815,19.4562427 178.015089,19.4136105 178.136797,19.3510824 C178.258505,19.2885543 178.358984,19.1990267 178.438236,19.0824971 C178.517488,18.9659674 178.557113,18.8167548 178.557113,18.6348548 C178.557113,18.4700079 178.520318,18.3350061 178.446727,18.2298451 C178.373136,18.1246842 178.279733,18.0408409 178.166516,17.9783128 C178.053299,17.9157847 177.924517,17.8731525 177.780165,17.850415 C177.635813,17.8276775 177.495709,17.816309 177.359849,17.816309 L176.391848,17.816309 L176.391848,19.5130863 L177.266445,19.5130863 Z M186.939026,18.3279001 C186.780522,18.1118939 186.573904,17.9541549 186.319165,17.8546783 C186.064427,17.7552017 185.815353,17.7054642 185.571936,17.7054642 C185.260589,17.7054642 184.977551,17.7623071 184.722813,17.8759946 C184.468074,17.9896821 184.24872,18.146 184.064742,18.3449532 C183.880764,18.5439063 183.739245,18.7769621 183.64018,19.0441277 C183.541115,19.3112933 183.491583,19.6011921 183.491583,19.9138327 C183.491583,20.2435264 183.5397,20.5447938 183.635934,20.8176437 C183.732169,21.0904937 183.869442,21.3249706 184.047759,21.5210816 C184.226076,21.7171925 184.43977,21.8692472 184.688848,21.9772503 C184.937925,22.0852535 185.218133,22.1392542 185.52948,22.1392542 C185.852149,22.1392542 186.138018,22.075306 186.387095,21.9474075 C186.636173,21.8195091 186.83713,21.6504015 186.989973,21.4400796 L187.847588,22.0454625 C187.581528,22.3808406 187.256034,22.6408968 186.871096,22.825639 C186.486158,23.0103812 186.036127,23.1027509 185.520989,23.1027509 C185.051138,23.1027509 184.619505,23.0245919 184.226075,22.8682716 C183.832646,22.7119513 183.494415,22.4931062 183.211372,22.2117296 C182.92833,21.9303531 182.70756,21.59498 182.549056,21.2056004 C182.390552,20.8162207 182.311301,20.3856358 182.311301,19.9138327 C182.311301,19.4306609 182.394798,18.9943916 182.561793,18.605012 C182.728788,18.2156323 182.958049,17.8845225 183.249583,17.6116725 C183.541117,17.3388225 183.885009,17.1285038 184.281268,16.9807101 C184.677528,16.8329163 185.107746,16.7590206 185.571936,16.7590206 C185.764405,16.7590206 185.965363,16.7774945 186.174814,16.8144429 C186.384266,16.8513914 186.585223,16.9082343 186.777692,16.9849733 C186.970161,17.0617124 187.151306,17.1569242 187.321131,17.2706117 C187.490957,17.3842992 187.635306,17.5207222 187.754184,17.6798847 L186.939026,18.3279001 Z M190.446968,16.9124979 L191.516864,16.9124979 L191.516864,19.3510824 L194.327463,19.3510824 L194.327463,16.9124979 L195.397359,16.9124979 L195.397359,22.9492735 L194.327463,22.9492735 L194.327463,20.2719465 L191.516864,20.2719465 L191.516864,22.9492735 L190.446968,22.9492735 L190.446968,16.9124979 Z M200.54411,16.9124979 L201.469655,16.9124979 L204.059482,22.9492735 L202.836744,22.9492735 L202.276323,21.5679774 L199.669513,21.5679774 L199.126074,22.9492735 L197.928809,22.9492735 L200.54411,16.9124979 Z M201.902708,20.6471133 L200.977163,18.1914758 L200.034636,20.6471133 L201.902708,20.6471133 Z M206.590933,16.9124979 L208.008969,16.9124979 L210.802586,21.4315531 L210.819569,21.4315531 L210.819569,16.9124979 L211.889464,16.9124979 L211.889464,22.9492735 L210.530867,22.9492735 L207.677811,18.2852675 L207.660828,18.2852675 L207.660828,22.9492735 L206.590933,22.9492735 L206.590933,16.9124979 Z M220.415728,22.6337923 C220.110042,22.7815861 219.774641,22.8966929 219.409516,22.9791164 C219.044391,23.0615398 218.624079,23.1027509 218.148568,23.1027509 C217.661734,23.1027509 217.217364,23.0245919 216.815443,22.8682716 C216.413523,22.7119513 216.068216,22.4931062 215.779513,22.2117296 C215.490809,21.9303531 215.265793,21.59498 215.104459,21.2056004 C214.943125,20.8162207 214.862459,20.3856358 214.862459,19.9138327 C214.862459,19.4306609 214.945955,18.9943916 215.11295,18.605012 C215.279946,18.2156323 215.509207,17.8845225 215.800741,17.6116725 C216.092275,17.3388225 216.436166,17.1285038 216.832426,16.9807101 C217.228686,16.8329163 217.658904,16.7590206 218.123094,16.7590206 C218.604266,16.7590206 219.044391,16.8286531 219.443481,16.9679203 C219.842571,17.1071875 220.16382,17.2905058 220.407237,17.5178808 L219.668499,18.3193736 C219.515656,18.1488424 219.301962,18.003893 219.027411,17.8845211 C218.752859,17.7651492 218.454254,17.7054642 218.131585,17.7054642 C217.814577,17.7054642 217.527293,17.7623071 217.269725,17.8759946 C217.012156,17.9896821 216.792801,18.146 216.611654,18.3449532 C216.430506,18.5439063 216.290402,18.7769621 216.191338,19.0441277 C216.092273,19.3112933 216.042741,19.6011921 216.042741,19.9138327 C216.042741,20.237842 216.092273,20.5348462 216.191338,20.804854 C216.290402,21.0748617 216.431922,21.3093387 216.615899,21.5082918 C216.799877,21.7072449 217.023477,21.8621418 217.286707,21.9729871 C217.549937,22.0838324 217.848542,22.1392542 218.182533,22.1392542 C218.641062,22.1392542 219.040146,22.0682006 219.379797,21.9260912 L219.379797,20.3913178 L218.114603,20.3913178 L218.114603,19.5045598 L220.415728,19.5045598 L220.415728,22.6337923 Z M223.651951,16.9124979 L227.634341,16.9124979 L227.634341,17.850415 L224.721847,17.850415 L224.721847,19.3851885 L227.481499,19.3851885 L227.481499,20.2889995 L224.721847,20.2889995 L224.721847,21.9943034 L227.787183,21.9943034 L227.787183,22.9492735 L223.651951,22.9492735 L223.651951,16.9124979 Z" id="INTERCHANGE-EXCHANGE-Copy-3"></path>
            <path d="M149.15877,38.8915104 L148.543795,38.8915104 L148.543795,32.8442577 L149.15877,32.8442577 L149.15877,38.8915104 Z M156.940359,37.9946721 L156.957442,37.9946721 L156.957442,32.8442577 L157.572417,32.8442577 L157.572417,38.8915104 L156.803698,38.8915104 L153.284675,33.6898481 L153.267593,33.6898481 L153.267593,38.8915104 L152.652618,38.8915104 L152.652618,32.8442577 L153.421336,32.8442577 L156.940359,37.9946721 Z M163.005144,38.8915104 L162.390169,38.8915104 L162.390169,33.390902 L160.365877,33.390902 L160.365877,32.8442577 L165.029436,32.8442577 L165.029436,33.390902 L163.005144,33.390902 L163.005144,38.8915104 Z M168.437871,38.3448661 L171.675031,38.3448661 L171.675031,38.8915104 L167.822897,38.8915104 L167.822897,32.8442577 L171.572535,32.8442577 L171.572535,33.390902 L168.437871,33.390902 L168.437871,35.4749835 L171.367543,35.4749835 L171.367543,36.0130865 L168.437871,36.0130865 L168.437871,38.3448661 Z M175.382412,38.8915104 L174.767437,38.8915104 L174.767437,32.8442577 L176.544031,32.8442577 C176.840132,32.8442577 177.114875,32.8727284 177.368268,32.9296708 C177.621662,32.9866132 177.840887,33.0791433 178.02595,33.2072637 C178.211013,33.3353841 178.35479,33.5019381 178.457286,33.7069307 C178.559783,33.9119234 178.61103,34.1624662 178.61103,34.4585667 C178.61103,34.680642 178.571171,34.8827845 178.491452,35.0650002 C178.411732,35.2472159 178.303543,35.4052287 178.166882,35.5390433 C178.03022,35.672858 177.867936,35.7796234 177.680026,35.8593427 C177.492117,35.9390621 177.287127,35.9903095 177.065052,36.0130865 L178.833104,38.8915104 L178.081468,38.8915104 L176.40737,36.0643344 L175.382412,36.0643344 L175.382412,38.8915104 Z M175.382412,35.5347727 L176.450077,35.5347727 C176.945476,35.5347727 177.326984,35.4450897 177.594613,35.2657212 C177.862243,35.0863526 177.996055,34.8173038 177.996055,34.4585667 C177.996055,34.2592683 177.959043,34.0912907 177.885018,33.9546289 C177.810993,33.8179672 177.708498,33.7069312 177.577531,33.6215176 C177.446563,33.536104 177.287127,33.4734683 177.099217,33.4336086 C176.911307,33.3937489 176.70347,33.3738194 176.475701,33.3738194 L175.382412,33.3738194 L175.382412,35.5347727 Z M181.72906,38.8915104 L181.054296,38.8915104 L183.667939,32.8442577 L184.265832,32.8442577 L186.862392,38.8915104 L186.179087,38.8915104 L185.512864,37.3028254 L182.386742,37.3028254 L181.72906,38.8915104 Z M182.617357,36.7390984 L185.282248,36.7390984 L183.949803,33.5275631 L182.617357,36.7390984 Z M194.575651,37.9178003 C194.473155,38.0715447 194.349307,38.2167457 194.204104,38.3534074 C194.058901,38.4900692 193.890923,38.6096465 193.700166,38.7121428 C193.509409,38.8146391 193.298726,38.8957808 193.068109,38.9555703 C192.837492,39.0153598 192.585526,39.0452542 192.312202,39.0452542 C191.856663,39.0452542 191.435296,38.965536 191.048087,38.8060973 C190.660879,38.6466585 190.327771,38.4260101 190.048753,38.1441452 C189.769735,37.8622803 189.551934,37.5277487 189.395342,37.1405404 C189.238751,36.753332 189.160456,36.3291175 189.160456,35.8678841 C189.160456,35.4066506 189.240174,34.9824361 189.399613,34.5952278 C189.559052,34.2080194 189.7797,33.8734878 190.061565,33.5916229 C190.34343,33.3097581 190.676538,33.0891096 191.060899,32.9296708 C191.44526,32.7702321 191.862357,32.690514 192.312202,32.690514 C192.534278,32.690514 192.752079,32.7132906 192.965613,32.7588445 C193.179147,32.8043984 193.379866,32.8684577 193.567776,32.9510241 C193.755686,33.0335906 193.92651,33.1332383 194.080255,33.2499702 C194.233999,33.3667022 194.362118,33.4990913 194.464614,33.6471415 L193.952135,34.0229595 C193.889499,33.9261574 193.80551,33.8293568 193.700166,33.7325547 C193.594823,33.6357526 193.470975,33.5503403 193.328619,33.4763152 C193.186263,33.40229 193.031097,33.3425014 192.863117,33.2969475 C192.695137,33.2513936 192.514348,33.228617 192.320744,33.228617 C191.927841,33.228617 191.576227,33.2997939 191.265891,33.4421499 C190.955555,33.5845059 190.6922,33.7766836 190.475819,34.0186888 C190.259438,34.260694 190.094307,34.5411311 189.980423,34.8600086 C189.866538,35.178886 189.809596,35.5148412 189.809596,35.8678841 C189.809596,36.2209269 189.867961,36.5568821 189.984693,36.8757595 C190.101425,37.194637 190.267979,37.4750741 190.48436,37.7170793 C190.700741,37.9590845 190.964096,38.1512622 191.274432,38.2936182 C191.584768,38.4359742 191.933535,38.5071512 192.320744,38.5071512 C192.668092,38.5071512 192.998353,38.4359742 193.311536,38.2936182 C193.62472,38.1512622 193.886651,37.923496 194.097338,37.6103128 L194.575651,37.9178003 Z M199.410486,38.8915104 L198.795512,38.8915104 L198.795512,33.390902 L196.771219,33.390902 L196.771219,32.8442577 L201.434779,32.8442577 L201.434779,33.390902 L199.410486,33.390902 L199.410486,38.8915104 Z M212.334399,37.9946721 L212.351481,37.9946721 L212.351481,32.8442577 L212.966456,32.8442577 L212.966456,38.8915104 L212.197738,38.8915104 L208.678715,33.6898481 L208.661632,33.6898481 L208.661632,38.8915104 L208.046657,38.8915104 L208.046657,32.8442577 L208.815376,32.8442577 L212.334399,37.9946721 Z M217.075279,38.3448661 L220.312439,38.3448661 L220.312439,38.8915104 L216.460305,38.8915104 L216.460305,32.8442577 L220.209943,32.8442577 L220.209943,33.390902 L217.075279,33.390902 L217.075279,35.4749835 L220.004951,35.4749835 L220.004951,36.0130865 L217.075279,36.0130865 L217.075279,38.3448661 Z M225.343724,38.8915104 L224.728749,38.8915104 L224.728749,33.390902 L222.704457,33.390902 L222.704457,32.8442577 L227.368016,32.8442577 L227.368016,33.390902 L225.343724,33.390902 L225.343724,38.8915104 Z M231.622042,38.04592 L231.639125,38.04592 L233.150938,32.8442577 L233.885491,32.8442577 L235.397304,38.04592 L235.414387,38.04592 L236.892035,32.8442577 L237.541175,32.8442577 L235.75604,38.8915104 L235.038569,38.8915104 L233.518214,33.6983894 L233.501132,33.6983894 L231.980777,38.8915104 L231.263307,38.8915104 L229.478171,32.8442577 L230.127311,32.8442577 L231.622042,38.04592 Z M246.228144,35.8678841 C246.228144,36.3291175 246.148426,36.753332 245.988987,37.1405404 C245.829549,37.5277487 245.6089,37.8622803 245.327035,38.1441452 C245.04517,38.4260101 244.712062,38.6466585 244.327701,38.8060973 C243.94334,38.965536 243.526243,39.0452542 243.076398,39.0452542 C242.626553,39.0452542 242.209456,38.965536 241.825095,38.8060973 C241.440734,38.6466585 241.107626,38.4260101 240.825761,38.1441452 C240.543896,37.8622803 240.323248,37.5277487 240.163809,37.1405404 C240.00437,36.753332 239.924652,36.3291175 239.924652,35.8678841 C239.924652,35.4066506 240.00437,34.9824361 240.163809,34.5952278 C240.323248,34.2080194 240.543896,33.8734878 240.825761,33.5916229 C241.107626,33.3097581 241.440734,33.0891096 241.825095,32.9296708 C242.209456,32.7702321 242.626553,32.690514 243.076398,32.690514 C243.526243,32.690514 243.94334,32.7702321 244.327701,32.9296708 C244.712062,33.0891096 245.04517,33.3097581 245.327035,33.5916229 C245.6089,33.8734878 245.829549,34.2080194 245.988987,34.5952278 C246.148426,34.9824361 246.228144,35.4066506 246.228144,35.8678841 Z M245.579004,35.8678841 C245.579004,35.5148412 245.522063,35.178886 245.408178,34.8600086 C245.294293,34.5411311 245.129163,34.260694 244.912781,34.0186888 C244.6964,33.7766836 244.433046,33.5845059 244.12271,33.4421499 C243.812373,33.2997939 243.463607,33.228617 243.076398,33.228617 C242.68919,33.228617 242.340423,33.2997939 242.030087,33.4421499 C241.719751,33.5845059 241.456396,33.7766836 241.240015,34.0186888 C241.023634,34.260694 240.858503,34.5411311 240.744619,34.8600086 C240.630734,35.178886 240.573792,35.5148412 240.573792,35.8678841 C240.573792,36.2209269 240.630734,36.5568821 240.744619,36.8757595 C240.858503,37.194637 241.023634,37.4736505 241.240015,37.7128086 C241.456396,37.9519667 241.719751,38.1427209 242.030087,38.2850769 C242.340423,38.4274329 242.68919,38.4986098 243.076398,38.4986098 C243.463607,38.4986098 243.812373,38.4274329 244.12271,38.2850769 C244.433046,38.1427209 244.6964,37.9519667 244.912781,37.7128086 C245.129163,37.4736505 245.294293,37.194637 245.408178,36.8757595 C245.522063,36.5568821 245.579004,36.2209269 245.579004,35.8678841 Z M250.012397,38.8915104 L249.397423,38.8915104 L249.397423,32.8442577 L251.174017,32.8442577 C251.470117,32.8442577 251.74486,32.8727284 251.998254,32.9296708 C252.251647,32.9866132 252.470872,33.0791433 252.655935,33.2072637 C252.840998,33.3353841 252.984775,33.5019381 253.087272,33.7069307 C253.189768,33.9119234 253.241015,34.1624662 253.241015,34.4585667 C253.241015,34.680642 253.201156,34.8827845 253.121437,35.0650002 C253.041718,35.2472159 252.933529,35.4052287 252.796867,35.5390433 C252.660205,35.672858 252.497922,35.7796234 252.310012,35.8593427 C252.122102,35.9390621 251.917112,35.9903095 251.695037,36.0130865 L253.46309,38.8915104 L252.711454,38.8915104 L251.037356,36.0643344 L250.012397,36.0643344 L250.012397,38.8915104 Z M250.012397,35.5347727 L251.080062,35.5347727 C251.575461,35.5347727 251.956969,35.4450897 252.224599,35.2657212 C252.492228,35.0863526 252.626041,34.8173038 252.626041,34.4585667 C252.626041,34.2592683 252.589029,34.0912907 252.515003,33.9546289 C252.440978,33.8179672 252.338484,33.7069312 252.207516,33.6215176 C252.076548,33.536104 251.917112,33.4734683 251.729202,33.4336086 C251.541292,33.3937489 251.333456,33.3738194 251.105686,33.3738194 L250.012397,33.3738194 L250.012397,35.5347727 Z M257.016727,35.5603966 L257.025269,35.5603966 L259.903693,32.8442577 L260.783448,32.8442577 L257.734198,35.5860206 L260.954275,38.8915104 L260.048895,38.8915104 L257.025269,35.6714338 L257.016727,35.6714338 L257.016727,38.8915104 L256.401752,38.8915104 L256.401752,32.8442577 L257.016727,32.8442577 L257.016727,35.5603966 Z" id="INTERACT-NETWORK"></path>
            <path d="M21.0710773,16.5001857 C19.4070757,16.5001857 18.1471887,17.5936724 18.1590745,17.6174439 L18.1590745,16.8448717 C18.1590745,16.8448717 18.1471887,16.5952715 17.9094742,16.5952715 L16.055301,16.5952715 C15.7700436,16.5952715 15.7819293,16.8686432 15.7819293,16.8686432 L15.7819293,26.6030526 C15.7819293,26.6030526 15.7819293,26.9239672 16.1028439,26.9239672 L17.8381599,26.9239672 C18.1471887,26.9239672 18.1590745,26.6030526 18.1590745,26.6030526 L18.1590745,19.9351604 C18.3492461,19.8163032 19.2525612,18.9367594 20.8571342,18.7347021 C21.9268495,18.5801877 22.2002212,19.6142458 22.2002212,19.6142458 L22.2002212,26.626824 C22.2002212,26.626824 22.2002212,26.9120815 22.4854786,26.9120815 L24.1970232,26.9120815 C24.5535949,26.9120815 24.5535949,26.5555097 24.5535949,26.5555097 L24.5535949,19.3171027 C24.5654807,19.3052169 24.6486807,16.4288713 21.0710773,16.5001857 L21.0710773,16.5001857 Z" id="Shape"></path>
            <path d="M32.398174,24.8558509 L30.7222866,24.8558509 C29.9497144,24.8558509 29.9616002,23.7861356 29.9616002,23.5484211 L29.9616002,18.7703593 L32.4219454,18.7703593 C32.6953171,18.7703593 32.74286,18.4494447 32.74286,18.4494447 L32.74286,16.8211003 C32.74286,16.8211003 32.7547457,16.5715 32.4932598,16.5715 L29.9853716,16.5715 L29.9853716,14.622241 C29.9853716,14.622241 29.9853716,14.1586977 29.5574855,14.1943549 C29.1533708,14.2656692 28.2025127,14.5271552 27.9529125,14.5865838 C27.5606836,14.6697839 27.5725693,15.0263557 27.5725693,14.966927 L27.5725693,16.5715 L26.586054,16.5715 C26.3007966,16.5715 26.3007966,16.8567574 26.3007966,16.8567574 L26.3007966,18.4494447 C26.3007966,18.4494447 26.3007966,18.7465878 26.5979398,18.7465878 L27.584455,18.7465878 C27.584455,18.7465878 27.6201122,23.2631636 27.6201122,23.4057923 C27.6201122,24.7488794 27.715198,26.8526528 30.0210288,27.149796 C30.4608006,27.2092246 31.8157734,27.1854531 32.5170312,26.9477386 C32.74286,26.9239672 32.8022886,26.6624812 32.8022886,26.6624812 L32.8022886,25.1886512 C32.7547457,25.2124227 32.7547457,24.8558509 32.398174,24.8558509 L32.398174,24.8558509 Z" id="Shape"></path>
            <path d="M42.798184,19.51916 C42.798184,16.357557 40.0169242,16.3456712 38.7808087,16.3456712 C34.4306331,16.3456712 34.2048043,19.4478457 34.2048043,21.7180193 C34.2048043,27.8748252 37.6992077,27.1616817 38.7570373,27.1616817 C39.8029811,27.1616817 41.8235545,26.757567 41.8235545,26.757567 C42.0256118,26.7100241 42.2038977,26.6387098 42.1682406,26.412881 L42.0850405,24.9152795 C42.0850405,24.9152795 42.0850405,24.5943649 41.7878973,24.6181364 C41.4907542,24.6419078 38.3648083,24.808308 38.3648083,24.808308 C37.6992077,24.7964223 36.8790926,24.546822 36.7126924,23.0135634 C36.7126924,23.0135634 40.0288099,22.7996203 40.242753,22.7520774 C40.5042389,22.7520774 42.798184,22.5143629 42.798184,19.51916 L42.798184,19.51916 Z M39.1968091,21.0167615 L36.6176066,21.1118473 C36.5819494,19.4121885 37.295093,18.4256732 38.8402373,18.4256732 C39.636581,18.4732161 40.2665244,18.6752735 40.3853817,19.3408741 C40.4329246,19.7331031 40.3853817,19.9470461 40.3616102,20.0659034 C40.2308672,20.6958469 39.6841239,20.99299 39.1968091,21.0167615 L39.1968091,21.0167615 Z" id="Shape"></path>
            <path d="M50.1079054,16.5239571 C49.2045902,16.3813284 48.1705321,17.0112719 47.2909884,17.5817867 L47.2909884,16.8092145 C47.2909884,16.702243 47.2909884,16.5833857 47.1127025,16.5833857 L45.1634435,16.5833857 C45.1634435,16.5833857 44.878186,16.5952715 44.878186,16.8805289 L44.878186,26.543624 C44.878186,26.9001957 45.2228721,26.9001957 45.2228721,26.9001957 L46.9463023,26.9001957 C46.9463023,26.9001957 47.2672169,26.9001957 47.2672169,26.5792811 L47.2672169,19.9351604 C48.1229892,19.2339026 49.1570473,18.7941307 50.1911055,18.6871592 C50.298077,18.6633878 50.42882,18.651502 50.42882,18.3781303 L50.42882,16.8448717 C50.42882,16.8448717 50.4407057,16.5952715 50.1079054,16.5239571 L50.1079054,16.5239571 Z" id="Shape"></path>
            <path d="M56.2884828,16.357557 C55.4089391,16.310014 52.4731648,16.7260145 52.4731648,16.7260145 C52.1879074,16.7735574 52.0809359,16.8805289 52.0809359,17.0350433 L52.116593,18.4732161 C52.1284788,18.6633878 52.1997931,18.8060165 52.4018505,18.8416736 L56.3835686,18.651502 C56.8589976,18.6277306 57.3581981,19.2457883 57.3700838,19.5429315 L57.405741,20.5056753 L54.6007097,20.7196183 C52.1284788,20.8860185 51.3559066,22.122134 51.3559066,23.8336785 C51.3559066,23.8336785 51.1538493,27.4588248 54.6007097,27.1616817 C56.8114547,26.9715101 57.7504271,26.4485381 57.7504271,26.4485381 C58.2258561,26.7932242 58.7250566,27.1141388 59.4619716,27.1022531 C59.4619716,27.1022531 59.7710004,27.1379102 59.7710004,26.8526528 L59.7710004,19.4003028 C59.7710004,19.4003028 59.9730578,16.2624711 56.2884828,16.357557 L56.2884828,16.357557 Z M57.3463124,24.6894507 C56.4311115,24.9271652 55.8962538,25.1054511 54.7433384,25.1054511 C54.7433384,25.1054511 53.7687089,25.1411083 53.7687089,23.8336785 C53.7687089,22.5856773 54.85031,22.5143629 54.9216243,22.5143629 C54.9929387,22.5024772 57.3463124,22.3955057 57.3463124,22.3955057 L57.3463124,24.6894507 L57.3463124,24.6894507 Z" id="Shape"></path>
            <path d="M77.1360458,24.8439652 L75.4601585,24.8439652 C74.6875863,24.8439652 74.699472,23.7742498 74.699472,23.5365353 L74.699472,18.7584736 L77.1598173,18.7584736 C77.433189,18.7584736 77.4807319,18.437559 77.4807319,18.437559 L77.4807319,16.8092145 C77.4807319,16.8092145 77.4926176,16.5596143 77.2311316,16.5596143 L74.7232435,16.5596143 L74.7232435,14.622241 C74.7232435,14.622241 74.7232435,14.1586977 74.2953574,14.1943549 C73.8912427,14.2656692 72.9403846,14.5271552 72.6907844,14.5865838 C72.2985554,14.6697839 72.3104412,15.0263557 72.3104412,14.966927 L72.3104412,16.5715 L71.3239259,16.5715 C71.0386685,16.5715 71.0386685,16.8567574 71.0386685,16.8567574 L71.0386685,18.4494447 C71.0386685,18.4494447 71.0386685,18.7465878 71.3358116,18.7465878 L72.3223269,18.7465878 C72.3223269,18.7465878 72.3579841,23.2631636 72.3579841,23.4057923 C72.3579841,24.7488794 72.4530699,26.8526528 74.7589007,27.149796 C75.1986725,27.2092246 76.5536453,27.1854531 77.2549031,26.9477386 C77.4807319,26.9239672 77.5401605,26.6624812 77.5401605,26.6624812 L77.5401605,25.1886512 C77.5045033,25.2124227 77.5045033,24.8439652 77.1360458,24.8439652 L77.1360458,24.8439652 Z" id="Shape"></path>
            <path d="M12.8223836,12.8988107 L11.1108391,12.8988107 C10.7423816,12.8988107 10.7423816,13.2672682 10.7423816,13.2672682 L10.7423816,26.5317382 C10.7423816,26.5317382 10.7423816,26.9120815 11.1108391,26.9120815 L12.8342693,26.9120815 C13.2146125,26.9120815 13.2146125,26.5317382 13.2146125,26.5317382 L13.2146125,13.2910397 C13.2146125,13.2910397 13.2146125,12.8988107 12.8223836,12.8988107 L12.8223836,12.8988107 Z" id="Shape"></path>
            <path d="M69.3984383,16.7260145 C69.3984383,16.7260145 67.4016364,16.2624711 65.9396921,16.3218998 C65.0601484,16.3813284 61.4468878,16.0604138 61.4468878,21.8012194 C61.4468878,27.3399676 65.0601484,27.1260245 65.6900919,27.1260245 C67.4372936,27.1260245 67.4254079,27.0903673 69.3865526,26.6981384 C69.5529528,26.6387098 69.6361529,26.5317382 69.6480386,26.3772238 L69.6123814,24.9509367 C69.6123814,24.6894507 69.5054099,24.5705935 69.2795811,24.5943649 C68.3524945,24.7845365 67.3422078,24.9152795 66.2724925,24.9984796 C64.4896336,25.0935654 63.8715758,23.8693357 63.8715758,21.9438481 C63.9191187,20.1728749 63.9547759,18.651502 66.1655209,18.5445305 C67.1639219,18.5445305 68.1860943,18.7703593 69.1012952,18.8892165 C69.4340955,18.9367594 69.541067,18.782245 69.5767242,18.5564162 L69.6361529,17.177672 C69.6955815,16.9399575 69.58861,16.8092145 69.3984383,16.7260145 L69.3984383,16.7260145 Z" id="Shape"></path>
            <path d="M0.391221128,38.7829102 L0.0196169953,38.7829102 L0.673849623,35.0773366 L2.85636967,35.0773366 L2.7987972,35.4070698 L0.987881284,35.4070698 L0.757591399,36.6998335 L2.43766079,36.6998335 L2.38532218,37.019099 L0.705252789,37.019099 L0.391221128,38.7829102 Z M5.83509107,38.8771197 C5.59433226,38.8771197 5.37276769,38.8387384 5.17039072,38.7619747 C4.96801375,38.685211 4.79355346,38.5770457 4.64700462,38.4374753 C4.50045578,38.297905 4.38705659,38.1304231 4.30680365,37.9350247 C4.22655072,37.7396262 4.18642485,37.5232955 4.18642485,37.2860259 C4.18642485,36.9685034 4.24225214,36.669304 4.3539084,36.3884187 C4.46556466,36.1075335 4.61821742,35.8632891 4.81187124,35.6556782 C5.00552507,35.4480673 5.23406805,35.2840747 5.49750703,35.1636953 C5.76094602,35.0433159 6.04444399,34.9831271 6.34800945,34.9831271 C6.58876826,34.9831271 6.81033283,35.020636 7.0127098,35.0956551 C7.21508677,35.1706741 7.38867476,35.2779672 7.53347897,35.4175375 C7.67828318,35.5571078 7.79168237,35.7237174 7.87367994,35.9173712 C7.9556775,36.1110251 7.99667567,36.3264835 7.99667567,36.5637531 C7.99667567,36.8812756 7.94259298,37.180475 7.83442598,37.4613602 C7.72625898,37.7422455 7.57622313,37.9873622 7.38431393,38.1967177 C7.19240474,38.4060732 6.96386176,38.5718105 6.69867814,38.6939345 C6.43349452,38.8160586 6.14563504,38.8771197 5.83509107,38.8771197 Z M7.59890223,36.6003901 C7.59890223,36.4224379 7.57098859,36.2549561 7.51516046,36.0979395 C7.45933233,35.9409228 7.37820829,35.8039715 7.27178592,35.6870814 C7.16536355,35.5701912 7.03277373,35.4777273 6.87401248,35.4096867 C6.71525124,35.3416462 6.53468484,35.3076264 6.33230787,35.3076264 C6.07061351,35.3076264 5.83160291,35.3625814 5.61526891,35.4724931 C5.3989349,35.5824047 5.2148793,35.728079 5.06309657,35.9095205 C4.91131384,36.0909619 4.79355315,36.2985696 4.70981095,36.5323499 C4.62606876,36.7661302 4.58419829,37.0068854 4.58419829,37.2546227 C4.58419829,37.4325749 4.61123963,37.6009291 4.66532313,37.7596903 C4.71940663,37.9184516 4.80053067,38.0562752 4.90869767,38.1731653 C5.01686467,38.2900555 5.14945449,38.3825194 5.30647111,38.45056 C5.46348772,38.5186005 5.64492642,38.5526203 5.85079265,38.5526203 C6.10899775,38.5526203 6.34539145,38.4985376 6.55998082,38.3903706 C6.7745702,38.2822036 6.9586258,38.1374015 7.11215316,37.9559601 C7.26568052,37.7745187 7.38518581,37.5660386 7.47067264,37.3305137 C7.55615946,37.0949888 7.59890223,36.8516167 7.59890223,36.6003901 Z M11.0696066,38.8771197 C10.8462941,38.8771197 10.6570046,38.8439722 10.5017327,38.7776763 C10.3464607,38.7113804 10.219977,38.6250225 10.1222777,38.5186002 C10.0245785,38.4121778 9.95392208,38.2918002 9.91030636,38.1574638 C9.86669063,38.0231273 9.84488309,37.8879206 9.84488309,37.7518395 C9.84488309,37.6297155 9.85535071,37.5128271 9.87628626,37.4011708 L10.2845274,35.0773366 L10.6561316,35.0773366 L10.2531243,37.3593 C10.2321887,37.4709562 10.2217211,37.577377 10.2217211,37.6785655 C10.2217211,37.7972003 10.2365502,37.9088548 10.2662089,38.0135326 C10.2958676,38.1182103 10.3447165,38.2106743 10.412757,38.2909272 C10.4807975,38.3711802 10.5697723,38.4348582 10.6796839,38.4819631 C10.7895956,38.5290681 10.9265469,38.5526203 11.090542,38.5526203 C11.2859405,38.5526203 11.45255,38.5203451 11.5903757,38.4557938 C11.7282014,38.3912426 11.8433452,38.3040124 11.9358106,38.1941008 C12.0282759,38.0841892 12.1015492,37.9568331 12.1556327,37.8120289 C12.2097162,37.6672247 12.2507144,37.5163166 12.2786285,37.3593 L12.6816358,35.0773366 L13.0532399,35.0773366 L12.6449987,37.4011708 C12.6170847,37.5546982 12.5708527,37.7178186 12.5063014,37.8905369 C12.4417501,38.0632551 12.3492862,38.2228863 12.2289068,38.3694351 C12.1085274,38.515984 11.95413,38.6372339 11.7657101,38.7331885 C11.5772901,38.8291431 11.345258,38.8771197 11.0696066,38.8771197 Z M17.20958,38.2542902 L17.2200478,38.2542902 L17.7800709,35.0773366 L18.151675,35.0773366 L17.4974424,38.7829102 L17.0316288,38.7829102 L15.5138091,35.5640856 L15.5033413,35.5640856 L14.9380843,38.7829102 L14.5664802,38.7829102 L15.2207128,35.0773366 L15.6865265,35.0773366 L17.20958,38.2542902 Z M20.3348495,35.0773366 L21.4548958,35.0773366 C21.6642513,35.0773366 21.871859,35.1061225 22.0777253,35.1636953 C22.2835915,35.221268 22.4685194,35.3119874 22.6325145,35.435856 C22.7965097,35.5597247 22.9290995,35.7202282 23.030288,35.9173712 C23.1314765,36.1145143 23.1820699,36.350908 23.1820699,36.6265594 C23.1820699,36.9510604 23.1253703,37.2458983 23.0119695,37.5110819 C22.8985686,37.7762655 22.740682,38.0030639 22.538305,38.1914839 C22.3359281,38.3799038 22.0969175,38.5255781 21.8212661,38.6285113 C21.5456147,38.7314444 21.245543,38.7829102 20.921042,38.7829102 L19.6806169,38.7829102 L20.3348495,35.0773366 Z M20.1097935,38.4531769 L20.9472113,38.4531769 C21.2472875,38.4531769 21.5115948,38.4025834 21.7401412,38.3013949 C21.9686876,38.2002065 22.160594,38.0667443 22.3158659,37.9010046 C22.4711379,37.7352648 22.5880263,37.5451031 22.6665346,37.3305137 C22.7450429,37.1159243 22.7842965,36.8952321 22.7842965,36.6684303 C22.7842965,36.4974567 22.7563829,36.3352086 22.7005547,36.1816812 C22.6447266,36.0281539 22.5592411,35.8938194 22.4440955,35.7786739 C22.32895,35.6635284 22.1824034,35.5728091 22.0044512,35.5065132 C21.826499,35.4402173 21.6154021,35.4070698 21.371154,35.4070698 L20.6488812,35.4070698 L20.1097935,38.4531769 Z M25.2658011,38.4531769 L27.2546683,38.4531769 L27.1970958,38.7829102 L24.8366245,38.7829102 L25.4908571,35.0773366 L27.7152481,35.0773366 L27.6576756,35.4070698 L25.8048888,35.4070698 L25.5798328,36.6945996 L27.3488778,36.6945996 L27.2913053,37.0138651 L25.5222603,37.0138651 L25.2658011,38.4531769 Z M29.7204713,35.0773366 L30.8405176,35.0773366 C31.0498731,35.0773366 31.2574808,35.1061225 31.463347,35.1636953 C31.6692133,35.221268 31.8541412,35.3119874 32.0181363,35.435856 C32.1821314,35.5597247 32.3147213,35.7202282 32.4159097,35.9173712 C32.5170982,36.1145143 32.5676917,36.350908 32.5676917,36.6265594 C32.5676917,36.9510604 32.5109921,37.2458983 32.3975912,37.5110819 C32.2841903,37.7762655 32.1263038,38.0030639 31.9239268,38.1914839 C31.7215498,38.3799038 31.4825392,38.5255781 31.2068878,38.6285113 C30.9312365,38.7314444 30.6311648,38.7829102 30.3066637,38.7829102 L29.0662387,38.7829102 L29.7204713,35.0773366 Z M29.4954153,38.4531769 L30.3328331,38.4531769 C30.6329093,38.4531769 30.8972166,38.4025834 31.125763,38.3013949 C31.3543094,38.2002065 31.5462157,38.0667443 31.7014877,37.9010046 C31.8567597,37.7352648 31.9736481,37.5451031 32.0521564,37.3305137 C32.1306647,37.1159243 32.1699183,36.8952321 32.1699183,36.6684303 C32.1699183,36.4974567 32.1420046,36.3352086 32.0861765,36.1816812 C32.0303484,36.0281539 31.9448628,35.8938194 31.8297173,35.7786739 C31.7145718,35.6635284 31.5680251,35.5728091 31.390073,35.5065132 C31.2121208,35.4402173 31.0010239,35.4070698 30.7567758,35.4070698 L30.034503,35.4070698 L29.4954153,38.4531769 Z M37.0962905,38.7829102 L36.7246863,38.7829102 L37.378919,35.0773366 L37.7505231,35.0773366 L37.0962905,38.7829102 Z M41.9277987,38.2542902 L41.9382664,38.2542902 L42.4982895,35.0773366 L42.8698936,35.0773366 L42.215661,38.7829102 L41.7498474,38.7829102 L40.2320277,35.5640856 L40.22156,35.5640856 L39.656303,38.7829102 L39.2846988,38.7829102 L39.9389315,35.0773366 L40.4047451,35.0773366 L41.9277987,38.2542902 Z M47.2780045,35.0773366 L48.5445989,35.0773366 C48.7539544,35.0773366 48.9615621,35.1061225 49.1674284,35.1636953 C49.3732946,35.221268 49.5582225,35.3119874 49.7222176,35.435856 C49.8862128,35.5597247 50.0188026,35.7202282 50.1199911,35.9173712 C50.2211795,36.1145143 50.271773,36.350908 50.271773,36.6265594 C50.271773,36.9510604 50.2150734,37.2458983 50.1016725,37.5110819 C49.9882717,37.7762655 49.8303851,38.0030639 49.6280081,38.1914839 C49.4256312,38.3799038 49.1866206,38.5255781 48.9109692,38.6285113 C48.6353178,38.7314444 48.3352461,38.7829102 48.0107451,38.7829102 L46.6237719,38.7829102 L47.2780045,35.0773366 Z M47.3617463,38.2176532 L48.0369144,38.2176532 C48.2951195,38.2176532 48.5219179,38.1757827 48.7173163,38.0920405 C48.9127148,38.0082983 49.0758351,37.8957714 49.2066823,37.7544565 C49.3375295,37.6131415 49.4360996,37.452638 49.5023955,37.2729413 C49.5686914,37.0932445 49.6018388,36.9056996 49.6018388,36.7103012 C49.6018388,36.5637524 49.5774144,36.4241841 49.5285648,36.2915923 C49.4797152,36.1590005 49.4055695,36.0438567 49.3061257,35.9461575 C49.2066818,35.8484583 49.0810704,35.7708234 48.9292877,35.7132507 C48.7775049,35.6556779 48.5969385,35.626892 48.3875831,35.626892 L47.8170922,35.626892 L47.3617463,38.2176532 Z M52.6275559,38.7829102 L53.150942,35.8257787 L52.3135242,36.4276727 L52.020428,35.9566252 L53.302724,35.0773366 L53.8993841,35.0773366 L53.2451515,38.7829102 L52.6275559,38.7829102 Z M58.1288893,36.1084072 C58.1288893,36.0141972 58.1114432,35.929584 58.0765507,35.8545649 C58.0416581,35.7795459 57.9945538,35.7158679 57.9352364,35.663529 C57.875919,35.6111901 57.8078795,35.5710643 57.7311158,35.5431502 C57.6543521,35.5152361 57.5741004,35.5012793 57.4903582,35.5012793 C57.2461102,35.5012793 57.0533315,35.5762972 56.9120166,35.7263353 C56.7707016,35.8763734 56.7000452,36.0752582 56.7000452,36.3229955 C56.7000452,36.4206947 56.7174912,36.5079248 56.7523838,36.5846885 C56.7872764,36.6614522 56.8326361,36.7260025 56.8884642,36.7783414 C56.9442923,36.8306803 57.0088426,36.8699338 57.0821171,36.8961033 C57.1553915,36.9222727 57.2304094,36.9353572 57.3071731,36.9353572 C57.4327864,36.9353572 57.5470579,36.914422 57.649991,36.8725509 C57.7529241,36.8306798 57.8392819,36.7722356 57.9090671,36.6972165 C57.9788523,36.6221975 58.032935,36.534095 58.0713168,36.4329066 C58.1096986,36.3317181 58.1288893,36.2235527 58.1288893,36.1084072 Z M57.4484873,37.3697677 C57.417084,37.3802355 57.3778304,37.3889585 57.3307255,37.395937 C57.2836205,37.4029155 57.2391331,37.4064047 57.197262,37.4064047 C57.0158206,37.4064047 56.8553171,37.3784911 56.7157468,37.3226629 C56.5761765,37.2668348 56.4592881,37.1909446 56.3650781,37.09499 C56.2708681,36.9990354 56.1993394,36.8882531 56.1504898,36.7626398 C56.1016402,36.6370265 56.0772157,36.5044367 56.0772157,36.3648664 C56.0772157,36.1799357 56.1094909,36.0037308 56.1740422,35.8362464 C56.2385934,35.668762 56.3319297,35.5222154 56.4540537,35.3966021 C56.5761778,35.2709888 56.7262136,35.1706741 56.9041658,35.0956551 C57.082118,35.020636 57.2862365,34.9831271 57.5165275,34.9831271 C57.6944797,34.9831271 57.8584724,35.0092961 58.0085105,35.061635 C58.1585486,35.1139738 58.2885215,35.1881195 58.3984331,35.2840741 C58.5083447,35.3800287 58.5947026,35.4977894 58.6575092,35.6373597 C58.7203159,35.77693 58.7517187,35.9339443 58.7517187,36.1084072 C58.7517187,36.2933379 58.7107206,36.4800104 58.628723,36.6684303 C58.5467254,36.8568502 58.4115187,37.0662026 58.2230988,37.2964936 L57.008843,38.7829102 L56.2604009,38.7829102 L57.4537212,37.3802354 L57.4484873,37.3697677 Z M61.0028244,38.7829102 L61.5262105,35.8257787 L60.6887927,36.4276727 L60.3956965,35.9566252 L61.6779925,35.0773366 L62.2746526,35.0773366 L61.62042,38.7829102 L61.0028244,38.7829102 Z M65.9336669,34.9831271 C66.1290653,34.9831271 66.2956749,35.0171468 66.4335006,35.0851873 C66.5713263,35.1532279 66.6829809,35.2456918 66.7684677,35.362582 C66.8539545,35.4794721 66.9167603,35.6155512 66.9568867,35.7708231 C66.9970132,35.9260951 67.0170761,36.0892155 67.0170761,36.2601891 C67.0170761,36.4381413 67.0057362,36.6265584 66.983056,36.8254461 C66.9603758,37.0243338 66.9228669,37.2206017 66.870528,37.4142555 C66.8181891,37.6079093 66.7501496,37.7928372 66.6664074,37.9690448 C66.5826652,38.1452523 66.480606,38.300522 66.3602266,38.4348584 C66.2398472,38.5691948 66.0994066,38.6764879 65.9389008,38.7567409 C65.7783949,38.8369938 65.5952116,38.8771197 65.3893453,38.8771197 C65.1939469,38.8771197 65.026465,38.8439722 64.8868947,38.7776763 C64.7473244,38.7113804 64.6330529,38.6224056 64.5440768,38.5107494 C64.4551007,38.3990931 64.3896781,38.2673756 64.347807,38.1155929 C64.3059359,37.9638101 64.2850007,37.8006898 64.2850007,37.6262269 C64.2850007,37.4447854 64.2972129,37.2537514 64.3216377,37.0531191 C64.3460625,36.8524867 64.3853161,36.6544743 64.4393996,36.4590759 C64.4934831,36.2636774 64.5641395,36.0770049 64.6513709,35.8990527 C64.7386024,35.7211006 64.8432786,35.5640863 64.9654026,35.4280052 C65.0875266,35.2919242 65.2288395,35.1837588 65.3893453,35.1035059 C65.5498512,35.0232529 65.7312899,34.9831271 65.9336669,34.9831271 Z M65.8813283,35.5012793 C65.7382687,35.5012793 65.6074235,35.5597235 65.4887887,35.6766136 C65.3701539,35.7935038 65.268967,35.9470288 65.1852248,36.1371934 C65.1014826,36.327358 65.03606,36.5428164 64.988955,36.7835752 C64.94185,37.0243341 64.9182979,37.2668339 64.9182979,37.5110819 C64.9182979,37.6262274 64.9270209,37.7343928 64.9444672,37.8355813 C64.9619134,37.9367698 64.9906994,38.0257445 65.0308259,38.1025082 C65.0709523,38.1792719 65.1241627,38.2394607 65.1904586,38.2830764 C65.2567545,38.3266922 65.3370063,38.3484997 65.4312162,38.3484997 C65.5707866,38.3484997 65.6981426,38.2900555 65.8132881,38.1731653 C65.9284336,38.0562752 66.027876,37.9036224 66.1116182,37.7152025 C66.1953604,37.5267826 66.2599107,37.3121964 66.305271,37.0714376 C66.3506314,36.8306788 66.3733112,36.5864344 66.3733112,36.3386971 C66.3733112,36.2235515 66.3654605,36.1153862 66.3497588,36.0141977 C66.3340572,35.9130092 66.3070158,35.8240344 66.268634,35.7472708 C66.2302522,35.6705071 66.1796587,35.6103183 66.116852,35.5667026 C66.0540454,35.5230868 65.9755383,35.5012793 65.8813283,35.5012793 Z M68.2580466,39.0289016 L67.8602732,38.8718858 L70.2050429,34.8261112 L70.6028163,34.9883609 L68.2580466,39.0289016 Z M73.8588233,38.2176532 L73.75938,38.7829102 L71.2994653,38.7829102 L71.3989086,38.2176532 L73.0528087,36.83068 C73.2551857,36.6597063 73.3964985,36.5114151 73.4767515,36.3858018 C73.5570044,36.2601885 73.5971303,36.1328325 73.5971303,36.00373 C73.5971303,35.8467133 73.550026,35.7245911 73.455816,35.6373597 C73.3616061,35.5501282 73.225527,35.5065132 73.0475749,35.5065132 C72.8800905,35.5065132 72.7352884,35.5579789 72.6131644,35.6609121 C72.4910404,35.7638452 72.400321,35.9095195 72.3410036,36.0979395 L71.7757466,35.9356898 C71.8908922,35.6181673 72.0662247,35.380029 72.3017497,35.2212677 C72.5372746,35.0625065 72.7998373,34.9831271 73.0894458,34.9831271 C73.2708872,34.9831271 73.4322629,35.0075515 73.5735779,35.0564011 C73.7148928,35.1052507 73.8343981,35.1724179 73.9320974,35.2579048 C74.0297966,35.3433916 74.1048145,35.4463232 74.1571534,35.5667026 C74.2094923,35.687082 74.2356613,35.8170549 74.2356613,35.9566252 C74.2356613,36.0961955 74.2164707,36.2226792 74.1780888,36.3360801 C74.139707,36.449481 74.0830074,36.5567741 74.0079884,36.6579626 C73.9329693,36.7591511 73.84225,36.8594657 73.7358276,36.9589096 C73.6294052,37.0583534 73.5081553,37.1639019 73.3720742,37.2755582 L72.2258587,38.2176532 L73.8588233,38.2176532 Z M77.3346525,34.9831271 C77.5300509,34.9831271 77.6966605,35.0171468 77.8344862,35.0851873 C77.9723119,35.1532279 78.0839665,35.2456918 78.1694533,35.362582 C78.2549401,35.4794721 78.3177458,35.6155512 78.3578723,35.7708231 C78.3979988,35.9260951 78.4180617,36.0892155 78.4180617,36.2601891 C78.4180617,36.4381413 78.4067218,36.6265584 78.3840416,36.8254461 C78.3613614,37.0243338 78.3238525,37.2206017 78.2715136,37.4142555 C78.2191747,37.6079093 78.1511352,37.7928372 78.067393,37.9690448 C77.9836508,38.1452523 77.8815915,38.300522 77.7612121,38.4348584 C77.6408327,38.5691948 77.5003922,38.6764879 77.3398863,38.7567409 C77.1793804,38.8369938 76.9961971,38.8771197 76.7903309,38.8771197 C76.5949325,38.8771197 76.4274506,38.8439722 76.2878803,38.7776763 C76.1483099,38.7113804 76.0340384,38.6224056 75.9450624,38.5107494 C75.8560863,38.3990931 75.7906637,38.2673756 75.7487926,38.1155929 C75.7069215,37.9638101 75.6859862,37.8006898 75.6859862,37.6262269 C75.6859862,37.4447854 75.6981985,37.2537514 75.7226233,37.0531191 C75.7470481,36.8524867 75.7863016,36.6544743 75.8403851,36.4590759 C75.8944686,36.2636774 75.9651251,36.0770049 76.0523565,35.8990527 C76.139588,35.7211006 76.2442641,35.5640863 76.3663882,35.4280052 C76.4885122,35.2919242 76.629825,35.1837588 76.7903309,35.1035059 C76.9508368,35.0232529 77.1322755,34.9831271 77.3346525,34.9831271 Z M77.2823138,35.5012793 C77.1392543,35.5012793 77.008409,35.5597235 76.8897743,35.6766136 C76.7711395,35.7935038 76.6699525,35.9470288 76.5862103,36.1371934 C76.5024681,36.327358 76.4370455,36.5428164 76.3899405,36.7835752 C76.3428356,37.0243341 76.3192834,37.2668339 76.3192834,37.5110819 C76.3192834,37.6262274 76.3280064,37.7343928 76.3454527,37.8355813 C76.362899,37.9367698 76.391685,38.0257445 76.4318114,38.1025082 C76.4719379,38.1792719 76.5251483,38.2394607 76.5914442,38.2830764 C76.6577401,38.3266922 76.7379918,38.3484997 76.8322018,38.3484997 C76.9717721,38.3484997 77.0991281,38.2900555 77.2142737,38.1731653 C77.3294192,38.0562752 77.4288615,37.9036224 77.5126037,37.7152025 C77.5963459,37.5267826 77.6608962,37.3121964 77.7062566,37.0714376 C77.7516169,36.8306788 77.7742968,36.5864344 77.7742968,36.3386971 C77.7742968,36.2235515 77.7664461,36.1153862 77.7507444,36.0141977 C77.7350427,35.9130092 77.7080014,35.8240344 77.6696196,35.7472708 C77.6312377,35.6705071 77.5806442,35.6103183 77.5178376,35.5667026 C77.4550309,35.5230868 77.3765238,35.5012793 77.2823138,35.5012793 Z" id="FOUNDED-IN-D1910/20"></path>
        </g>
    </g>
</svg>