<?xml version="1.0" encoding="utf-8"?>
<svg version="1.1" id="Ebene_1" xmlns="http://www.w3.org/2000/svg" xmlns:xlink="http://www.w3.org/1999/xlink" x="0px" y="0px"
	 viewBox="0 0 385.6 155.4" style="enable-background:new 0 0 385.6 155.4;" xml:space="preserve">
<style type="text/css">
	.st0{fill:#5C5C5C;}
</style>
<g>
	<polygon class="st0" points="67.8,88.6 32.7,68.3 32.7,134 67.8,144.6 	"/>
	<polygon class="st0" points="71.7,88.8 71.7,144.6 107.1,134 107.1,68.3 	"/>
	<polygon class="st0" points="127.4,132.8 126.3,132.8 130.5,147.3 134.7,132.8 133.6,132.8 134.7,132.8 134.7,74.4 133.6,74.4 
		132.6,74.4 131.5,74.4 129.4,74.4 128.4,74.4 127.4,74.4 126.3,74.4 126.3,132.8 	"/>
	<polygon class="st0" points="114.6,71.1 110.9,68.2 110.9,135.7 71.8,148.4 70,148.4 69.6,148.4 67.8,148.4 29,137.5 29,68.2 
		25.2,71.1 25.2,140.1 67.7,151.9 69.6,151.9 70,151.9 72,151.9 111.2,139.5 114.6,138.4 	"/>
	<path class="st0" d="M134.7,66.7c0-2.3-1.9-4.2-4.2-4.2c-2.3,0-4.2,1.9-4.2,4.2v4.5h8.3v-4.5H134.7z"/>
	<path class="st0" d="M41.9,18.1V17c-2.2-0.4-3.2-2-3.2-4.3v-8c0-2.6,1.3-4.5,4.2-4.5s4.2,1.9,4.2,4.5v8c0,1.8-0.6,3.2-2,3.9l2,0.4
		v2.1L41.9,18.1z M44.3,13.3v-9c0-1-0.4-1.7-1.4-1.7s-1.4,0.7-1.4,1.7v9c0,1,0.4,1.7,1.4,1.7C43.9,15,44.3,14.2,44.3,13.3"/>
	<path class="st0" d="M56.7,0.4v12.5c0,2.6-1.1,4.2-3.9,4.2c-2.9,0-4.1-1.7-4.1-4.2V0.4h2.8v12.8c0,1,0.4,1.6,1.4,1.6
		s1.4-0.7,1.4-1.6V0.4H56.7z"/>
	<path class="st0" d="M57.5,16.9l3.1-16.5h3.2l3.1,16.5h-2.8l-0.5-3h-2.9l-0.5,3H57.5z M61,11.7h2.2l-1.1-6.6l0,0L61,11.7z"/>
	<polygon class="st0" points="68.1,0.4 70.9,0.4 70.9,14.7 74.2,14.7 74.2,17 68.1,17 	"/>
	<rect x="75.4" y="0.4" class="st0" width="2.8" height="16.5"/>
	<polygon class="st0" points="79.5,0.4 86.9,0.4 86.9,2.7 84.6,2.7 84.6,17 81.8,17 81.8,2.7 79.5,2.7 	"/>
	<polygon class="st0" points="93.6,10.7 93.6,17 90.8,17 90.8,10.7 87.7,0.4 90.6,0.4 92.3,6.7 92.3,6.7 94,0.4 96.6,0.4 	"/>
	<polygon class="st0" points="38.7,23.6 45.3,23.6 45.3,25.8 41.5,25.8 41.5,30.6 44.2,30.6 44.2,32.8 41.5,32.8 41.5,37.8 
		45.3,37.8 45.3,40.1 38.7,40.1 	"/>
	<path class="st0" d="M55.1,28v7.6c0,2.5-1,4.4-4,4.4h-4.3V23.5h4.3C54.1,23.6,55.1,25.4,55.1,28 M50.7,37.8c1.1,0,1.6-0.7,1.6-1.7
		v-8.6c0-1-0.4-1.7-1.6-1.7h-1.2v12H50.7z"/>
	<path class="st0" d="M64.7,23.6v12.5c0,2.6-1.1,4.2-3.9,4.2c-2.9,0-4.1-1.7-4.1-4.2V23.6h2.8v12.8c0,1,0.4,1.6,1.4,1.6
		s1.4-0.7,1.4-1.6V23.6H64.7z"/>
	<path class="st0" d="M66.3,35.8v-8c0-2.6,1.2-4.5,4.1-4.5c3.1,0,3.9,1.7,3.9,4.1v1.9h-2.5v-2.2c0-1-0.3-1.6-1.3-1.6
		s-1.4,0.7-1.4,1.7v8.9c0,1,0.4,1.7,1.4,1.7s1.3-0.6,1.3-1.6v-3h2.5v2.9c0,2.4-1,4.1-3.9,4.1C67.5,40.3,66.3,38.4,66.3,35.8"/>
	<path class="st0" d="M75.2,40.1l3.1-16.5h3.2l3.1,16.5h-2.8l-0.5-3h-2.9l-0.5,3H75.2z M78.7,34.8h2.2l-1.1-6.6l0,0L78.7,34.8z"/>
	<polygon class="st0" points="84.2,23.6 91.6,23.6 91.6,25.8 89.3,25.8 89.3,40.1 86.5,40.1 86.5,25.8 84.2,25.8 	"/>
	<rect x="92.9" y="23.6" class="st0" width="2.8" height="16.5"/>
	<path class="st0" d="M97.3,35.8v-8c0-2.6,1.3-4.5,4.2-4.5c2.9,0,4.2,1.9,4.2,4.5v8c0,2.6-1.3,4.5-4.2,4.5
		C98.6,40.3,97.3,38.4,97.3,35.8 M102.9,36.3v-8.9c0-1-0.4-1.7-1.4-1.7s-1.4,0.7-1.4,1.7v8.9c0,1,0.4,1.7,1.4,1.7
		S102.9,37.3,102.9,36.3"/>
	<polygon class="st0" points="109.6,29.7 109.6,40.1 107.3,40.1 107.3,23.6 110,23.6 113,33 113,23.6 115.3,23.6 115.3,40.1 
		112.9,40.1 	"/>
	<path class="st0" d="M11.7,39.5H18v-6.4h2.7v-5.2H18V0h-6.5L0,29v4.1h11.7V39.5z M5.8,27.9l5.9-16.3h0.1v16.3H5.8z"/>
</g>
<g>
	<path class="st0" d="M281.6,0.2h4.1c2.8,0,3.8,1.4,3.8,3.7v3.5c0,2.3-1,3.7-3.8,3.7h-1.3v5.6h-2.8L281.6,0.2L281.6,0.2z M284.4,2.4
		v6.5h1c0.9,0,1.4-0.5,1.4-1.4V3.7c0-0.9-0.4-1.3-1.4-1.3H284.4z"/>
	<path class="st0" d="M289.6,16.7l3.1-16.5h3.2l3.1,16.5h-2.8l-0.5-3h-2.9l-0.5,3H289.6z M293.1,11.5h2.2l-1.1-6.6l0,0L293.1,11.5z"
		/>
	<path class="st0" d="M302.9,9.1v7.6h-2.8V0.2h4c2.8,0,3.8,1.4,3.8,3.7V6c0,1.8-0.6,2.8-2.2,3.2l2.7,7.5h-2.9L302.9,9.1z M302.9,2.4
		v5.1h0.9c0.9,0,1.4-0.5,1.4-1.4V3.7c0-0.9-0.4-1.3-1.4-1.3L302.9,2.4L302.9,2.4z"/>
	<polygon class="st0" points="309,0.2 316.4,0.2 316.4,2.4 314.1,2.4 314.1,16.7 311.3,16.7 311.3,2.4 309,2.4 	"/>
	<polygon class="st0" points="320,6.3 320,16.7 317.6,16.7 317.6,0.2 320.4,0.2 323.4,9.7 323.4,0.2 325.7,0.2 325.7,16.7 
		323.2,16.7 	"/>
	<polygon class="st0" points="327.3,0.2 333.9,0.2 333.9,2.4 330,2.4 330,7.2 332.8,7.2 332.8,9.4 330,9.4 330,14.4 333.9,14.4 
		333.9,16.7 327.3,16.7 	"/>
	<path class="st0" d="M338.1,9.1v7.6h-2.8V0.2h4c2.8,0,3.8,1.4,3.8,3.7V6c0,1.8-0.6,2.8-2.2,3.2l2.7,7.5h-2.9L338.1,9.1z M338.1,2.4
		v5.1h0.9c0.9,0,1.4-0.5,1.4-1.4V3.7c0-0.9-0.4-1.3-1.4-1.3L338.1,2.4L338.1,2.4z"/>
	<path class="st0" d="M344.5,13.1v-2.2h2.6v2.3c0,0.9,0.4,1.5,1.4,1.5c0.9,0,1.3-0.6,1.3-1.5v-0.6c0-0.9-0.4-1.5-1.2-2.3L347,8.7
		c-1.6-1.6-2.3-2.5-2.3-4.4V3.7c0-2,1.2-3.6,3.9-3.6c2.8,0,3.9,1.4,3.9,3.8v1.3H350V3.8c0-0.9-0.4-1.4-1.3-1.4
		c-0.8,0-1.3,0.4-1.3,1.4v0.3c0,0.9,0.5,1.5,1.3,2.2l1.8,1.8c1.5,1.5,2.2,2.5,2.2,4.3v0.8c0,2.3-1.2,3.9-4,3.9
		C345.6,16.9,344.5,15.3,344.5,13.1"/>
	<polygon class="st0" points="359.4,9.4 356.7,9.4 356.7,16.7 353.9,16.7 353.9,0.2 356.7,0.2 356.7,7.2 359.4,7.2 359.4,0.2 
		362.2,0.2 362.2,16.7 359.4,16.7 	"/>
	<rect x="363.7" y="0.2" class="st0" width="2.8" height="16.5"/>
	<path class="st0" d="M368.1,0.2h4.1c2.8,0,3.8,1.4,3.8,3.7v3.5c0,2.3-1,3.7-3.8,3.7h-1.3v5.6h-2.8V0.2z M370.9,2.4v6.5h1
		c0.9,0,1.4-0.5,1.4-1.4V3.7c0-0.9-0.4-1.3-1.4-1.3H370.9z"/>
	<path class="st0" d="M377.4,13.1v-2.2h2.6v2.3c0,0.9,0.4,1.5,1.4,1.5c0.9,0,1.3-0.6,1.3-1.5v-0.6c0-0.9-0.4-1.5-1.2-2.3l-1.6-1.6
		c-1.6-1.6-2.3-2.5-2.3-4.4V3.7c0-2,1.2-3.6,3.9-3.6c2.8,0,3.9,1.4,3.9,3.8v1.3h-2.5V3.8c0-0.9-0.4-1.4-1.3-1.4
		c-0.8,0-1.3,0.4-1.3,1.4v0.3c0,0.9,0.5,1.5,1.3,2.2l1.8,1.8c1.5,1.5,2.2,2.5,2.2,4.3v0.8c0,2.3-1.2,3.9-4,3.9
		C378.4,16.9,377.4,15.3,377.4,13.1"/>
	<polygon class="st0" points="281.6,23.3 288.1,23.3 288.1,25.6 284.4,25.6 284.4,30.3 287.2,30.3 287.2,32.5 284.4,32.5 
		284.4,39.8 281.6,39.8 	"/>
	<path class="st0" d="M289.1,35.6v-8c0-2.6,1.3-4.5,4.2-4.5c2.9,0,4.2,1.9,4.2,4.5v8c0,2.6-1.3,4.5-4.2,4.5
		C290.4,40,289.1,38.1,289.1,35.6 M294.7,36v-8.9c0-1-0.4-1.7-1.4-1.7s-1.4,0.7-1.4,1.7V36c0,1,0.4,1.7,1.4,1.7
		C294.3,37.7,294.7,37,294.7,36"/>
	<path class="st0" d="M301.9,32.2v7.6h-2.8V23.3h4c2.8,0,3.8,1.4,3.8,3.7v2.1c0,1.8-0.6,2.8-2.2,3.2l2.7,7.5h-2.9L301.9,32.2z
		 M301.9,25.6v5.1h0.9c0.9,0,1.4-0.5,1.4-1.4v-2.4c0-0.9-0.4-1.3-1.4-1.3L301.9,25.6L301.9,25.6z"/>
	<polygon class="st0" points="310.7,23.3 318.1,23.3 318.1,25.6 315.8,25.6 315.8,39.8 313,39.8 313,25.6 310.7,25.6 	"/>
	<polygon class="st0" points="324.8,32.5 322.1,32.5 322.1,39.8 319.4,39.8 319.4,23.3 322.1,23.3 322.1,30.3 324.8,30.3 
		324.8,23.3 327.6,23.3 327.6,39.8 324.8,39.8 	"/>
	<polygon class="st0" points="329.2,23.3 335.8,23.3 335.8,25.6 332,25.6 332,30.3 334.7,30.3 334.7,32.5 332,32.5 332,37.6 
		335.8,37.6 335.8,39.8 329.2,39.8 	"/>
	<path class="st0" d="M344.1,31h3.9v8.8h-2V38c-0.4,1.2-1.1,2-2.7,2c-2.4,0-3.5-1.9-3.5-4.5v-8c0-2.6,1.2-4.5,4.2-4.5
		c3.1,0,4,1.7,4,4.1v1.5h-2.5v-1.7c0-1-0.4-1.6-1.4-1.6s-1.4,0.7-1.4,1.7v8.9c0,1,0.4,1.7,1.4,1.7c0.9,0,1.4-0.5,1.4-1.6v-2.9h-1.3
		V31H344.1z"/>
	<path class="st0" d="M349.6,35.6v-8c0-2.6,1.3-4.5,4.2-4.5s4.2,1.9,4.2,4.5v8c0,2.6-1.3,4.5-4.2,4.5
		C350.9,40,349.6,38.1,349.6,35.6 M355.2,36v-8.9c0-1-0.4-1.7-1.4-1.7s-1.4,0.7-1.4,1.7V36c0,1,0.4,1.7,1.4,1.7S355.2,37,355.2,36"
		/>
	<path class="st0" d="M358.8,39.8l3.1-16.5h3.2l3.1,16.5h-2.8l-0.5-3H362l-0.5,3H358.8z M362.3,34.6h2.2l-1.1-6.6l0,0L362.3,34.6z"
		/>
	<polygon class="st0" points="369.3,23.3 372.1,23.3 372.1,37.6 375.4,37.6 375.4,39.8 369.3,39.8 	"/>
	<path class="st0" d="M376.4,36.3v-2.2h2.6v2.3c0,0.9,0.4,1.5,1.4,1.5c0.9,0,1.3-0.6,1.3-1.5v-0.7c0-0.9-0.4-1.5-1.2-2.3l-1.6-1.6
		c-1.6-1.6-2.3-2.5-2.3-4.4v-0.7c0-2,1.2-3.6,3.9-3.6c2.8,0,3.9,1.4,3.9,3.8v1.3h-2.5v-1.4c0-0.9-0.4-1.4-1.3-1.4
		c-0.8,0-1.3,0.4-1.3,1.4v0.3c0,0.9,0.5,1.5,1.3,2.2l1.8,1.8c1.5,1.5,2.2,2.5,2.2,4.3v0.8c0,2.3-1.2,3.9-4,3.9
		C377.5,40,376.4,38.4,376.4,36.3"/>
	<path class="st0" d="M365.7,102.7c0-13.8-10.9-25-24.6-25.5c-3.5-9.9-13-17-24.1-17c-11.1,0-20.5,7.1-24.1,17
		c-13.5,0.5-24.4,11.8-24.4,25.5c0,8.2,3.9,15.4,9.8,20.1c-0.7,2.3-1,4.6-1,7.1c0,14.1,11.4,25.5,25.5,25.5c5.3,0,10.3-1.7,14.4-4.5
		c4.1,2.7,8.9,4.3,14.2,4.3c14.1,0,25.5-11.4,25.5-25.5c0-2.4-0.3-4.7-1-6.9C361.9,118.2,365.7,110.9,365.7,102.7 M337.5,85.7
		c0,10.2-7.6,18.7-17.4,20.1c-0.2-1-0.3-2.1-0.3-3.1c0-10.2,7.6-18.7,17.4-20.1C337.4,83.6,337.5,84.7,337.5,85.7 M317.2,144.4
		c-3.8-3.7-6.2-8.9-6.2-14.6c0-5.6,2.3-10.7,6-14.4c3.8,3.7,6.2,8.9,6.2,14.6C323.2,135.6,320.9,140.7,317.2,144.4 M297,82.6
		c9.8,1.5,17.4,9.9,17.4,20.1c0,1.1-0.1,2.1-0.3,3.1c-9.8-1.5-17.4-9.9-17.4-20.1C296.7,84.7,296.8,83.6,297,82.6 M312.2,111.9
		c-3.4,6.7-10.2,11.3-18.2,11.3c-3.4,0-6.6-0.8-9.4-2.3c3.4-6.7,10.2-11.3,18.2-11.3C306.2,109.6,309.4,110.4,312.2,111.9
		 M321.9,111.7c2.8-1.5,6-2.3,9.4-2.3c8,0,14.9,4.7,18.3,11.4c-2.8,1.5-6,2.3-9.4,2.3C332.2,123.1,325.3,118.5,321.9,111.7
		 M317.1,65.4c8.3,0,15.5,5.1,18.7,12.3c-8.3,1.5-15.2,6.9-18.7,14.3c-3.5-7.4-10.4-12.9-18.7-14.3
		C301.6,70.4,308.7,65.4,317.1,65.4 M273.6,102.7c0-10.5,8-19.2,18.2-20.3c-0.1,1.1-0.2,2.2-0.2,3.3c0,7.5,3.2,14.2,8.3,18.8
		c-8.5,1-15.7,6.1-19.6,13.3C276.2,114.1,273.6,108.7,273.6,102.7 M282.4,129.9c0-1.5,0.2-2.9,0.4-4.2c3.4,1.6,7.1,2.5,11.1,2.5
		c4.5,0,8.7-1.2,12.3-3.2c-0.3,1.5-0.4,3.1-0.4,4.7c0,6.9,2.8,13.2,7.2,17.7c-3,1.8-6.5,2.8-10.3,2.8
		C291.6,150.3,282.4,141.2,282.4,129.9 M351.8,129.8c0,11.2-9.1,20.4-20.4,20.4c-3.7,0-7.1-1-10-2.7c4.3-4.6,7-10.7,7-17.5
		c0-1.7-0.2-3.3-0.5-4.9c3.7,2,7.9,3.2,12.4,3.2c4,0,7.8-0.9,11.1-2.6C351.6,127,351.8,128.4,351.8,129.8 M334.4,104.4
		c5-4.7,8.2-11.3,8.2-18.7c0-1.1-0.1-2.2-0.2-3.3c10.2,1.1,18.2,9.8,18.2,20.3c0,6-2.6,11.3-6.7,15.1
		C350.1,110.6,342.9,105.5,334.4,104.4"/>
	<polygon class="st0" points="247.3,0.3 247.3,39.8 240.7,39.8 240.7,9.6 240.6,9.6 235.9,14.4 235.9,14.4 235.9,7.5 242,0.3 	"/>
	<polygon class="st0" points="250.3,0.3 267,0.3 267,6.5 258.3,39.8 251.7,39.8 260.6,5.8 250.3,5.8 	"/>
</g>
</svg>
