
<svg width="29px" height="27px" viewBox="0 0 29 27" version="1.1" xmlns="http://www.w3.org/2000/svg" xmlns:xlink="http://www.w3.org/1999/xlink">
    <defs>
        <linearGradient x1="29.0997351%" y1="115.89249%" x2="82.3911573%" y2="-21.4792246%" id="linearGradient-1">
            <stop stop-color="#166762" offset="0%"></stop>
            <stop stop-color="#08958C" offset="100%"></stop>
        </linearGradient>
    </defs>
    <g id="Page-1" stroke="none" stroke-width="1" fill="none" fill-rule="evenodd">
        <g id="Mobile" transform="translate(-146.000000, -824.000000)" fill="url(#linearGradient-1)" fill-rule="nonzero">
            <path d="M157,833.113539 C156.647505,833.376342 156.331945,833.674489 156.052023,834 L154.202073,832.461378 C153.779598,832.693967 153.284551,832.834204 152.749329,832.834204 C151.231139,832.834204 150,831.752209 150,830.416532 C150,829.080855 151.231139,828 152.749329,828 C154.267518,828 155.496714,829.081425 155.496714,830.416532 C155.496714,830.837815 155.363232,831.228314 155.147459,831.573207 L157,833.113539 Z M164.160645,833 C163.801865,832.735925 163.41266,832.51045 163,832.329702 L165.400525,828.423718 C164.92004,827.953775 164.622747,827.309824 164.622747,826.59725 C164.622747,825.161686 165.824595,824 167.309789,824 C168.797519,824 170,825.162298 170,826.59725 C170,828.032814 168.797519,829.195725 167.309789,829.195725 C167.051798,829.195725 166.80585,829.148547 166.568777,829.082987 L164.160645,833 Z M172.523629,836 C173.892119,836 175,837.1195 175,838.500295 C175,839.88168 173.892119,841 172.523629,841 C171.28778,841 170.269301,840.084582 170.082901,838.890763 L167,838.583461 C167.080053,838.200661 167.124461,837.804294 167.124461,837.39849 C167.124461,837.375487 167.120955,837.353073 167.120955,837.32948 L170.205025,837.636782 C170.555036,836.683614 171.457819,836 172.523629,836 Z M164.091615,846.028265 C165.706047,846.068204 167.00212,847.161222 166.999997,848.51149 C166.999997,849.886425 165.658647,851 164.001767,851 C162.341351,851 161,849.887013 161,848.51149 C161,847.55062 161.661478,846.727773 162.620091,846.311357 L161.783869,843.282505 C162.295366,843.233757 162.785638,843.13626 163.256808,843 L164.091615,846.028265 Z M154.589577,839 C154.681114,839.403723 154.822309,839.789173 155,840.155208 L151.056704,841.415487 C151.06149,841.470306 151.074054,841.521699 151.074054,841.577661 C151.074054,842.916743 149.936715,844 148.53613,844 C147.134348,844 146,842.916743 146,841.577661 C146,840.240292 147.134348,839.157035 148.53613,839.157035 C149.424583,839.157035 150.205345,839.595592 150.658845,840.256852 L154.589577,839 Z M160.5,842 C158.014719,842 156,839.985281 156,837.5 C156,835.014719 158.014719,833 160.5,833 C162.985281,833 165,835.014719 165,837.5 C165,839.985281 162.985281,842 160.5,842 Z" id="Combined-Shape"></path>
        </g>
    </g>
</svg>