
<svg width="29px" height="29px" viewBox="0 0 29 29" version="1.1" xmlns="http://www.w3.org/2000/svg" xmlns:xlink="http://www.w3.org/1999/xlink">
    <defs>
        <linearGradient x1="29.0997351%" y1="122.895337%" x2="82.3911573%" y2="-29.0758123%" id="linearGradient-1">
            <stop stop-color="#166762" offset="0%"></stop>
            <stop stop-color="#08958C" offset="100%"></stop>
        </linearGradient>
    </defs>
    <g id="Page-1" stroke="none" stroke-width="1" fill="none" fill-rule="evenodd">
        <g id="Landing-Page" transform="translate(-146.000000, -1433.000000)" fill="url(#linearGradient-1)" fill-rule="nonzero">
            <path d="M175,1436.6511 L170.65017,1437.2595 L171.271631,1433 L167.962969,1436.23993 C165.710824,1434.73858 162.990545,1433.86055 160.060582,1433.86055 C152.295096,1433.86055 146,1440.02508 146,1447.62956 C146,1455.23404 152.295096,1461.39852 160.060582,1461.39852 C167.826012,1461.39852 174.121164,1455.23399 174.121164,1447.62956 C174.121164,1444.76037 173.224543,1442.0964 171.691395,1439.89097 L175,1436.6511 Z M168.138781,1455.54016 C165.981,1457.65319 163.112209,1458.8168 160.060639,1458.8168 C157.009068,1458.8168 154.140164,1457.65313 151.982496,1455.54016 C149.824715,1453.42724 148.636395,1450.61784 148.636395,1447.62951 C148.636395,1444.64117 149.824715,1441.83183 151.982496,1439.71891 C154.140164,1437.60588 157.009068,1436.44221 160.060639,1436.44221 C162.668373,1436.44221 165.142152,1437.29261 167.153348,1438.85841 L164.011662,1441.93494 C162.88559,1441.18426 161.525592,1440.74503 160.060639,1440.74503 C156.177867,1440.74503 153.030348,1443.82732 153.030348,1447.62951 C153.030348,1451.43169 156.177924,1454.51399 160.060639,1454.51399 C163.943354,1454.51399 167.09093,1451.43169 167.09093,1447.62951 C167.09093,1446.19494 166.642393,1444.86315 165.875818,1443.76043 L169.017504,1440.68391 C170.616469,1442.65328 171.484883,1445.07586 171.484883,1447.62951 C171.484826,1450.61784 170.296562,1453.42713 168.138781,1455.54016 Z M159.480016,1448.19809 C159.737391,1448.45013 160.074799,1448.57614 160.41215,1448.57614 C160.749502,1448.57614 161.08691,1448.45018 161.344172,1448.19803 L163.955305,1445.64106 C164.273398,1446.23632 164.454535,1446.91245 164.454535,1447.62956 C164.454535,1450.00212 162.483441,1451.93238 160.060582,1451.93238 C157.637723,1451.93238 155.666629,1450.00217 155.666629,1447.62956 C155.666629,1445.25696 157.637723,1443.32674 160.060582,1443.32674 C160.792889,1443.32674 161.483281,1443.50401 162.091092,1443.81562 L159.479959,1446.3726 C158.965209,1446.87673 158.965209,1447.69401 159.480016,1448.19809 Z" id="Shape-Copy-22"></path>
        </g>
    </g>
</svg>