<?xml version="1.0" encoding="utf-8"?>
<!-- Generator: Adobe Illustrator 23.0.1, SVG Export Plug-In . SVG Version: 6.00 Build 0)  -->
<svg version="1.1" id="Ebene_1" xmlns="http://www.w3.org/2000/svg" xmlns:xlink="http://www.w3.org/1999/xlink" x="0px" y="0px"
	 viewBox="0 0 39.7 39.3" style="enable-background:new 0 0 39.7 39.3;" xml:space="preserve">
<style type="text/css">
	.st0{fill-rule:evenodd;clip-rule:evenodd;fill:#474747;}
</style>
<title>Group 28</title>
<desc>Created with Sketch.</desc>
<g id="Page-1">
	<g id="Group-28">
		<path id="Shape-Copy-21" class="st0" d="M39.6,20.4c0.1-0.4,0.1-0.9,0-1.3c-0.9-0.6-2.1-0.8-3.1-0.8c0-0.5-0.1-1-0.2-1.5
			c1-0.3,2-0.8,2.8-1.6c-0.1-0.4-0.2-0.9-0.3-1.2c-1-0.3-2.2-0.2-3.2,0c-0.2-0.5-0.4-0.9-0.6-1.3c0.9-0.5,1.7-1.3,2.2-2.2
			c-0.1-0.2-0.2-0.5-0.3-0.7c-0.1-0.2-0.2-0.3-0.3-0.4c-1.1,0-2.2,0.3-3.1,0.8c-0.3-0.4-0.6-0.8-0.9-1.2c0.7-0.7,1.3-1.7,1.6-2.7
			C34,6,33.6,5.6,33.3,5.4c-1,0.3-2,0.9-2.7,1.6c-0.4-0.3-0.8-0.6-1.2-0.9c0.5-0.9,0.9-2,0.8-3.1c-0.3-0.2-0.7-0.5-1.1-0.6
			c-0.9,0.5-1.7,1.4-2.2,2.2C26.4,4.4,26,4.2,25.5,4c0.3-1,0.3-2.1,0-3.2c-0.3-0.1-0.9-0.3-1.2-0.3c-0.8,0.8-1.3,1.8-1.6,2.8
			c-0.5-0.1-1-0.2-1.5-0.2c0-1-0.2-2.1-0.8-3.1c-0.2,0-0.4,0-0.6,0c-0.2,0-0.5,0-0.6,0c-0.6,0.9-0.8,2.1-0.8,3.1
			c-0.5,0-1,0.1-1.5,0.2c-0.3-1-0.8-2-1.6-2.8c-0.4,0.1-0.9,0.2-1.2,0.3c-0.3,1-0.2,2.2,0,3.2c-0.5,0.2-1,0.4-1.4,0.6
			c-0.5-0.9-1.3-1.7-2.2-2.2c-0.2,0.1-0.4,0.2-0.6,0.3C9.7,2.8,9.5,2.9,9.4,3c0,1.1,0.3,2.2,0.8,3.1C9.8,6.4,9.5,6.7,9.1,7
			C8.4,6.3,7.4,5.7,6.4,5.4C6.1,5.6,5.7,6,5.5,6.3c0.3,1,0.9,2,1.6,2.7c-0.3,0.4-0.6,0.8-0.9,1.2c-0.9-0.5-2-0.9-3.1-0.8
			C3,9.5,2.9,9.7,2.8,9.9c-0.1,0.2-0.2,0.4-0.3,0.6c0.5,0.9,1.4,1.7,2.2,2.2c-0.2,0.4-0.4,0.9-0.6,1.3c-1-0.3-2.1-0.3-3.2,0
			c-0.1,0.3-0.3,0.9-0.3,1.2c0.7,0.8,1.8,1.3,2.8,1.6c-0.1,0.5-0.1,1-0.2,1.5c-1,0-2.1,0.3-3.1,0.8C0,19.5,0,20,0.1,20.4
			C1,21,2.2,21.2,3.2,21.2c0.1,0.5,0.1,1,0.2,1.5c-1,0.3-2,0.8-2.8,1.6c0.1,0.4,0.2,0.9,0.3,1.2c1,0.3,2.2,0.2,3.2,0
			c0.2,0.5,0.4,0.9,0.6,1.3C3.8,27.3,3,28.1,2.5,29c0.1,0.1,0.1,0.2,0.2,0.4c0.1,0.3,0.3,0.5,0.4,0.7c1.1,0,2.2-0.3,3.1-0.8
			c0.3,0.4,0.6,0.8,0.9,1.2c-0.7,0.7-1.3,1.7-1.6,2.7c0.2,0.3,0.6,0.7,0.9,0.9c1-0.3,2-0.9,2.7-1.6c0.4,0.3,0.8,0.6,1.2,0.9
			c-0.5,0.9-0.8,2-0.8,3.1c0.3,0.2,0.8,0.5,1.1,0.6c0.9-0.5,1.7-1.4,2.2-2.3c0.4,0.2,0.9,0.4,1.3,0.5c-0.3,1-0.3,2.1,0,3.2
			c0.3,0.1,0.9,0.3,1.2,0.3c0.8-0.7,1.3-1.8,1.6-2.8c0.5,0.1,1,0.2,1.5,0.2c0,1,0.3,2.1,0.8,3.1c0.2,0,0.4,0,0.6,0
			c0.2,0,0.5,0,0.7,0c0.6-0.9,0.8-2.1,0.8-3.1c0.5,0,1-0.1,1.4-0.2c0.3,1,0.8,2,1.6,2.8c0.4-0.1,0.9-0.2,1.2-0.3
			c0.3-1,0.2-2.2,0-3.2c0.5-0.2,0.9-0.4,1.4-0.6c0.5,0.9,1.3,1.7,2.2,2.2c0.3-0.1,0.8-0.4,1.1-0.6c0-1.1-0.3-2.2-0.8-3.1
			c0.4-0.3,0.8-0.6,1.1-0.9c0.7,0.7,1.7,1.3,2.8,1.6c0.3-0.2,0.7-0.6,0.9-0.9c-0.3-1-0.9-2-1.6-2.7c0.3-0.4,0.6-0.8,0.9-1.2
			c0.9,0.5,2,0.9,3.1,0.8c0.1-0.1,0.2-0.3,0.3-0.4c0.1-0.2,0.3-0.5,0.3-0.6c-0.5-0.9-1.4-1.7-2.2-2.2c0.2-0.4,0.4-0.9,0.6-1.3
			c1,0.3,2.1,0.3,3.2,0c0.1-0.3,0.3-0.9,0.3-1.2c-0.7-0.8-1.8-1.3-2.7-1.6c0.1-0.5,0.2-1,0.2-1.4C37.5,21.2,38.7,20.9,39.6,20.4
			L39.6,20.4z M10.1,7.4c2.7-2.1,6.1-3.5,9.8-3.5s7.1,1.3,9.8,3.4C30,7.6,30,7.9,29.9,8.1l-1.6,1.8c-0.2,0.3-0.5,0.2-0.8-0.1
			c-2.1-1.6-4.7-2.6-7.6-2.6c-2.8,0-5.5,1-7.5,2.6c-0.3,0.3-0.6,0.3-0.8,0.1L10,8.1C9.7,8,9.7,7.7,10.1,7.4L10.1,7.4z M15.1,19.3
			c0.4,0.2,0.4,0.6,0,0.9L10,23.6c-0.5,0.3-0.6,0.1-0.7-0.2c-0.8-2.6-0.8-4.8,0-7.4c0.2-0.5,0.4-0.4,0.7-0.2L15.1,19.3L15.1,19.3z
			 M11.4,12.4c0.9-1,1.9-1.7,2.9-2.3s2.2-1,3.5-1.4c0.3-0.1,0.6-0.1,0.5,0.5l-0.4,6.1c0,0.2-0.1,0.4-0.2,0.5c-0.1,0.1-0.3,0.1-0.5,0
			l-5.5-2.7C11.3,13,11,12.8,11.4,12.4L11.4,12.4z M11.7,26.4l5.5-2.7c0.4-0.2,0.7,0,0.8,0.5l0.5,6.1c0,0.6-0.2,0.6-0.5,0.5
			c-2.6-0.6-4.6-1.7-6.4-3.7C11.1,26.7,11.4,26.6,11.7,26.4L11.7,26.4z M15.9,19.7c0-2.2,1.8-3.9,3.9-3.9s3.9,1.8,3.9,3.9
			s-1.8,3.9-3.9,3.9C17.7,23.7,15.9,21.9,15.9,19.7L15.9,19.7z M21.5,30.2l0.4-6.1c0-0.4,0.4-0.6,0.8-0.5l5.5,2.7
			c0.6,0.3,0.4,0.5,0.2,0.7c-1.9,2-3.8,3.1-6.4,3.7C21.5,30.9,21.5,30.6,21.5,30.2L21.5,30.2z M24.7,20.2c-0.4-0.2-0.4-0.6,0-0.9
			l5.1-3.4c0.5-0.3,0.6-0.1,0.7,0.2c0.8,2.6,0.8,4.8,0,7.4c-0.2,0.5-0.4,0.4-0.7,0.2L24.7,20.2L24.7,20.2z M28.2,13.1l-5.5,2.7
			c-0.4,0.2-0.7,0-0.8-0.5l-0.4-6.1c-0.1-0.6,0.2-0.6,0.5-0.5c2.6,0.6,4.6,1.8,6.4,3.7C28.8,12.8,28.5,12.9,28.2,13.1L28.2,13.1z
			 M4.5,23.3C3.3,17.9,4.9,12.6,8.2,9.2c0.3-0.3,0.6-0.3,0.7-0.1l1.7,1.7c0.2,0.3,0.2,0.6,0,0.8C8,14.4,7,18,7.8,22.4
			c0,0.3-0.2,0.5-0.4,0.6L5,23.7C4.8,23.7,4.6,23.5,4.5,23.3L4.5,23.3z M34.6,25.5c-2.3,5.9-8,10-14.7,10s-12.4-4.1-14.7-10
			c-0.1-0.3,0-0.5,0.3-0.6l2.4-0.8c0.1,0,0.5-0.1,0.6,0.3c1.8,4.6,6.3,7.7,11.5,7.7s9.5-3.1,11.4-7.7C31.6,24,31.9,24,32,24l2.4,0.8
			C34.5,25,34.7,25.2,34.6,25.5L34.6,25.5z M35.3,23.3c-0.1,0.3-0.3,0.5-0.6,0.4L32.3,23c-0.2-0.1-0.4-0.3-0.4-0.6
			c0.8-4.4-0.2-7.9-2.8-10.8c-0.3-0.2-0.3-0.6,0-0.8l1.7-1.7c0.1-0.2,0.5-0.2,0.7,0.1C34.8,12.6,36.5,17.9,35.3,23.3L35.3,23.3z"/>
		<path id="Shape-Copy-20" class="st0" d="M23.4,19.7c0-2-1.6-3.6-3.6-3.6s-3.6,1.6-3.6,3.6s1.6,3.6,3.6,3.6
			C21.8,23.3,23.4,21.7,23.4,19.7L23.4,19.7z M17.9,20.7c-0.1-0.3-0.2-0.6-0.2-1s0.1-0.8,0.3-1.1c0.2-0.3,0.5-0.6,0.8-0.8
			c0.2-0.1,0.3-0.2,0.5-0.2V17h0.6h0.4v0.6c0.6,0.1,1.1,0.5,1.4,1c0.2,0.4,0.4,0.8,0.4,1.2c0,0.4-0.1,0.8-0.3,1.1
			c-0.4,0.7-1.1,1.1-1.9,1.1l0,0C19,22,18.2,21.5,17.9,20.7L17.9,20.7z"/>
		<path id="Shape-Copy-19" class="st0" d="M26,31c-0.4,0.2-0.6,0.6-0.6,1.1c0,0.2,0,0.3,0.1,0.5c0,0,0,0.1,0.1,0.1
			c0.3,0.6,1.1,0.8,1.7,0.5c0.2-0.1,0.4-0.3,0.5-0.6c0.1-0.2,0.1-0.3,0.1-0.5c0-0.2-0.1-0.4-0.2-0.6C27.4,30.9,26.6,30.7,26,31
			L26,31z M27.2,32.6c-0.1,0.1-0.1,0.1-0.2,0.2c-0.3,0.2-0.8,0.1-1-0.2l-0.1-0.1c-0.1-0.1-0.1-0.3-0.1-0.4c0-0.3,0.1-0.5,0.4-0.7
			c0.4-0.2,0.9-0.1,1.1,0.3c0.1,0.1,0.1,0.3,0.1,0.4C27.4,32.3,27.4,32.5,27.2,32.6L27.2,32.6z"/>
		<path id="Shape-Copy-18" class="st0" d="M8.7,26l-2.2,1.3c0.1,0.2,0.2,0.3,0.3,0.5L9,26.5C8.8,26.3,8.7,26.1,8.7,26L8.7,26z"/>
		<path id="Shape-Copy-17" class="st0" d="M23.9,31.9l0.8,2.4c0.2-0.1,0.3-0.1,0.5-0.2l-0.8-2.4C24.3,31.8,24.1,31.9,23.9,31.9
			L23.9,31.9z"/>
		<path id="Shape-Copy-16" class="st0" d="M12,30.4l0.3-0.3c-0.6-0.5-1-0.9-1.6-1.3L10.3,29c0.2,0.2,0.4,0.4,0.6,0.6l-1.4,1.5
			l0.4,0.3l1.3-1.6C11.5,30,11.7,30.2,12,30.4L12,30.4z"/>
		<path id="Shape-Copy-15" class="st0" d="M23.4,32.1c-0.7,0.2-1.3,0.3-2,0.4l0.1,0.4c0.3-0.1,0.5-0.1,0.8-0.1l0.4,2l0.5-0.1l-0.4-2
			c0.3-0.1,0.5-0.1,0.8-0.2L23.4,32.1L23.4,32.1z"/>
		<path id="Shape-Copy-14" class="st0" d="M20.5,32.6L20.5,32.6h-0.6v0.1l-0.3,1l-0.5,1.4c0.2,0,0.3,0,0.5,0l0.1-0.4h1.1l0.2,0.4
			c0.2,0,0.3,0,0.5-0.1L21,33.7L20.5,32.6L20.5,32.6z M19.9,34.2l0.2-0.5l0.2-0.5l0.2,0.5l0.2,0.5H19.9L19.9,34.2z"/>
		<path id="Shape-Copy-13" class="st0" d="M29.7,28l0.4,0.6l1,1.6c0.1-0.1,0.2-0.2,0.3-0.4l-0.2-0.4l0.7-0.9l0.4,0.2
			c0-0.1,0.1-0.1,0.1-0.2c0.1-0.1,0.1-0.2,0.2-0.2l-2.5-0.8L29.7,28L29.7,28z M31.3,28.5l-0.1,0.1l-0.4,0.5l-0.3-0.5l-0.3-0.5
			L31.3,28.5L31.3,28.5z"/>
		<polygon id="Shape-Copy-12" class="st0" points="32.8,27.2 31,26.2 30.7,26.6 32.9,27.9 33.8,26.3 33.4,26.1 		"/>
		<path id="Shape-Copy-11" class="st0" d="M18.3,32.5L18.1,34l-0.7-1.7c-0.2,0-0.3-0.1-0.4-0.1l-0.6,2.5c0.2,0,0.3,0.1,0.5,0.1
			l0.3-1.5l0.7,1.7c0.2,0,0.3,0.1,0.5,0.1l0.3-2.5C18.7,32.5,18.5,32.5,18.3,32.5L18.3,32.5z"/>
		<path id="Shape-Copy-10" class="st0" d="M28.6,29.1l1,1.1l-1.7-0.5c-0.1,0.1-0.2,0.2-0.4,0.3l1.5,2c0.1-0.1,0.3-0.2,0.4-0.3
			l-0.9-1.2l1.8,0.5c0.1-0.1,0.3-0.2,0.4-0.4L29,28.7C28.8,28.9,28.8,29,28.6,29.1L28.6,29.1z"/>
		<path id="Shape-Copy-9" class="st0" d="M10,28l-1.2,1l0.6-1.7c-0.1-0.2-0.1-0.2-0.3-0.4L7,28.3c0.1,0.1,0.2,0.3,0.3,0.4l1.3-0.9
			L8,29.5c0.1,0.1,0.2,0.3,0.3,0.4l1.9-1.7C10.3,28.2,10.1,28.1,10,28L10,28z"/>
		<path id="Shape-Copy-8" class="st0" d="M15.8,31.9l-1.1-0.4l-0.4,1l-0.1,0.1l-0.5,1.2c0.2,0.1,0.3,0.1,0.5,0.2l0.4-1l0.5,0.2v1.1
			c0.2,0.1,0.4,0.1,0.5,0.2l-0.1-1.2c0.4-0.1,0.6-0.4,0.6-0.7c0-0.1,0-0.1,0-0.1C16.2,32.2,16.1,32,15.8,31.9L15.8,31.9z M15.7,32.6
			c-0.1,0.2-0.2,0.3-0.4,0.2l-0.6-0.2l0,0l0.1-0.1l0.1-0.4l0.6,0.2C15.6,32.3,15.6,32.4,15.7,32.6C15.7,32.5,15.7,32.6,15.7,32.6
			L15.7,32.6z"/>
		<path id="Shape-Copy-7" class="st0" d="M12.9,31c0.3,0.2,0.7,0.4,1,0.6l0.2-0.4c-0.5-0.3-1-0.6-1.4-0.9l-1.4,2.1
			c0.5,0.3,1,0.6,1.6,1l0.2-0.4L12,32.3l0.4-0.5l0.7,0.5l0.2-0.3c-0.2-0.1-0.5-0.3-0.8-0.5L12.9,31L12.9,31z"/>
		<path id="Shape-Copy-6" class="st0" d="M16,7.5c0.6-0.1,1.1-0.6,1.1-1.3V6.1C17,5.4,16.4,4.9,15.7,5c-0.6,0.1-1.1,0.6-1.1,1.2v0.1
			C14.8,7,15.4,7.5,16,7.5L16,7.5z M15.9,5.4c0.4,0,0.8,0.3,0.9,0.7v0.1c0,0.4-0.3,0.7-0.7,0.8c-0.4,0-0.8-0.3-0.9-0.7V6.2
			C15.1,5.8,15.5,5.4,15.9,5.4L15.9,5.4z"/>
		<path id="Shape-Copy-5" class="st0" d="M20.6,6.5c0.3,0,0.7,0,1,0.1l0.1,0.5c0.2,0,0.3,0,0.5,0.1l-0.4-1.5l-0.3-1.1l-0.6-0.1
			l-0.6,1.2L19.7,7c0.2,0,0.3,0,0.5,0L20.6,6.5L20.6,6.5z M21.2,5l0.2,0.5L21.5,6c-0.3,0-0.5-0.1-0.8-0.1l0.2-0.5L21.2,5L21.2,5z"/>
		<path id="Shape-Copy-4" class="st0" d="M18.3,4.9l0.2,2L19,6.8l-0.2-2l0.8-0.1V4.3c-0.9,0.1-1.3,0.1-2.2,0.2l0.1,0.4H18.3
			L18.3,4.9z"/>
		<path id="Shape-Copy-3" class="st0" d="M26.1,8.5l0.5-1l1.5-0.7c-0.2-0.1-0.3-0.2-0.5-0.3l-1,0.5l-0.2-1.1
			c-0.2-0.1-0.3-0.2-0.5-0.2l0.3,1.6l-0.5,1L26.1,8.5L26.1,8.5z"/>
		<path id="Shape-Copy-2" class="st0" d="M23.6,6.5l0.5,0.2l0.1,1c0.2,0.1,0.3,0.1,0.5,0.2l-0.2-1.1c0.4-0.1,0.6-0.5,0.5-0.9
			c0-0.3-0.1-0.5-0.4-0.6c-0.4-0.1-0.8-0.3-1.2-0.4l-0.3,1l-0.4,1.4c0.2,0.1,0.4,0.1,0.6,0.1L23.6,6.5L23.6,6.5z M23.9,5.4
			c0.2,0.1,0.4,0.1,0.6,0.2c0.1,0,0.2,0.1,0.2,0.2c0,0.2-0.2,0.4-0.4,0.4L23.7,6l0.1-0.2L23.9,5.4L23.9,5.4z"/>
		<path id="Shape-Copy" class="st0" d="M13,8.9c0.2-0.1,0.3-0.2,0.5-0.3L13,7.8l0.4-0.2l0.8,0.6C14.4,8.1,14.5,8,14.7,8l-0.9-0.7
			c0.1-0.1,0.1-0.2,0.1-0.3c0.1-0.5-0.6-1.1-1-0.9s-0.8,0.4-1.1,0.6L11.9,7L13,8.9L13,8.9z M13,6.6c0.2-0.1,0.4,0.2,0.4,0.4
			c0,0.1,0,0.1-0.1,0.2l-0.5,0.3L12.5,7l-0.1-0.1C12.7,6.7,12.8,6.7,13,6.6L13,6.6z"/>
	</g>
</g>
</svg>
