<svg id="Ebene_1" data-name="Ebene 1" xmlns="http://www.w3.org/2000/svg" viewBox="0 0 320.14 222.06"><defs><style>.cls-1{fill:#f2f2f2;}.cls-1,.cls-2,.cls-4{fill-rule:evenodd;}.cls-2{fill:#166762;}.cls-3{fill-opacity:0.35;}.cls-4{fill:#fff;}</style></defs><title>video</title><g id="Page-1"><g id="Landing-Page"><g id="Group-6"><polygon id="Rectangle-2-Copy" class="cls-1" points="0.14 0 320.14 0 320.14 222 0.14 222 0.14 0"/><polygon id="Rectangle-1-Copy-5" class="cls-2" points="0.14 163.12 320.14 60.5 320.14 222 0.14 222 0.14 163.12"/><g id="Group-5"><path id="Path" class="cls-2" d="M205.75,61.76A7.46,7.46,0,0,0,197.59,58c-3.1.5-9.82,0-12.56-.55V59q-6.18-.93-8,2.32c-1.43,1.79-7.46,4-8.5,4.07a7.2,7.2,0,0,1-3.65-1c-1.41-.71-12-7.58-14.05-8.33l-.88.57-1.35-1.79a13.13,13.13,0,0,1-3.64,1.4c-.73,0-3.68-.2-5,1.84s2.4-.33,5,.55h1.74c.36,0,.36.89,0,2.1s5,.25,15.19,7.79A10,10,0,0,0,167,70.23c3,.21,9.35-1.43,10.9-1.26s7.15,7.94,8.59,8.55c.5.21-1.88.42-3.89,1-3.81,1.16-9.22,2.92-11.54,2.93l-.43,1.58-2.8-.55A16.39,16.39,0,0,0,167,84.8c-.16.71-3.06,1.88-2.63,6.74,1-.19,1.5-.37,1.62-.55,1.31-2,1.66-3.74,3.59-4.13a2.49,2.49,0,0,1,2.22.42q13.28-5.79,18-5.8c3.16-1,4.81-1.92,4.93-2.93.19-1.51-6.1-8-6.52-8.76s.35-1.33,1-1.33,7.48,2,9.69,2.21q4.05,11.86,4.6,14.13a55.4,55.4,0,0,0,2.84,6.74c.82,1.78,1.29,3.32,2.42,4.57l3.23-.5c-1.63-3.48-2.68-5.88-3.23-7.21a52.77,52.77,0,0,1-2.42-6.92,12.1,12.1,0,0,1,0-4.37c3.86,11.57,6.49,17.65,7.7,18.42l2.57-.42-1.08-3.57a4.52,4.52,0,0,1-1.09-1.82c-.49-1.32-2.79-8.63-3.07-9.41s-1-5.35-1.09-6-1.52-3.64-1.52-4.08-.71-2.16,0-2.39.65-.79-.06-1.64l.68-.47c1.19.85.63.43,1.31.75s1.44-1.07,1.74-1.14c.1,0,.45,1,.86.86a6.64,6.64,0,0,0,1.5-1.87l1.28-1.17a3.46,3.46,0,0,0,.89-2.08c0-.64-.62-1.43-.89-2.13-.13-.34.15-.75,0-.93a3,3,0,0,0-1-.74,4.28,4.28,0,0,0-.67-.25,3.12,3.12,0,0,0-1.15-.85c-.48-.16-.86.39-1.25.39s-.7.9-1,.46-1.58-.67-1.7-.46A3.94,3.94,0,0,0,209,58c0,.55-1.71.08-1.73.93s-.75,1.32-.64,1.72.1,1.09-.11,1.09Z" transform="translate(0 0.06)"/><path id="Path-Copy" class="cls-1" d="M220.86,128.57a7.48,7.48,0,0,1-5.71,7c-3,.91-8.82,4.3-11,6l-.65-1.34q-5.15,3.56-8.24,1.45c-2.07-1-8.45-.31-9.42.07a7.38,7.38,0,0,0-2.84,2.51c-1,1.26-7.47,12.08-9,13.66l-1-.12-.43,2.2a12.66,12.66,0,0,0-3.88.34c-.66.32-3.23,1.79-5.31.54s2.31-.76,4.26-2.69l1.56-.76c.33-.16-.06-1-.92-1.89s4.38-2.42,10.25-13.67a9.85,9.85,0,0,1,3.89-3.87c2.6-1.51,9-2.82,10.34-3.65s3-10.28,4-11.46c.35-.41-1.88.45-3.95.78-3.94.63-9.57,1.42-11.66,2.43L180,124.83l-2.28,1.73a16.18,16.18,0,0,1-1.75-1.7c-.46-.56-3.57-.35-5.31-4.9a3.28,3.28,0,0,1,1.69-.21c2.06,1.22,3.13,2.63,5,2.13a2.51,2.51,0,0,0,1.81-1.36q14.46-.61,18.73-2.7c3.25-.53,5.16-.37,5.71.48.83,1.27-2,9.83-2,10.73s.89,1.05,1.46.77,5.86-5,7.74-6.23q-1.56-12.45-2-14.72a58.16,58.16,0,0,1-.4-7.31,18.8,18.8,0,0,1,.4-5.46l3-1c0,3.84.07,6.73.16,8.17a53.83,53.83,0,0,0,.84,7.28,12.13,12.13,0,0,0,1.91,3.93c-1.59-12.09-2.12-18.68-1.36-19.9l2.87-.9.44,3.8a4.38,4.38,0,0,0-.18,2.11c.14,1.41,1.27,9,1.35,9.8s1.44,5.26,1.66,5.88.22,3.93.42,4.33.3,2.25,1,2.15.93.42.66,1.5l.82.12c.69-1.29.38-.66.85-1.24s1.76.33,2.06.26c.1,0-.05-1.13.4-1.15a6.08,6.08,0,0,1,2.16,1l1.67.5a3.51,3.51,0,0,1,1.71,1.48,8,8,0,0,1,.13,2.29c0,.37.46.62.41.84a3.26,3.26,0,0,1-.54,1.1,4.15,4.15,0,0,1-.49.51,3.27,3.27,0,0,1-.66,1.27c-.37.36-.95,0-1.3.2s-1-.5-1.07,0-1.12,1.29-1.32,1.16a4,4,0,0,1-1-1.15c-.24-.49-1.57.68-2-.08s-1.24-.86-1.32-1.26-.39-1-.58-.94Z" transform="translate(0 0.06)"/></g></g></g></g><g id="Page-1-2" data-name="Page-1"><g id="Landing-Page-2" data-name="Landing-Page"><rect id="Rectangle" class="cls-3" y="0.06" width="320" height="222"/><path id="Combined-Shape" class="cls-4" d="M159.5,148A36.5,36.5,0,1,1,196,111.5,36.5,36.5,0,0,1,159.5,148ZM146,91v41l36-20.5Z" transform="translate(0 0.06)"/></g></g></svg>