<?xml version="1.0" encoding="utf-8"?>
<!-- Generator: Adobe Illustrator 23.0.1, SVG Export Plug-In . SVG Version: 6.00 Build 0)  -->
<svg version="1.1" id="Ebene_1" xmlns="http://www.w3.org/2000/svg" xmlns:xlink="http://www.w3.org/1999/xlink" x="0px" y="0px"
	 viewBox="0 0 294.8 40" style="enable-background:new 0 0 294.8 40;" xml:space="preserve">
<style type="text/css">
	.st0{fill-rule:evenodd;clip-rule:evenodd;fill:#fff;}
</style>
<title>Group 28</title>
<desc>Created with Sketch.</desc>
<g id="Page-1">
	<g id="Group-28">
		<path id="Shape-Copy-21" class="st0" d="M166.3,20.4c0.1-0.4,0.1-0.9,0-1.3c-0.9-0.6-2.1-0.8-3.1-0.8c0-0.5-0.1-1-0.2-1.5
			c1-0.3,2-0.8,2.8-1.6c-0.1-0.4-0.2-0.9-0.3-1.2c-1-0.3-2.2-0.2-3.2,0c-0.2-0.5-0.4-0.9-0.6-1.3c0.9-0.5,1.7-1.3,2.2-2.2
			c-0.1-0.2-0.2-0.5-0.3-0.7c-0.1-0.2-0.2-0.3-0.3-0.4c-1.1,0-2.2,0.3-3.1,0.8c-0.3-0.4-0.6-0.8-0.9-1.2c0.7-0.7,1.3-1.7,1.6-2.7
			c-0.2-0.3-0.6-0.7-0.9-0.9c-1,0.3-2,0.9-2.7,1.6c-0.4-0.3-0.8-0.6-1.2-0.9c0.5-0.9,0.9-2,0.8-3.1c-0.3-0.2-0.7-0.5-1.1-0.6
			c-0.9,0.5-1.7,1.4-2.2,2.2c-0.5-0.2-0.9-0.4-1.4-0.6c0.3-1,0.3-2.1,0-3.2c-0.3-0.1-0.9-0.3-1.2-0.3c-0.8,0.8-1.3,1.8-1.6,2.8
			c-0.5-0.1-1-0.2-1.5-0.2c0-1-0.2-2.1-0.8-3.1c-0.2,0-0.4,0-0.6,0c-0.2,0-0.5,0-0.6,0c-0.6,0.9-0.8,2.1-0.8,3.1
			c-0.5,0-1,0.1-1.5,0.2c-0.3-1-0.8-2-1.6-2.8c-0.4,0.1-0.9,0.2-1.2,0.3c-0.3,1-0.2,2.2,0,3.2c-0.5,0.2-1,0.4-1.4,0.6
			c-0.5-0.9-1.3-1.7-2.2-2.2c-0.2,0.1-0.4,0.2-0.6,0.3c-0.2,0.1-0.4,0.2-0.5,0.3c0,1.1,0.3,2.2,0.8,3.1c-0.4,0.3-0.7,0.6-1.1,0.9
			c-0.7-0.7-1.7-1.3-2.7-1.6c-0.3,0.2-0.7,0.6-0.9,0.9c0.3,1,0.9,2,1.6,2.7c-0.3,0.4-0.6,0.8-0.9,1.2c-0.9-0.5-2-0.9-3.1-0.8
			c-0.1,0.1-0.2,0.3-0.3,0.5c-0.1,0.2-0.2,0.4-0.3,0.6c0.5,0.9,1.4,1.7,2.2,2.2c-0.2,0.4-0.4,0.9-0.6,1.3c-1-0.3-2.1-0.3-3.2,0
			c-0.1,0.3-0.3,0.9-0.3,1.2c0.7,0.8,1.8,1.3,2.8,1.6c-0.1,0.5-0.1,1-0.2,1.5c-1,0-2.1,0.3-3.1,0.8c-0.1,0.4-0.1,0.9,0,1.3
			c0.9,0.6,2.1,0.8,3.1,0.8c0.1,0.5,0.1,1,0.2,1.5c-1,0.3-2,0.8-2.8,1.6c0.1,0.4,0.2,0.9,0.3,1.2c1,0.3,2.2,0.2,3.2,0
			c0.2,0.5,0.4,0.9,0.6,1.3c-0.9,0.5-1.7,1.3-2.2,2.2c0.1,0.1,0.1,0.2,0.2,0.4c0.1,0.3,0.3,0.5,0.4,0.7c1.1,0,2.2-0.3,3.1-0.8
			c0.3,0.4,0.6,0.8,0.9,1.2c-0.7,0.7-1.3,1.7-1.6,2.7c0.2,0.3,0.6,0.7,0.9,0.9c1-0.3,2-0.9,2.7-1.6c0.4,0.3,0.8,0.6,1.2,0.9
			c-0.5,0.9-0.8,2-0.8,3.1c0.3,0.2,0.8,0.5,1.1,0.6c0.9-0.5,1.7-1.4,2.2-2.3c0.4,0.2,0.9,0.4,1.3,0.5c-0.3,1-0.3,2.1,0,3.2
			c0.3,0.1,0.9,0.3,1.2,0.3c0.8-0.7,1.3-1.8,1.6-2.8c0.5,0.1,1,0.2,1.5,0.2c0,1,0.3,2.1,0.8,3.1c0.2,0,0.4,0,0.6,0
			c0.2,0,0.5,0,0.7,0c0.6-0.9,0.8-2.1,0.8-3.1c0.5,0,1-0.1,1.4-0.2c0.3,1,0.8,2,1.6,2.8c0.4-0.1,0.9-0.2,1.2-0.3
			c0.3-1,0.2-2.2,0-3.2c0.5-0.2,0.9-0.4,1.4-0.6c0.5,0.9,1.3,1.7,2.2,2.2c0.3-0.1,0.8-0.4,1.1-0.6c0-1.1-0.3-2.2-0.8-3.1
			c0.4-0.3,0.8-0.6,1.1-0.9c0.7,0.7,1.7,1.3,2.8,1.6c0.3-0.2,0.7-0.6,0.9-0.9c-0.3-1-0.9-2-1.6-2.7c0.3-0.4,0.6-0.8,0.9-1.2
			c0.9,0.5,2,0.9,3.1,0.8c0.1-0.1,0.2-0.3,0.3-0.4c0.1-0.2,0.3-0.5,0.3-0.6c-0.5-0.9-1.4-1.7-2.2-2.2c0.2-0.4,0.4-0.9,0.6-1.3
			c1,0.3,2.1,0.3,3.2,0c0.1-0.3,0.3-0.9,0.3-1.2c-0.7-0.8-1.8-1.3-2.7-1.6c0.1-0.5,0.2-1,0.2-1.4C164.2,21.2,165.4,20.9,166.3,20.4
			L166.3,20.4z M136.8,7.4c2.7-2.1,6.1-3.5,9.8-3.5c3.7,0,7.1,1.3,9.8,3.4c0.3,0.3,0.3,0.6,0.2,0.8l-1.6,1.8
			c-0.2,0.3-0.5,0.2-0.8-0.1c-2.1-1.6-4.7-2.6-7.6-2.6c-2.8,0-5.5,1-7.5,2.6c-0.3,0.3-0.6,0.3-0.8,0.1l-1.6-1.8
			C136.4,8,136.4,7.7,136.8,7.4L136.8,7.4z M141.8,19.3c0.4,0.2,0.4,0.6,0,0.9l-5.1,3.4c-0.5,0.3-0.6,0.1-0.7-0.2
			c-0.8-2.6-0.8-4.8,0-7.4c0.2-0.5,0.4-0.4,0.7-0.2L141.8,19.3L141.8,19.3z M138.1,12.4c0.9-1,1.9-1.7,2.9-2.3c1-0.6,2.2-1,3.5-1.4
			c0.3-0.1,0.6-0.1,0.5,0.5l-0.4,6.1c0,0.2-0.1,0.4-0.2,0.5c-0.1,0.1-0.3,0.1-0.5,0l-5.5-2.7C138,13,137.7,12.8,138.1,12.4
			L138.1,12.4z M138.4,26.4l5.5-2.7c0.4-0.2,0.7,0,0.8,0.5l0.5,6.1c0,0.6-0.2,0.6-0.5,0.5c-2.6-0.6-4.6-1.7-6.4-3.7
			C137.8,26.7,138.1,26.6,138.4,26.4L138.4,26.4z M142.6,19.7c0-2.2,1.8-3.9,3.9-3.9s3.9,1.8,3.9,3.9s-1.8,3.9-3.9,3.9
			C144.4,23.7,142.6,21.9,142.6,19.7L142.6,19.7z M148.2,30.2l0.4-6.1c0-0.4,0.4-0.6,0.8-0.5l5.5,2.7c0.6,0.3,0.4,0.5,0.2,0.7
			c-1.9,2-3.8,3.1-6.4,3.7C148.2,30.9,148.2,30.6,148.2,30.2L148.2,30.2z M151.4,20.2c-0.4-0.2-0.4-0.6,0-0.9l5.1-3.4
			c0.5-0.3,0.6-0.1,0.7,0.2c0.8,2.6,0.8,4.8,0,7.4c-0.2,0.5-0.4,0.4-0.7,0.2L151.4,20.2L151.4,20.2z M154.9,13.1l-5.5,2.7
			c-0.4,0.2-0.7,0-0.8-0.5l-0.4-6.1c-0.1-0.6,0.2-0.6,0.5-0.5c2.6,0.6,4.6,1.8,6.4,3.7C155.5,12.8,155.2,12.9,154.9,13.1L154.9,13.1
			z M131.2,23.3c-1.2-5.4,0.4-10.7,3.7-14.1c0.3-0.3,0.6-0.3,0.7-0.1l1.7,1.7c0.2,0.3,0.2,0.6,0,0.8c-2.6,2.8-3.6,6.4-2.8,10.8
			c0,0.3-0.2,0.5-0.4,0.6l-2.4,0.7C131.5,23.7,131.3,23.5,131.2,23.3L131.2,23.3z M161.3,25.5c-2.3,5.9-8,10-14.7,10
			s-12.4-4.1-14.7-10c-0.1-0.3,0-0.5,0.3-0.6l2.4-0.8c0.1,0,0.5-0.1,0.6,0.3c1.8,4.6,6.3,7.7,11.5,7.7s9.5-3.1,11.4-7.7
			c0.2-0.4,0.5-0.4,0.6-0.4l2.4,0.8C161.2,25,161.4,25.2,161.3,25.5L161.3,25.5z M162,23.3c-0.1,0.3-0.3,0.5-0.6,0.4l-2.4-0.7
			c-0.2-0.1-0.4-0.3-0.4-0.6c0.8-4.4-0.2-7.9-2.8-10.8c-0.3-0.2-0.3-0.6,0-0.8l1.7-1.7c0.1-0.2,0.5-0.2,0.7,0.1
			C161.5,12.6,163.2,17.9,162,23.3L162,23.3z"/>
		<path id="Shape-Copy-20" class="st0" d="M150.1,19.7c0-2-1.6-3.6-3.6-3.6c-2,0-3.6,1.6-3.6,3.6c0,2,1.6,3.6,3.6,3.6
			C148.5,23.3,150.1,21.7,150.1,19.7L150.1,19.7z M144.6,20.7c-0.1-0.3-0.2-0.6-0.2-1c0-0.4,0.1-0.8,0.3-1.1
			c0.2-0.3,0.5-0.6,0.8-0.8c0.2-0.1,0.3-0.2,0.5-0.2l0-0.6h0.6h0.4l0,0.6c0.6,0.1,1.1,0.5,1.4,1c0.2,0.4,0.4,0.8,0.4,1.2
			c0,0.4-0.1,0.8-0.3,1.1c-0.4,0.7-1.1,1.1-1.9,1.1h0C145.7,22,144.9,21.5,144.6,20.7L144.6,20.7z"/>
		<path id="Shape-Copy-19" class="st0" d="M152.7,31c-0.4,0.2-0.6,0.6-0.6,1.1c0,0.2,0,0.3,0.1,0.5c0,0,0,0.1,0.1,0.1
			c0.3,0.6,1.1,0.8,1.7,0.5c0.2-0.1,0.4-0.3,0.5-0.6c0.1-0.2,0.1-0.3,0.1-0.5c0-0.2-0.1-0.4-0.2-0.6C154.1,30.9,153.3,30.7,152.7,31
			L152.7,31z M153.9,32.6c-0.1,0.1-0.1,0.1-0.2,0.2c-0.3,0.2-0.8,0.1-1-0.2c0,0-0.1-0.1-0.1-0.1c-0.1-0.1-0.1-0.3-0.1-0.4
			c0-0.3,0.1-0.5,0.4-0.7c0.4-0.2,0.9-0.1,1.1,0.3c0.1,0.1,0.1,0.3,0.1,0.4C154.1,32.3,154.1,32.5,153.9,32.6L153.9,32.6z"/>
		<path id="Shape-Copy-18" class="st0" d="M135.4,26l-2.2,1.3c0.1,0.2,0.2,0.3,0.3,0.5l2.2-1.3C135.5,26.3,135.4,26.1,135.4,26
			L135.4,26z"/>
		<path id="Shape-Copy-17" class="st0" d="M150.6,31.9l0.8,2.4c0.2-0.1,0.3-0.1,0.5-0.2l-0.8-2.4C151,31.8,150.8,31.9,150.6,31.9
			L150.6,31.9z"/>
		<path id="Shape-Copy-16" class="st0" d="M138.7,30.4l0.3-0.3c-0.6-0.5-1-0.9-1.6-1.3L137,29c0.2,0.2,0.4,0.4,0.6,0.6l-1.4,1.5
			l0.4,0.3l1.3-1.6C138.2,30,138.4,30.2,138.7,30.4L138.7,30.4z"/>
		<path id="Shape-Copy-15" class="st0" d="M150.1,32.1c-0.7,0.2-1.3,0.3-2,0.4l0.1,0.4c0.3-0.1,0.5-0.1,0.8-0.1l0.4,2l0.5-0.1
			l-0.4-2c0.3-0.1,0.5-0.1,0.8-0.2L150.1,32.1L150.1,32.1z"/>
		<path id="Shape-Copy-14" class="st0" d="M147.2,32.6L147.2,32.6l-0.6,0l0,0.1l-0.3,1l-0.5,1.4c0.2,0,0.3,0,0.5,0l0.1-0.4l1.1,0
			l0.2,0.4c0.2,0,0.3,0,0.5-0.1l-0.5-1.3L147.2,32.6L147.2,32.6z M146.6,34.2l0.2-0.5l0.2-0.5l0.2,0.5l0.2,0.5L146.6,34.2
			L146.6,34.2z"/>
		<path id="Shape-Copy-13" class="st0" d="M156.4,28l0.4,0.6l1,1.6c0.1-0.1,0.2-0.2,0.3-0.4l-0.2-0.4l0.7-0.9l0.4,0.2
			c0-0.1,0.1-0.1,0.1-0.2c0.1-0.1,0.1-0.2,0.2-0.2l-2.5-0.8L156.4,28L156.4,28z M158,28.5l-0.1,0.1l-0.4,0.5l-0.3-0.5l-0.3-0.5
			L158,28.5L158,28.5z"/>
		<polygon id="Shape-Copy-12" class="st0" points="159.5,27.2 157.7,26.2 157.4,26.6 159.6,27.9 160.5,26.3 160.1,26.1 		"/>
		<path id="Shape-Copy-11" class="st0" d="M145,32.5l-0.2,1.5l-0.7-1.7c-0.2,0-0.3-0.1-0.4-0.1l-0.6,2.5c0.2,0,0.3,0.1,0.5,0.1
			l0.3-1.5l0.7,1.7c0.2,0,0.3,0.1,0.5,0.1l0.3-2.5C145.4,32.5,145.2,32.5,145,32.5L145,32.5z"/>
		<path id="Shape-Copy-10" class="st0" d="M155.3,29.1l1,1.1l-1.7-0.5c-0.1,0.1-0.2,0.2-0.4,0.3l1.5,2c0.1-0.1,0.3-0.2,0.4-0.3
			l-0.9-1.2L157,31c0.1-0.1,0.3-0.2,0.4-0.4l-1.7-1.9C155.5,28.9,155.5,29,155.3,29.1L155.3,29.1z"/>
		<path id="Shape-Copy-9" class="st0" d="M136.7,28l-1.2,1l0.6-1.7c-0.1-0.2-0.1-0.2-0.3-0.4l-2.1,1.4c0.1,0.1,0.2,0.3,0.3,0.4
			l1.3-0.9l-0.6,1.7c0.1,0.1,0.2,0.3,0.3,0.4l1.9-1.7C137,28.2,136.8,28.1,136.7,28L136.7,28z"/>
		<path id="Shape-Copy-8" class="st0" d="M142.5,31.9l-1.1-0.4l-0.4,1l-0.1,0.1l-0.5,1.2c0.2,0.1,0.3,0.1,0.5,0.2l0.4-1l0.5,0.2
			l0,1.1c0.2,0.1,0.4,0.1,0.5,0.2l-0.1-1.2c0.4-0.1,0.6-0.4,0.6-0.7c0-0.1,0-0.1,0-0.1C142.9,32.2,142.8,32,142.5,31.9L142.5,31.9z
			 M142.4,32.6c-0.1,0.2-0.2,0.3-0.4,0.2l-0.6-0.2l0,0l0.1-0.1l0.1-0.4l0.6,0.2c0.1,0,0.1,0.1,0.1,0.2
			C142.4,32.5,142.4,32.6,142.4,32.6L142.4,32.6z"/>
		<path id="Shape-Copy-7" class="st0" d="M139.6,31c0.3,0.2,0.7,0.4,1,0.6l0.2-0.4c-0.5-0.3-1-0.6-1.4-0.9l-1.4,2.1
			c0.5,0.3,1,0.6,1.6,1l0.2-0.4l-1.1-0.7l0.4-0.5l0.7,0.5l0.2-0.3c-0.2-0.1-0.5-0.3-0.8-0.5L139.6,31L139.6,31z"/>
		<path id="Shape-Copy-6" class="st0" d="M142.7,7.5c0.6-0.1,1.1-0.6,1.1-1.3c0,0,0-0.1,0-0.1c-0.1-0.7-0.7-1.2-1.4-1.1
			c-0.6,0.1-1.1,0.6-1.1,1.2v0.1C141.5,7,142.1,7.5,142.7,7.5L142.7,7.5z M142.6,5.4c0.4,0,0.8,0.3,0.9,0.7v0.1
			c0,0.4-0.3,0.7-0.7,0.8c-0.4,0-0.8-0.3-0.9-0.7V6.2C141.8,5.8,142.2,5.4,142.6,5.4L142.6,5.4z"/>
		<path id="Shape-Copy-5" class="st0" d="M147.3,6.5c0.3,0,0.7,0,1,0.1l0.1,0.5c0.2,0,0.3,0,0.5,0.1l-0.4-1.5l-0.3-1.1l-0.6-0.1
			l-0.6,1.2l-0.6,1.3c0.2,0,0.3,0,0.5,0L147.3,6.5L147.3,6.5z M147.9,5l0.2,0.5l0.1,0.5c-0.3,0-0.5-0.1-0.8-0.1l0.2-0.5L147.9,5
			L147.9,5z"/>
		<path id="Shape-Copy-4" class="st0" d="M145,4.9l0.2,2l0.5-0.1l-0.2-2l0.8-0.1l0-0.4c-0.9,0.1-1.3,0.1-2.2,0.2l0.1,0.4L145,4.9
			L145,4.9z"/>
		<path id="Shape-Copy-3" class="st0" d="M152.8,8.5l0.5-1l1.5-0.7c-0.2-0.1-0.3-0.2-0.5-0.3l-1,0.5l-0.2-1.1
			c-0.2-0.1-0.3-0.2-0.5-0.2l0.3,1.6l-0.5,1L152.8,8.5L152.8,8.5z"/>
		<path id="Shape-Copy-2" class="st0" d="M150.3,6.5l0.5,0.2l0.1,1c0.2,0.1,0.3,0.1,0.5,0.2l-0.2-1.1c0.4-0.1,0.6-0.5,0.5-0.9
			c0-0.3-0.1-0.5-0.4-0.6c-0.4-0.1-0.8-0.3-1.2-0.4l-0.3,1l-0.4,1.4c0.2,0.1,0.4,0.1,0.6,0.1L150.3,6.5L150.3,6.5z M150.6,5.4
			c0.2,0.1,0.4,0.1,0.6,0.2c0.1,0,0.2,0.1,0.2,0.2c0,0.2-0.2,0.4-0.4,0.4L150.4,6l0.1-0.2L150.6,5.4L150.6,5.4z"/>
		<path id="Shape-Copy" class="st0" d="M139.7,8.9c0.2-0.1,0.3-0.2,0.5-0.3l-0.5-0.8l0.4-0.2l0.8,0.6c0.2-0.1,0.3-0.2,0.5-0.2
			l-0.9-0.7c0.1-0.1,0.1-0.2,0.1-0.3c0.1-0.5-0.6-1.1-1-0.9c-0.4,0.2-0.8,0.4-1.1,0.6l0.1,0.3L139.7,8.9L139.7,8.9z M139.7,6.6
			c0.2-0.1,0.4,0.2,0.4,0.4c0,0.1,0,0.1-0.1,0.2l-0.5,0.3L139.2,7l-0.1-0.1C139.4,6.7,139.5,6.7,139.7,6.6L139.7,6.6z"/>
		<path id="INTERCHANGE-EXCHANGE-Copy-3" class="st0" d="M182.4,16.9h1.1v6h-1.1V16.9z M186.7,16.9h1.4l2.8,4.5h0v-4.5h1.1v6h-1.4
			l-2.9-4.7h0v4.7h-1.1V16.9z M196.5,17.9h-1.8v-0.9h4.8v0.9h-1.8v5.1h-1.1V17.9z M202.1,16.9h4v0.9h-2.9v1.5h2.8v0.9h-2.8V22h3.1v1
			h-4.1V16.9z M209.2,16.9h2.1c0.3,0,0.6,0,0.8,0.1c0.3,0.1,0.5,0.2,0.7,0.3s0.4,0.3,0.5,0.5c0.1,0.2,0.2,0.5,0.2,0.8
			c0,0.4-0.1,0.8-0.4,1.1s-0.6,0.5-1,0.6l1.6,2.7h-1.3l-1.4-2.6h-0.8v2.6h-1.1V16.9z M211.1,19.5c0.2,0,0.3,0,0.5,0
			c0.2,0,0.3-0.1,0.4-0.1c0.1-0.1,0.2-0.2,0.3-0.3s0.1-0.3,0.1-0.4c0-0.2,0-0.3-0.1-0.4S212.1,18,212,18c-0.1-0.1-0.2-0.1-0.4-0.1
			s-0.3,0-0.4,0h-1v1.7H211.1z M220.8,18.3c-0.2-0.2-0.4-0.4-0.6-0.5c-0.3-0.1-0.5-0.1-0.7-0.1c-0.3,0-0.6,0.1-0.8,0.2
			c-0.3,0.1-0.5,0.3-0.7,0.5s-0.3,0.4-0.4,0.7c-0.1,0.3-0.1,0.6-0.1,0.9c0,0.3,0,0.6,0.1,0.9c0.1,0.3,0.2,0.5,0.4,0.7
			c0.2,0.2,0.4,0.3,0.6,0.5c0.2,0.1,0.5,0.2,0.8,0.2c0.3,0,0.6-0.1,0.9-0.2c0.2-0.1,0.5-0.3,0.6-0.5l0.9,0.6c-0.3,0.3-0.6,0.6-1,0.8
			s-0.8,0.3-1.4,0.3c-0.5,0-0.9-0.1-1.3-0.2c-0.4-0.2-0.7-0.4-1-0.7c-0.3-0.3-0.5-0.6-0.7-1s-0.2-0.8-0.2-1.3c0-0.5,0.1-0.9,0.3-1.3
			c0.2-0.4,0.4-0.7,0.7-1s0.6-0.5,1-0.6c0.4-0.1,0.8-0.2,1.3-0.2c0.2,0,0.4,0,0.6,0.1c0.2,0,0.4,0.1,0.6,0.2
			c0.2,0.1,0.4,0.2,0.5,0.3c0.2,0.1,0.3,0.3,0.4,0.4L220.8,18.3z M224.3,16.9h1.1v2.4h2.8v-2.4h1.1v6h-1.1v-2.7h-2.8v2.7h-1.1V16.9z
			 M234.4,16.9h0.9l2.6,6h-1.2l-0.6-1.4h-2.6l-0.5,1.4h-1.2L234.4,16.9z M235.8,20.6l-0.9-2.5l-0.9,2.5H235.8z M240.4,16.9h1.4
			l2.8,4.5h0v-4.5h1.1v6h-1.4l-2.9-4.7h0v4.7h-1.1V16.9z M254.3,22.6c-0.3,0.1-0.6,0.3-1,0.3s-0.8,0.1-1.3,0.1
			c-0.5,0-0.9-0.1-1.3-0.2c-0.4-0.2-0.7-0.4-1-0.7c-0.3-0.3-0.5-0.6-0.7-1s-0.2-0.8-0.2-1.3c0-0.5,0.1-0.9,0.3-1.3
			c0.2-0.4,0.4-0.7,0.7-1s0.6-0.5,1-0.6c0.4-0.1,0.8-0.2,1.3-0.2c0.5,0,0.9,0.1,1.3,0.2s0.7,0.3,1,0.5l-0.7,0.8
			c-0.2-0.2-0.4-0.3-0.6-0.4s-0.6-0.2-0.9-0.2c-0.3,0-0.6,0.1-0.9,0.2s-0.5,0.3-0.7,0.5c-0.2,0.2-0.3,0.4-0.4,0.7
			c-0.1,0.3-0.1,0.6-0.1,0.9c0,0.3,0,0.6,0.1,0.9c0.1,0.3,0.2,0.5,0.4,0.7c0.2,0.2,0.4,0.4,0.7,0.5c0.3,0.1,0.6,0.2,0.9,0.2
			c0.5,0,0.9-0.1,1.2-0.2v-1.5H252v-0.9h2.3V22.6z M257.5,16.9h4v0.9h-2.9v1.5h2.8v0.9h-2.8V22h3.1v1h-4.1V16.9z"/>
		<path id="INTERACT-NETWORK" class="st0" d="M183,38.9h-0.6v-6h0.6V38.9z M190.8,38L190.8,38l0-5.2h0.6v6h-0.8l-3.5-5.2h0v5.2h-0.6
			v-6h0.8L190.8,38z M196.9,38.9h-0.6v-5.5h-2v-0.5h4.7v0.5h-2V38.9z M202.3,38.3h3.2v0.5h-3.9v-6h3.7v0.5h-3.1v2.1h2.9V36h-2.9
			V38.3z M209.2,38.9h-0.6v-6h1.8c0.3,0,0.6,0,0.8,0.1c0.3,0.1,0.5,0.1,0.7,0.3c0.2,0.1,0.3,0.3,0.4,0.5c0.1,0.2,0.2,0.5,0.2,0.8
			c0,0.2,0,0.4-0.1,0.6c-0.1,0.2-0.2,0.3-0.3,0.5c-0.1,0.1-0.3,0.2-0.5,0.3c-0.2,0.1-0.4,0.1-0.6,0.2l1.8,2.9h-0.8l-1.7-2.8h-1V38.9
			z M209.2,35.5h1.1c0.5,0,0.9-0.1,1.1-0.3c0.3-0.2,0.4-0.4,0.4-0.8c0-0.2,0-0.4-0.1-0.5c-0.1-0.1-0.2-0.2-0.3-0.3s-0.3-0.1-0.5-0.2
			s-0.4-0.1-0.6-0.1h-1.1V35.5z M215.6,38.9h-0.7l2.6-6h0.6l2.6,6H220l-0.7-1.6h-3.1L215.6,38.9z M216.5,36.7h2.7l-1.3-3.2
			L216.5,36.7z M228.4,37.9c-0.1,0.2-0.2,0.3-0.4,0.4s-0.3,0.3-0.5,0.4c-0.2,0.1-0.4,0.2-0.6,0.2c-0.2,0.1-0.5,0.1-0.8,0.1
			c-0.5,0-0.9-0.1-1.3-0.2c-0.4-0.2-0.7-0.4-1-0.7s-0.5-0.6-0.7-1c-0.2-0.4-0.2-0.8-0.2-1.3c0-0.5,0.1-0.9,0.2-1.3
			c0.2-0.4,0.4-0.7,0.7-1c0.3-0.3,0.6-0.5,1-0.7c0.4-0.2,0.8-0.2,1.3-0.2c0.2,0,0.4,0,0.7,0.1c0.2,0,0.4,0.1,0.6,0.2
			c0.2,0.1,0.4,0.2,0.5,0.3c0.2,0.1,0.3,0.2,0.4,0.4l-0.5,0.4c-0.1-0.1-0.1-0.2-0.3-0.3s-0.2-0.2-0.4-0.3c-0.1-0.1-0.3-0.1-0.5-0.2
			s-0.3-0.1-0.5-0.1c-0.4,0-0.7,0.1-1.1,0.2c-0.3,0.1-0.6,0.3-0.8,0.6c-0.2,0.2-0.4,0.5-0.5,0.8s-0.2,0.7-0.2,1s0.1,0.7,0.2,1
			s0.3,0.6,0.5,0.8s0.5,0.4,0.8,0.6s0.7,0.2,1,0.2c0.3,0,0.7-0.1,1-0.2s0.6-0.4,0.8-0.7L228.4,37.9z M233.3,38.9h-0.6v-5.5h-2v-0.5
			h4.7v0.5h-2V38.9z M246.2,38L246.2,38l0-5.2h0.6v6H246l-3.5-5.2h0v5.2h-0.6v-6h0.8L246.2,38z M250.9,38.3h3.2v0.5h-3.9v-6h3.7v0.5
			h-3.1v2.1h2.9V36h-2.9V38.3z M259.2,38.9h-0.6v-5.5h-2v-0.5h4.7v0.5h-2V38.9z M265.5,38L265.5,38l1.5-5.2h0.7l1.5,5.2h0l1.5-5.2
			h0.6l-1.8,6h-0.7l-1.5-5.2h0l-1.5,5.2h-0.7l-1.8-6h0.6L265.5,38z M280.1,35.9c0,0.5-0.1,0.9-0.2,1.3c-0.2,0.4-0.4,0.7-0.7,1
			s-0.6,0.5-1,0.7c-0.4,0.2-0.8,0.2-1.3,0.2c-0.4,0-0.9-0.1-1.3-0.2c-0.4-0.2-0.7-0.4-1-0.7s-0.5-0.6-0.7-1
			c-0.2-0.4-0.2-0.8-0.2-1.3c0-0.5,0.1-0.9,0.2-1.3c0.2-0.4,0.4-0.7,0.7-1c0.3-0.3,0.6-0.5,1-0.7c0.4-0.2,0.8-0.2,1.3-0.2
			c0.4,0,0.9,0.1,1.3,0.2s0.7,0.4,1,0.7c0.3,0.3,0.5,0.6,0.7,1C280,35,280.1,35.4,280.1,35.9z M279.4,35.9c0-0.4-0.1-0.7-0.2-1
			s-0.3-0.6-0.5-0.8c-0.2-0.2-0.5-0.4-0.8-0.6s-0.7-0.2-1-0.2s-0.7,0.1-1,0.2s-0.6,0.3-0.8,0.6c-0.2,0.2-0.4,0.5-0.5,0.8
			c-0.1,0.3-0.2,0.7-0.2,1s0.1,0.7,0.2,1c0.1,0.3,0.3,0.6,0.5,0.8c0.2,0.2,0.5,0.4,0.8,0.6s0.7,0.2,1,0.2s0.7-0.1,1-0.2
			s0.6-0.3,0.8-0.6c0.2-0.2,0.4-0.5,0.5-0.8S279.4,36.2,279.4,35.9z M283.9,38.9h-0.6v-6h1.8c0.3,0,0.6,0,0.8,0.1
			c0.3,0.1,0.5,0.1,0.7,0.3c0.2,0.1,0.3,0.3,0.4,0.5c0.1,0.2,0.2,0.5,0.2,0.8c0,0.2,0,0.4-0.1,0.6c-0.1,0.2-0.2,0.3-0.3,0.5
			c-0.1,0.1-0.3,0.2-0.5,0.3c-0.2,0.1-0.4,0.1-0.6,0.2l1.8,2.9h-0.8l-1.7-2.8h-1V38.9z M283.9,35.5h1.1c0.5,0,0.9-0.1,1.1-0.3
			c0.3-0.2,0.4-0.4,0.4-0.8c0-0.2,0-0.4-0.1-0.5c-0.1-0.1-0.2-0.2-0.3-0.3c-0.1-0.1-0.3-0.1-0.5-0.2c-0.2,0-0.4-0.1-0.6-0.1h-1.1
			V35.5z M290.9,35.6L290.9,35.6l2.9-2.7h0.9l-3,2.7l3.2,3.3h-0.9l-3-3.2h0v3.2h-0.6v-6h0.6V35.6z"/>
		<path id="Shape" class="st0" d="M54.9,16.5c-1.7,0-2.9,1.1-2.9,1.1v-0.8c0,0,0-0.2-0.2-0.2h-1.9c-0.3,0-0.3,0.3-0.3,0.3v9.7
			c0,0,0,0.3,0.3,0.3h1.7c0.3,0,0.3-0.3,0.3-0.3v-6.7c0.2-0.1,1.1-1,2.7-1.2c1.1-0.2,1.3,0.9,1.3,0.9v7c0,0,0,0.3,0.3,0.3H58
			c0.4,0,0.4-0.4,0.4-0.4v-7.2C58.4,19.3,58.5,16.4,54.9,16.5L54.9,16.5z"/>
		<path class="st0" d="M66.2,24.9h-1.7c-0.8,0-0.8-1.1-0.8-1.3v-4.8h2.5c0.3,0,0.3-0.3,0.3-0.3v-1.6c0,0,0-0.2-0.2-0.2h-2.5v-1.9
			c0,0,0-0.5-0.4-0.4c-0.4,0.1-1.4,0.3-1.6,0.4c-0.4,0.1-0.4,0.4-0.4,0.4v1.6h-1c-0.3,0-0.3,0.3-0.3,0.3v1.6c0,0,0,0.3,0.3,0.3h1
			c0,0,0,4.5,0,4.7c0,1.3,0.1,3.4,2.4,3.7c0.4,0.1,1.8,0,2.5-0.2c0.2,0,0.3-0.3,0.3-0.3v-1.5C66.6,25.2,66.6,24.9,66.2,24.9
			L66.2,24.9z"/>
		<path class="st0" d="M76.6,19.5c0-3.2-2.8-3.2-4-3.2c-4.4,0-4.6,3.1-4.6,5.4c0,6.2,3.5,5.4,4.6,5.4c1,0,3.1-0.4,3.1-0.4
			c0.2,0,0.4-0.1,0.3-0.3l-0.1-1.5c0,0,0-0.3-0.3-0.3c-0.3,0-3.4,0.2-3.4,0.2c-0.7,0-1.5-0.3-1.7-1.8c0,0,3.3-0.2,3.5-0.3
			C74.4,22.8,76.6,22.5,76.6,19.5L76.6,19.5z M73,21l-2.6,0.1c0-1.7,0.7-2.7,2.2-2.7c0.8,0,1.4,0.2,1.5,0.9c0,0.4,0,0.6,0,0.7
			C74.1,20.7,73.5,21,73,21L73,21z"/>
		<path class="st0" d="M84,16.5c-0.9-0.1-1.9,0.5-2.8,1.1v-0.8c0-0.1,0-0.2-0.2-0.2H79c0,0-0.3,0-0.3,0.3v9.7c0,0.4,0.3,0.4,0.3,0.4
			h1.7c0,0,0.3,0,0.3-0.3v-6.6c0.9-0.7,1.9-1.1,2.9-1.2c0.1,0,0.2,0,0.2-0.3v-1.5C84.3,16.8,84.3,16.6,84,16.5L84,16.5z"/>
		<path class="st0" d="M90.1,16.4c-0.9,0-3.8,0.4-3.8,0.4c-0.3,0-0.4,0.2-0.4,0.3l0,1.4c0,0.2,0.1,0.3,0.3,0.4l4-0.2
			c0.5,0,1,0.6,1,0.9l0,1l-2.8,0.2c-2.5,0.2-3.2,1.4-3.2,3.1c0,0-0.2,3.6,3.2,3.3c2.2-0.2,3.1-0.7,3.1-0.7c0.5,0.3,1,0.7,1.7,0.7
			c0,0,0.3,0,0.3-0.2v-7.5C93.6,19.4,93.8,16.3,90.1,16.4L90.1,16.4z M91.2,24.7c-0.9,0.2-1.5,0.4-2.6,0.4c0,0-1,0-1-1.3
			c0-1.2,1.1-1.3,1.2-1.3c0.1,0,2.4-0.1,2.4-0.1V24.7L91.2,24.7z"/>
		<path class="st0" d="M111,24.8h-1.7c-0.8,0-0.8-1.1-0.8-1.3v-4.8h2.5c0.3,0,0.3-0.3,0.3-0.3v-1.6c0,0,0-0.2-0.2-0.2h-2.5v-1.9
			c0,0,0-0.5-0.4-0.4c-0.4,0.1-1.4,0.3-1.6,0.4c-0.4,0.1-0.4,0.4-0.4,0.4v1.6h-1c-0.3,0-0.3,0.3-0.3,0.3v1.6c0,0,0,0.3,0.3,0.3h1
			c0,0,0,4.5,0,4.7c0,1.3,0.1,3.4,2.4,3.7c0.4,0.1,1.8,0,2.5-0.2c0.2,0,0.3-0.3,0.3-0.3v-1.5C111.4,25.2,111.4,24.8,111,24.8
			L111,24.8z"/>
		<path class="st0" d="M46.7,12.9H45c-0.4,0-0.4,0.4-0.4,0.4v13.3c0,0,0,0.4,0.4,0.4h1.7c0.4,0,0.4-0.4,0.4-0.4V13.3
			C47.1,13.3,47.1,12.9,46.7,12.9L46.7,12.9z"/>
		<path class="st0" d="M103.2,16.7c0,0-2-0.5-3.5-0.4c-0.9,0.1-4.5-0.3-4.5,5.5c0,5.5,3.6,5.3,4.2,5.3c1.7,0,1.7,0,3.7-0.4
			c0.2-0.1,0.2-0.2,0.3-0.3l0-1.4c0-0.3-0.1-0.4-0.3-0.4c-0.9,0.2-1.9,0.3-3,0.4c-1.8,0.1-2.4-1.1-2.4-3.1c0-1.8,0.1-3.3,2.3-3.4
			c1,0,2,0.2,2.9,0.3c0.3,0,0.4-0.1,0.5-0.3l0.1-1.4C103.5,16.9,103.4,16.8,103.2,16.7L103.2,16.7z"/>
		<path class="st0" d="M34.2,38.8h-0.4l0.7-3.7h2.2l-0.1,0.3h-1.8l-0.2,1.3h1.7L36.2,37h-1.7L34.2,38.8z M39.7,38.9
			c-0.2,0-0.5,0-0.7-0.1s-0.4-0.2-0.5-0.3c-0.1-0.1-0.3-0.3-0.3-0.5c-0.1-0.2-0.1-0.4-0.1-0.6c0-0.3,0.1-0.6,0.2-0.9
			c0.1-0.3,0.3-0.5,0.5-0.7s0.4-0.4,0.7-0.5c0.3-0.1,0.5-0.2,0.9-0.2c0.2,0,0.5,0,0.7,0.1c0.2,0.1,0.4,0.2,0.5,0.3
			c0.1,0.1,0.3,0.3,0.3,0.5c0.1,0.2,0.1,0.4,0.1,0.6c0,0.3-0.1,0.6-0.2,0.9c-0.1,0.3-0.3,0.5-0.5,0.7c-0.2,0.2-0.4,0.4-0.7,0.5
			S40,38.9,39.7,38.9z M41.4,36.6c0-0.2,0-0.3-0.1-0.5s-0.1-0.3-0.2-0.4s-0.2-0.2-0.4-0.3s-0.3-0.1-0.5-0.1c-0.3,0-0.5,0.1-0.7,0.2
			c-0.2,0.1-0.4,0.3-0.6,0.4c-0.2,0.2-0.3,0.4-0.4,0.6c-0.1,0.2-0.1,0.5-0.1,0.7c0,0.2,0,0.3,0.1,0.5c0.1,0.2,0.1,0.3,0.2,0.4
			c0.1,0.1,0.2,0.2,0.4,0.3c0.2,0.1,0.3,0.1,0.5,0.1c0.3,0,0.5-0.1,0.7-0.2c0.2-0.1,0.4-0.3,0.6-0.4s0.3-0.4,0.4-0.6
			C41.4,37.1,41.4,36.9,41.4,36.6z M44.9,38.9c-0.2,0-0.4,0-0.6-0.1s-0.3-0.2-0.4-0.3c-0.1-0.1-0.2-0.2-0.2-0.4
			c0-0.1-0.1-0.3-0.1-0.4c0-0.1,0-0.2,0-0.4l0.4-2.3h0.4l-0.4,2.3c0,0.1,0,0.2,0,0.3c0,0.1,0,0.2,0,0.3c0,0.1,0.1,0.2,0.1,0.3
			c0.1,0.1,0.2,0.1,0.3,0.2c0.1,0,0.2,0.1,0.4,0.1c0.2,0,0.4,0,0.5-0.1c0.1-0.1,0.3-0.2,0.3-0.3c0.1-0.1,0.2-0.2,0.2-0.4
			c0.1-0.1,0.1-0.3,0.1-0.5l0.4-2.3h0.4l-0.4,2.3c0,0.2-0.1,0.3-0.1,0.5c-0.1,0.2-0.2,0.3-0.3,0.5c-0.1,0.1-0.3,0.3-0.5,0.4
			S45.2,38.9,44.9,38.9z M51.1,38.3L51.1,38.3l0.6-3.2H52l-0.7,3.7h-0.5l-1.5-3.2h0l-0.6,3.2h-0.4l0.7-3.7h0.5L51.1,38.3z
			 M54.2,35.1h1.1c0.2,0,0.4,0,0.6,0.1c0.2,0.1,0.4,0.1,0.6,0.3c0.2,0.1,0.3,0.3,0.4,0.5c0.1,0.2,0.2,0.4,0.2,0.7
			c0,0.3-0.1,0.6-0.2,0.9c-0.1,0.3-0.3,0.5-0.5,0.7c-0.2,0.2-0.4,0.3-0.7,0.4c-0.3,0.1-0.6,0.2-0.9,0.2h-1.2L54.2,35.1z M54,38.5
			h0.8c0.3,0,0.6-0.1,0.8-0.2s0.4-0.2,0.6-0.4c0.2-0.2,0.3-0.4,0.4-0.6c0.1-0.2,0.1-0.4,0.1-0.7c0-0.2,0-0.3-0.1-0.5
			c-0.1-0.2-0.1-0.3-0.3-0.4c-0.1-0.1-0.3-0.2-0.4-0.3s-0.4-0.1-0.6-0.1h-0.7L54,38.5z M59.1,38.5h2L61,38.8h-2.4l0.7-3.7h2.2
			l-0.1,0.3h-1.9l-0.2,1.3h1.8L61.1,37h-1.8L59.1,38.5z M63.6,35.1h1.1c0.2,0,0.4,0,0.6,0.1c0.2,0.1,0.4,0.1,0.6,0.3
			c0.2,0.1,0.3,0.3,0.4,0.5c0.1,0.2,0.2,0.4,0.2,0.7c0,0.3-0.1,0.6-0.2,0.9c-0.1,0.3-0.3,0.5-0.5,0.7c-0.2,0.2-0.4,0.3-0.7,0.4
			c-0.3,0.1-0.6,0.2-0.9,0.2h-1.2L63.6,35.1z M63.3,38.5h0.8c0.3,0,0.6-0.1,0.8-0.2s0.4-0.2,0.6-0.4s0.3-0.4,0.4-0.6
			c0.1-0.2,0.1-0.4,0.1-0.7c0-0.2,0-0.3-0.1-0.5c-0.1-0.2-0.1-0.3-0.3-0.4c-0.1-0.1-0.3-0.2-0.4-0.3s-0.4-0.1-0.6-0.1h-0.7
			L63.3,38.5z M70.9,38.8h-0.4l0.7-3.7h0.4L70.9,38.8z M75.8,38.3L75.8,38.3l0.6-3.2h0.4l-0.7,3.7h-0.5l-1.5-3.2h0l-0.6,3.2h-0.4
			l0.7-3.7h0.5L75.8,38.3z M81.1,35.1h1.3c0.2,0,0.4,0,0.6,0.1c0.2,0.1,0.4,0.1,0.6,0.3s0.3,0.3,0.4,0.5c0.1,0.2,0.2,0.4,0.2,0.7
			c0,0.3-0.1,0.6-0.2,0.9c-0.1,0.3-0.3,0.5-0.5,0.7c-0.2,0.2-0.4,0.3-0.7,0.4c-0.3,0.1-0.6,0.2-0.9,0.2h-1.4L81.1,35.1z M81.2,38.2
			h0.7c0.3,0,0.5,0,0.7-0.1c0.2-0.1,0.4-0.2,0.5-0.3c0.1-0.1,0.2-0.3,0.3-0.5c0.1-0.2,0.1-0.4,0.1-0.6c0-0.1,0-0.3-0.1-0.4
			s-0.1-0.2-0.2-0.3c-0.1-0.1-0.2-0.2-0.4-0.2c-0.2-0.1-0.3-0.1-0.5-0.1h-0.6L81.2,38.2z M86.5,38.8l0.5-3l-0.8,0.6L85.9,36l1.3-0.9
			h0.6l-0.7,3.7H86.5z M92,36.1c0-0.1,0-0.2-0.1-0.3c0-0.1-0.1-0.1-0.1-0.2c-0.1-0.1-0.1-0.1-0.2-0.1c-0.1,0-0.2,0-0.2,0
			c-0.2,0-0.4,0.1-0.6,0.2c-0.1,0.2-0.2,0.3-0.2,0.6c0,0.1,0,0.2,0.1,0.3c0,0.1,0.1,0.1,0.1,0.2c0.1,0.1,0.1,0.1,0.2,0.1
			c0.1,0,0.1,0,0.2,0c0.1,0,0.2,0,0.3-0.1s0.2-0.1,0.3-0.2c0.1-0.1,0.1-0.2,0.2-0.3S92,36.2,92,36.1z M91.3,37.4c0,0-0.1,0-0.1,0
			c0,0-0.1,0-0.1,0c-0.2,0-0.3,0-0.5-0.1c-0.1-0.1-0.3-0.1-0.4-0.2C90.1,37,90,36.9,90,36.8c0-0.1-0.1-0.3-0.1-0.4
			c0-0.2,0-0.4,0.1-0.5s0.2-0.3,0.3-0.4s0.3-0.2,0.5-0.3c0.2-0.1,0.4-0.1,0.6-0.1c0.2,0,0.3,0,0.5,0.1c0.2,0.1,0.3,0.1,0.4,0.2
			c0.1,0.1,0.2,0.2,0.3,0.4c0.1,0.1,0.1,0.3,0.1,0.5c0,0.2,0,0.4-0.1,0.6c-0.1,0.2-0.2,0.4-0.4,0.6l-1.2,1.5h-0.7L91.3,37.4
			L91.3,37.4z M94.9,38.8l0.5-3l-0.8,0.6L94.2,36l1.3-0.9h0.6l-0.7,3.7H94.9z M99.8,35c0.2,0,0.4,0,0.5,0.1c0.1,0.1,0.2,0.2,0.3,0.3
			s0.1,0.3,0.2,0.4c0,0.2,0.1,0.3,0.1,0.5c0,0.2,0,0.4,0,0.6s-0.1,0.4-0.1,0.6c-0.1,0.2-0.1,0.4-0.2,0.6c-0.1,0.2-0.2,0.3-0.3,0.5
			c-0.1,0.1-0.3,0.2-0.4,0.3c-0.2,0.1-0.3,0.1-0.5,0.1c-0.2,0-0.4,0-0.5-0.1s-0.3-0.2-0.3-0.3c-0.1-0.1-0.2-0.2-0.2-0.4
			s-0.1-0.3-0.1-0.5c0-0.2,0-0.4,0-0.6c0-0.2,0.1-0.4,0.1-0.6s0.1-0.4,0.2-0.6c0.1-0.2,0.2-0.3,0.3-0.5s0.3-0.2,0.4-0.3
			C99.4,35,99.6,35,99.8,35z M99.7,35.5c-0.1,0-0.3,0.1-0.4,0.2c-0.1,0.1-0.2,0.3-0.3,0.5c-0.1,0.2-0.1,0.4-0.2,0.6
			c0,0.2-0.1,0.5-0.1,0.7c0,0.1,0,0.2,0,0.3s0,0.2,0.1,0.3c0,0.1,0.1,0.1,0.2,0.2c0.1,0,0.1,0.1,0.2,0.1c0.1,0,0.3-0.1,0.4-0.2
			c0.1-0.1,0.2-0.3,0.3-0.5s0.1-0.4,0.2-0.6c0-0.2,0.1-0.5,0.1-0.7c0-0.1,0-0.2,0-0.3s0-0.2-0.1-0.3c0-0.1-0.1-0.1-0.2-0.2
			C99.9,35.5,99.8,35.5,99.7,35.5z M102.1,39l-0.4-0.2l2.3-4l0.4,0.2L102.1,39z M107.7,38.2l-0.1,0.6h-2.5l0.1-0.6l1.7-1.4
			c0.2-0.2,0.3-0.3,0.4-0.4c0.1-0.1,0.1-0.3,0.1-0.4c0-0.2,0-0.3-0.1-0.4c-0.1-0.1-0.2-0.1-0.4-0.1c-0.2,0-0.3,0.1-0.4,0.2
			s-0.2,0.2-0.3,0.4l-0.6-0.2c0.1-0.3,0.3-0.6,0.5-0.7s0.5-0.2,0.8-0.2c0.2,0,0.3,0,0.5,0.1c0.1,0,0.3,0.1,0.4,0.2
			c0.1,0.1,0.2,0.2,0.2,0.3c0.1,0.1,0.1,0.3,0.1,0.4c0,0.1,0,0.3-0.1,0.4c0,0.1-0.1,0.2-0.2,0.3s-0.2,0.2-0.3,0.3
			c-0.1,0.1-0.2,0.2-0.4,0.3l-1.1,0.9H107.7z M111.2,35c0.2,0,0.4,0,0.5,0.1c0.1,0.1,0.2,0.2,0.3,0.3s0.1,0.3,0.2,0.4
			c0,0.2,0.1,0.3,0.1,0.5c0,0.2,0,0.4,0,0.6s-0.1,0.4-0.1,0.6c-0.1,0.2-0.1,0.4-0.2,0.6c-0.1,0.2-0.2,0.3-0.3,0.5
			c-0.1,0.1-0.3,0.2-0.4,0.3c-0.2,0.1-0.3,0.1-0.5,0.1c-0.2,0-0.4,0-0.5-0.1s-0.3-0.2-0.3-0.3s-0.2-0.2-0.2-0.4s-0.1-0.3-0.1-0.5
			c0-0.2,0-0.4,0-0.6c0-0.2,0.1-0.4,0.1-0.6s0.1-0.4,0.2-0.6c0.1-0.2,0.2-0.3,0.3-0.5s0.3-0.2,0.4-0.3C110.8,35,111,35,111.2,35z
			 M111.1,35.5c-0.1,0-0.3,0.1-0.4,0.2c-0.1,0.1-0.2,0.3-0.3,0.5c-0.1,0.2-0.1,0.4-0.2,0.6c0,0.2-0.1,0.5-0.1,0.7c0,0.1,0,0.2,0,0.3
			s0,0.2,0.1,0.3c0,0.1,0.1,0.1,0.2,0.2c0.1,0,0.1,0.1,0.2,0.1c0.1,0,0.3-0.1,0.4-0.2c0.1-0.1,0.2-0.3,0.3-0.5s0.1-0.4,0.2-0.6
			c0-0.2,0.1-0.5,0.1-0.7c0-0.1,0-0.2,0-0.3s0-0.2-0.1-0.3c0-0.1-0.1-0.1-0.2-0.2C111.3,35.5,111.2,35.5,111.1,35.5z"/>
	</g>
</g>
</svg>
