
<svg width="95px" height="24px" viewBox="0 0 95 24" version="1.1" xmlns="http://www.w3.org/2000/svg" xmlns:xlink="http://www.w3.org/1999/xlink">
    <g id="Page-1" stroke="none" stroke-width="1" fill="none" fill-rule="evenodd">
        <g id="Philanthropy" transform="translate(-112.000000, -898.000000)" fill="#676767">
            <g id="Group-3" transform="translate(112.000000, 898.000000)">
                <path d="M28.0347501,2.51834205 L28.0347501,1.0737648 L30.9951057,1.0737648 L30.9951057,3.9629193 L28.0347501,3.9629193 L28.0347501,2.51834205 Z M92.7138179,6.15356232 C92.1124697,5.61270164 91.5420449,4.45196985 91.2887682,3.25423083 C91.1207147,2.45876041 91.1253164,2.45505968 91.6337105,2.98278279 C92.1325331,3.50088402 92.6243611,4.22826114 92.8006977,4.70731974 C92.9297289,5.05888844 92.9952569,5.83363481 92.9208937,6.12617697 L92.8765334,6.29992592 L92.7138179,6.15356232 Z M70.1276462,6.07066612 C70.0654314,5.63990196 70.1252533,5.06018369 70.2710347,4.68363512 C70.495965,4.10225152 70.7304669,3.75123794 71.3132242,3.12322523 L71.8746297,2.51834205 L71.842602,2.7909003 C71.7912472,3.22851081 71.566869,4.06450415 71.3772796,4.52542921 C71.1225304,5.14400507 70.9005451,5.50778614 70.5106904,5.94613679 L70.1657481,6.33434264 L70.1276462,6.07066612 Z M92.2888063,8.0026286 C91.6911395,7.36554912 90.8678061,5.90709416 90.5957545,5.00411773 C90.5272815,4.77615319 90.4786877,4.5816802 90.4880751,4.57150321 C90.5215754,4.53523612 91.280117,5.10385222 91.5718638,5.38381192 C91.943864,5.74056162 92.2974574,6.25570228 92.4618296,6.68017521 C92.6177347,7.08318395 92.7261504,7.89475252 92.6593339,8.15805897 L92.6112923,8.34661081 L92.2888063,8.0026286 Z M70.3908625,8.12882326 C70.3181559,7.72192876 70.4674346,7.00879942 70.7427994,6.4477698 C71.0058317,5.91097992 71.5074153,5.3647532 72.1435521,4.92177665 C72.39462,4.74691748 72.6116355,4.61572685 72.6254405,4.6303447 C72.6795563,4.6871508 72.3162073,5.61066625 72.0172819,6.17539659 C71.536682,7.08373906 70.9708589,7.88383539 70.5984905,8.18192863 L70.4252831,8.32070575 L70.3908625,8.12882326 Z M69.5850156,9.78212129 C69.0554537,9.0303194 68.8336525,7.9785739 68.9553211,6.79415748 C69.0155111,6.2066677 69.2130154,5.32756093 69.3435192,5.06628988 C69.4153054,4.92270183 69.4175143,4.92621751 69.5487543,5.36197765 C69.807369,6.22091548 69.946708,7.35019112 69.946708,8.58234687 C69.946708,9.29344081 69.8662705,10.0137866 69.7865693,10.0137866 C69.7654016,10.0137866 69.6746564,9.9096112 69.5850156,9.78212129 Z M93.1634945,9.66813902 C93.1154529,9.37319139 93.1044088,8.94168708 93.1257606,8.17526733 C93.1638626,6.79582281 93.312589,5.78626555 93.5706515,5.15307184 L93.6671028,4.91696571 L93.8242963,5.43469686 C94.1727359,6.58099583 94.224827,7.85607997 93.9590337,8.73278126 C93.8528268,9.08342477 93.563841,9.6624029 93.3770126,9.89850903 L93.2310472,10.0829901 L93.1634945,9.66813902 Z M92.4112111,11.6276719 C91.8306626,10.6793616 91.2364931,8.74499365 91.2429354,7.82462382 L91.2453283,7.47897629 L91.6453067,7.92269298 C92.1091565,8.43690845 92.487415,9.06510619 92.6784769,9.63797813 C92.9015666,10.3072539 92.900094,11.2309544 92.6742434,11.7855077 L92.6079791,11.9490797 L92.4112111,11.6276719 Z M70.4013544,11.889128 C70.3849724,11.8615576 70.334722,11.6883637 70.2892574,11.5044378 C70.1843389,11.0801499 70.1832345,10.3498122 70.2864963,9.92978014 C70.4611763,9.21924131 70.9401196,8.3875038 71.5092559,7.80593517 L71.8293491,7.47897629 L71.7976895,7.96969217 C71.7391561,8.87710946 71.3896121,10.092797 70.881218,11.1586052 C70.6152407,11.7155641 70.4484756,11.9694337 70.4013544,11.889128 Z M92.6427678,13.4550889 C92.6427678,13.1734639 92.8461623,12.3480176 93.0810323,11.6763364 C93.4850602,10.5211557 94.4342956,8.70299044 94.5830221,8.79939428 C94.6551765,8.84602339 94.5863353,10.425677 94.4928291,10.8719842 C94.3262481,11.6681948 93.9884844,12.3970522 93.5435936,12.9205195 C93.3609988,13.1351614 92.7491588,13.6660301 92.6843671,13.6660301 C92.6615427,13.6660301 92.6427678,13.5711066 92.6427678,13.4550889 Z M70.0247525,13.4217824 C69.586304,13.0794655 69.1984741,12.5757971 68.9321286,12.0034803 C68.5938127,11.2759182 68.4883421,10.7615176 68.4553941,9.67313499 C68.4397483,9.16299032 68.4474792,8.76035165 68.4730645,8.76072172 C68.654739,8.76405237 69.5910898,10.5824027 69.9700845,11.6685649 C70.3039827,12.6240916 70.5154762,13.6676955 70.3752168,13.665475 C70.353865,13.66529 70.1961193,13.5553785 70.0247525,13.4217824 Z M91.410989,14.8865286 C91.1602892,14.269248 91.0093539,12.928291 91.045063,11.6367387 C91.0588681,11.1395465 91.1000992,10.6366182 91.1393055,10.4926601 L91.209067,10.2354599 L91.3576094,10.4654598 C92.0419719,11.5249768 92.3473397,12.7700851 92.1549893,13.7187655 C92.0701342,14.1365771 91.8019481,14.7921602 91.6210098,15.0225302 L91.5190365,15.1526106 L91.410989,14.8865286 Z M71.3198506,14.8363838 C71.2112508,14.658379 71.0632607,14.3403019 70.9907381,14.1301008 C70.8758801,13.7962956 70.859314,13.6614042 70.8606025,13.066513 C70.862075,12.4444215 70.8768004,12.3400611 71.0299445,11.8672937 C71.1867699,11.382684 71.5663168,10.6051621 71.757931,10.3760873 C71.8383684,10.2798685 71.8457311,10.2865298 71.9119954,10.512274 C72.1538599,11.336425 71.9626139,14.2501893 71.6209848,14.9488858 L71.517539,15.1605672 L71.3198506,14.8363838 Z M90.7696982,17.1510011 C91.0319942,16.4263995 91.9587735,15.1324417 92.9744573,14.0729247 C93.5989979,13.4208572 94.2189368,12.9036812 94.2881461,12.9762154 C94.3431823,13.0343167 94.0431525,13.9998354 93.8320272,14.4424418 C93.3823506,15.3864963 92.7145541,16.2465443 92.0371862,16.7540985 C91.7158045,16.9950156 91.0781951,17.3280807 90.8118496,17.3941386 L90.6688293,17.4296655 L90.7696982,17.1510011 Z M71.8472036,17.237783 C71.3012598,16.9876141 70.9347816,16.7267132 70.4773742,16.2628275 C69.8572512,15.6335196 69.4215637,14.9697949 69.080855,14.1347267 C68.9037822,13.7008169 68.7237643,13.0237697 68.77199,12.9734398 C68.8233448,12.9192242 69.4729185,13.4358452 69.914128,13.8817823 C70.9471142,14.9257563 71.9909603,16.3758846 72.2998253,17.1957798 C72.4080569,17.483141 72.3867051,17.4849913 71.8472036,17.237783 Z M89.1434629,17.9211215 C89.0230829,17.130277 89.8604054,14.1815409 90.427701,13.399023 L90.5618861,13.2136168 L90.6191311,13.3716376 C90.8501357,14.0087171 90.9383039,15.185547 90.8052232,15.8464962 C90.67067,16.5128114 90.4087421,17.0046375 89.9196751,17.5092311 C89.687198,17.7490379 89.4247179,17.9879196 89.3365496,18.0397297 L89.1760429,18.1342832 L89.1434629,17.9211215 Z M73.5951075,17.944066 C73.1724888,17.6454177 72.7756395,17.1809769 72.5532861,16.7250478 C72.2543607,16.1120231 72.206135,15.8720312 72.206135,15.0016211 C72.206135,14.3780493 72.2284072,14.146199 72.3287239,13.7341235 C72.3960926,13.4567543 72.4667744,13.2298999 72.4851812,13.2298999 C72.5041401,13.2298999 72.5958057,13.3523939 72.6891278,13.5022732 C73.2028599,14.3260541 73.8991868,16.7261581 73.902684,17.6863107 C73.9034203,17.9077989 73.8947691,18.0989413 73.883357,18.1109686 C73.8717607,18.123181 73.7419932,18.0480563 73.5951075,17.944066 Z M84.2273914,1.20032953 C84.3196092,1.07691041 84.3253152,1.04637945 84.2619961,1.00900214 C84.0667006,0.894464766 82.5672877,0.54548658 82.5672877,0.614690102 C82.5672877,0.621906512 82.7929543,0.754577434 83.0686873,0.909267658 C83.3446043,1.06395788 83.6521808,1.248809 83.7521294,1.32023295 C83.9569964,1.46622648 84.0444284,1.44420718 84.2273914,1.20032953 Z M79.3118721,1.29932387 C79.4313318,1.21365213 79.7159,1.04008822 79.9445117,0.913893562 C80.4506969,0.634118898 80.521931,0.570281425 80.2804346,0.613024776 C79.8598407,0.68740931 79.2986192,0.821375485 78.9901223,0.920924936 L78.6589851,1.02787583 L78.8577779,1.24159259 C78.9671139,1.35927558 79.0652218,1.45530935 79.0757136,1.45530935 C79.0862055,1.45530935 79.1925964,1.38518064 79.3118721,1.29932387 Z M83.30006,1.93843874 C83.4682975,1.84425534 83.6059799,1.74563107 83.6059799,1.7191709 C83.6059799,1.61203497 82.2880575,0.858012644 82.2221614,0.927216165 C82.2068838,0.94331431 82.3511926,1.18515656 82.5428068,1.46474619 C82.7344209,1.74452085 82.9026585,2.00394154 82.9164635,2.04150388 C82.9508841,2.13346685 82.9519885,2.13328181 83.30006,1.93843874 Z M80.2953441,1.74156028 C80.4251116,1.53913072 80.6058657,1.26934801 80.696795,1.1418581 C80.7879084,1.01455323 80.8363181,0.910192839 80.8046585,0.910192839 C80.6292423,0.910192839 79.382554,1.6557035 79.4283867,1.73323365 C79.4598622,1.7867091 79.9724899,2.1081169 80.0277101,2.10904208 C80.0450124,2.10922711 80.1652084,1.94398983 80.2953441,1.74156028 Z M82.3204534,2.31868804 C82.456111,2.287787 82.5672877,2.23801228 82.5672877,2.20840649 C82.5672877,2.13661246 82.0879763,1.41201089 81.8656229,1.1479643 L81.6885501,0.93757819 L81.6843165,2.44155204 L81.8792439,2.40843057 C81.9863711,2.39029703 82.1849798,2.35014419 82.3204534,2.31868804 Z M81.3207834,1.7278676 C81.3207834,1.33818146 81.3018245,1.01936417 81.2788161,1.01936417 C81.2554395,1.01936417 81.18034,1.09892972 81.1114988,1.19644377 C80.7288228,1.73896977 80.4378122,2.1808361 80.4378122,2.22043384 C80.4378122,2.2591064 80.5615055,2.29389319 81.0872019,2.40250942 C81.3266736,2.45191407 81.3207834,2.46875236 81.3207834,1.7278676 Z M86.2252587,2.77628245 C86.4516616,2.6045689 86.6462208,2.43396556 86.6574489,2.39714337 C86.6846909,2.30795594 85.7503649,1.67032136 85.1849099,1.39221202 L84.7328404,1.1699836 L84.2752489,1.6930808 L84.4464316,1.83315317 C84.8165911,2.13605736 85.4151782,2.71448037 85.548443,2.89766616 C85.6255672,3.00387692 85.7166806,3.0902888 85.7511012,3.08973369 C85.7851536,3.08917858 85.9984877,2.947996 86.2252587,2.77628245 Z M84.3188729,3.82432722 C84.8795421,3.60320902 85.3717383,3.35229999 85.3719224,3.28698223 C85.3722905,3.21093237 84.6514826,2.48448043 84.2658615,2.17250948 L83.9731944,1.9356632 L83.8285174,2.04279913 C83.7490003,2.10164063 83.578738,2.20507584 83.4502589,2.27261404 C83.3215958,2.34015223 83.2069219,2.40435978 83.1956937,2.41509187 C83.1660589,2.44321737 83.8837376,3.95274231 83.9293863,3.95829339 C83.9501859,3.9608839 84.1254181,3.90056211 84.3188729,3.82432722 Z M82.9882498,4.20383637 C83.2273533,4.15628208 83.4533881,4.09947598 83.4903856,4.07764171 C83.5411882,4.04803593 83.4789734,3.87595231 83.2420787,3.38986233 C82.8553532,2.59679738 82.8452295,2.58291967 82.6749671,2.63047396 C82.6015243,2.65101297 82.3543218,2.6967169 82.1257101,2.73187377 L81.71027,2.79626635 L81.6813714,4.36093206 L82.117427,4.32559016 C82.3570828,4.3063464 82.7489622,4.2515757 82.9882498,4.20383637 Z M88.1918346,4.4900873 L88.4931529,4.28784278 L88.2588351,3.97550176 C88.1298039,3.80360317 87.8010595,3.43038525 87.5284558,3.14579964 C87.154983,2.75611351 87.01546,2.6419462 86.9624486,2.68246912 C86.5499536,2.99832583 86.1111369,3.32546975 86.0544442,3.35933137 C86.0010647,3.39115758 86.0651201,3.52512376 86.3196853,3.91388472 C86.5039367,4.19569478 86.7426721,4.59259733 86.8496153,4.79576703 L87.0443586,5.16528422 L87.4675295,4.92880802 C87.7001906,4.79891264 88.0261739,4.60147906 88.1918346,4.4900873 Z M78.3344743,16.7607598 C78.5345555,16.6843399 78.9439214,16.5222482 79.2443193,16.4008645 C79.9907126,16.0998107 80.6181983,15.9149596 81.117389,15.8492717 C81.6241265,15.7824737 81.7737733,15.712715 81.9291261,15.4706878 C82.0686492,15.2529002 82.079141,15.0204948 81.9655715,14.6691111 C81.9202909,14.5292238 81.8531063,14.1278804 81.8164769,13.7772369 C81.7796634,13.4265934 81.7095337,13.05097 81.6605718,12.9425388 C81.5633842,12.7275268 81.2651951,12.4209219 80.759562,12.0160628 C80.3229542,11.6663444 80.218772,11.4840838 80.2447255,11.116417 C80.2605553,10.8908579 80.2971848,10.7937139 80.4149879,10.6645587 C80.5289256,10.5398443 80.5718133,10.4310431 80.5924288,10.2160311 C80.6165417,9.96382679 80.6342121,9.92996518 80.7494383,9.91312689 C80.9600114,9.88259592 81.0091574,9.80229023 81.0091574,9.48939409 C81.0091574,9.21683584 81.0179926,9.19611179 81.1326666,9.19611179 C81.3299868,9.19611179 81.4061907,9.05937007 81.3246489,8.85101936 C81.1400293,8.37954725 81.2042688,8.21542018 81.573692,8.21393989 C81.9022523,8.21264464 82.4621852,8.08237918 82.704602,7.95081848 C82.8148583,7.8910518 83.1502291,7.58870273 83.4502589,7.27876717 C84.2430371,6.45942708 84.786404,6.19982136 85.7115267,6.1985261 C86.2554458,6.19778596 86.6436439,6.29104418 87.0988425,6.53177622 C88.2991459,7.16589512 89.1318667,8.19284577 89.4263745,9.40187199 C89.5655294,9.97289356 89.5640569,10.9317509 89.4226931,11.5177604 C89.2399142,12.2771488 89.0052283,12.6997714 88.4417981,13.2844856 C87.6515968,14.1043808 87.0086495,14.4298594 86.1293596,14.4553944 C85.5519403,14.4720476 85.5083163,14.5146059 85.5412643,15.0288214 C85.5769734,15.5868905 85.9000117,16.1135034 86.4507413,16.511146 C86.7235291,16.7080245 86.7106444,16.7145008 87.3878283,16.0378236 C89.3004724,14.1276954 90.2846807,11.4511474 90.0551486,8.78514649 C89.9450764,7.5041412 89.5622162,6.20352208 88.9698874,5.0981161 C88.8452738,4.86571069 88.7243415,4.6630961 88.701149,4.64792314 C88.6779565,4.63275017 88.5445077,4.69677268 88.4046165,4.78984587 C88.2647253,4.88291905 87.9398463,5.08146285 87.6830724,5.23060199 C87.4257462,5.37992616 87.209467,5.50760111 87.2019202,5.51444745 C87.1941894,5.52147882 87.2459123,5.66395666 87.3165942,5.83141438 L87.4448892,6.13598388 L87.2262171,6.03439904 C87.1060211,5.97833308 86.971836,5.87175226 86.928028,5.79755276 C86.8665495,5.69337741 86.8284475,5.67431868 86.7607107,5.71410145 C86.7030976,5.74777803 86.5514261,5.74000652 86.3213419,5.69115697 C86.0305154,5.62953993 85.993886,5.61048121 86.1074556,5.58050535 C86.1831073,5.56052145 86.3541059,5.49520369 86.4875547,5.43506694 L86.7299715,5.32608064 L86.5613658,5.01244436 C86.3460069,4.61147102 85.8044807,3.77325724 85.7047162,3.68629025 C85.6423173,3.63207466 85.542921,3.6614954 85.1753384,3.84320091 C84.9262952,3.96624995 84.5822733,4.1205701 84.4109066,4.18588786 C84.2395398,4.25139066 84.0911815,4.31226756 84.0808738,4.32114929 C84.0709341,4.33021606 84.1725393,4.68419022 84.3070926,5.10773798 C84.4414618,5.53128574 84.5415944,5.88822048 84.529446,5.90098797 C84.5172975,5.91375546 84.4388848,5.93855031 84.3551342,5.95612874 L84.2030945,5.98814 L83.9652795,5.23448775 C83.6899147,4.36278243 83.7977781,4.42958048 82.9048673,4.57927473 C82.6191947,4.62719909 82.2276834,4.68178475 82.0347808,4.70065844 L81.6843165,4.73470509 L81.6843165,6.52955578 L82.0868719,6.49643431 C82.3083049,6.47811573 82.704602,6.44036836 82.9678183,6.4124279 C83.2308506,6.3843024 83.4977483,6.36154296 83.5610675,6.36154296 L83.6759255,6.36154296 L83.5502075,6.50272554 C83.3433158,6.73476088 83.2498096,6.76233126 82.4632897,6.82209794 L81.71027,6.87945915 L81.6793467,7.5061766 L81.3207834,7.5061766 L81.3207834,4.7413664 L81.0481797,4.70694967 C80.8981647,4.68807598 80.7017648,4.67234791 80.6117559,4.67197784 C80.4801477,4.67160777 80.4273204,4.6344155 80.3411769,4.48157564 L80.2344178,4.29135847 L80.7776006,4.32614527 L81.3207834,4.3611171 L81.3207834,3.58785102 C81.3207834,3.01571923 81.3040333,2.80977399 81.2559917,2.79608131 C81.2200986,2.78571929 81.02738,2.74908213 80.8274829,2.71466541 C80.6274016,2.68043372 80.401735,2.63806044 80.3258993,2.62085208 C80.196868,2.59143133 80.1712827,2.62159222 79.9242642,3.0989855 C79.7790351,3.37931527 79.6529489,3.63170458 79.6433774,3.65964504 C79.6262592,3.71090006 79.3519988,3.5299347 79.3488696,3.46535708 C79.3479493,3.44666843 79.4629914,3.21370791 79.6043551,2.94762592 C79.7886066,2.60086817 79.8438268,2.45191407 79.7990984,2.42175318 C79.7646778,2.39843862 79.5774813,2.28020052 79.3829221,2.1588168 L79.0289605,1.93825371 L78.5409979,2.35458505 C78.0557963,2.76832589 78.0513787,2.77054633 77.833627,2.7253975 L77.6144027,2.67987861 L78.1691818,2.19064302 C78.4743655,1.92141542 78.7184389,1.68567936 78.7112602,1.66680567 C78.7040816,1.64774695 78.6085506,1.5287687 78.4992146,1.40257404 L78.3004218,1.17312921 L78.0316835,1.2922925 C77.0270437,1.73804459 75.8265563,2.66100492 75.0739048,3.56638682 C73.9207226,4.9537879 73.1343868,6.80766512 72.9865807,8.48742332 C72.9694624,8.68226639 72.9444293,8.93373053 72.9306242,9.04623251 C72.916451,9.16299032 72.9282313,9.25069746 72.9576821,9.25069746 C72.9862126,9.25069746 73.1778267,9.11395574 73.3837981,8.94723816 C73.5894014,8.78033555 73.9229315,8.54385935 74.1244852,8.42192052 C74.9100848,7.94674768 74.9732199,7.78928192 74.7770041,6.79748813 C74.662146,6.21702972 74.6444756,5.58365097 74.7309872,5.15122148 C74.9067716,4.27415011 75.5353617,3.55583976 76.3927475,3.2520104 C76.6721618,3.15301605 76.8105805,3.13802813 77.2698286,3.15708685 C77.7233706,3.1757755 77.8818526,3.20760172 78.2118854,3.34508358 C79.0188368,3.68147931 79.792472,4.35001493 80.1261862,4.99930679 C80.2955281,5.32885618 80.3080447,5.38658746 80.3080447,5.84362676 C80.3080447,6.39114874 80.2141704,6.67203362 79.8419861,7.23805921 C79.6498198,7.5302313 79.6479791,7.53781778 79.6811112,7.92620867 L79.7147956,8.31904042 L79.5568658,8.40452713 C79.4357494,8.4704 79.3993041,8.5272061 79.3993041,8.64970003 C79.3993041,8.73740717 79.366356,8.82862999 79.3262293,8.85268469 C79.2862867,8.87655435 79.2452397,8.95760019 79.2353,9.03253983 C79.2231516,9.12505791 79.1798958,9.17446256 79.1003787,9.18630487 C79.0359551,9.19592675 78.923674,9.28603936 78.8505992,9.38651399 C78.6126001,9.71384295 78.3355787,9.75399579 77.5952597,9.56803446 C77.1395089,9.45368212 77.1065608,9.45220183 76.9344578,9.53842867 C76.6885438,9.66147772 76.6677442,9.79895958 76.7940144,10.4628693 C76.9261748,11.1567549 77.1141076,12.5558132 77.1141076,12.8453948 C77.1141076,13.38385 77.3497138,13.5342844 78.3604278,13.6408652 L79.0874939,13.7172852 L79.3851309,13.4985724 C79.642273,13.3094655 79.7147956,13.2817101 79.9174538,13.2955878 C80.1280268,13.3100206 80.1504831,13.3244534 80.1359417,13.4352901 C80.1201119,13.5538982 80.1306038,13.557599 80.3973174,13.5246625 C80.6178301,13.4974622 80.6896164,13.5085644 80.7446525,13.578323 C80.8506754,13.7121042 80.7912216,14.2022649 80.6264813,14.556054 C80.3912432,15.0604626 80.0284464,15.2131174 79.4348291,15.0567619 C79.1222827,14.9746058 79.0554662,14.9738657 78.6871474,15.0488053 C77.8395171,15.2218141 77.4877644,15.2677031 77.0036672,15.2677031 C76.5718451,15.2677031 76.4672948,15.2486444 76.2346337,15.1278158 L75.9653431,14.9879284 L75.8841694,15.1180088 C75.7549541,15.3248793 75.664577,15.6370353 75.662,15.8842436 C75.6597912,16.1068421 75.6715715,16.1227552 76.1037618,16.4839457 C76.3478351,16.6880406 76.598903,16.8725217 76.6620381,16.8938008 C76.7249892,16.9148949 77.0452664,16.9250719 77.3736426,16.9163752 C77.8593964,16.9032377 78.0388621,16.874187 78.3344743,16.7607598 Z M80.1226889,18.7641462 C76.4967456,18.1472357 73.6286077,15.3363515 72.8076672,11.5945504 C72.632251,10.7953793 72.5785033,10.1203674 72.6125558,9.14726225 C72.6639106,7.67511461 72.9052229,6.67999018 73.5325245,5.35309592 C73.7309492,4.93324889 74.0512264,4.35723134 74.2443131,4.07301581 C74.6776077,3.43464108 75.59095,2.45839033 76.1792294,2.00505176 C78.3029988,0.367666837 80.920805,-0.206500347 83.4999571,0.399493055 C84.2842682,0.583604028 84.687928,0.737184035 85.5015058,1.16036172 C87.9549399,2.43655607 89.6640055,4.77337765 90.2620404,7.6699336 C90.3664066,8.17415712 90.3803957,8.39435014 90.3803957,9.52325571 C90.3803957,10.9304557 90.3192853,11.387865 89.9901729,12.4396105 C89.7751822,13.1270198 89.1769632,14.3606559 88.7609709,14.9744208 C88.3096377,15.6405509 87.3517511,16.6449272 86.7222406,17.1123285 C85.7304856,17.8484023 84.5068057,18.4138728 83.3204914,18.6842106 C82.6486455,18.8372355 80.8199361,18.8829395 80.1226889,18.7641462 Z M85.6942243,19.7326255 C85.5535969,19.7045 85.5716355,19.5990294 85.775398,19.2535669 C86.1383789,18.6373965 88.7964959,16.1521759 88.9354668,16.2983545 C88.9868216,16.3518299 88.8482189,17.1008563 88.6913934,17.6187725 C88.416949,18.5261898 87.9600938,19.1442105 87.3193552,19.4745 C86.8542169,19.7143069 86.1553131,19.8253286 85.6942243,19.7326255 Z M76.4128109,19.7111613 C75.6463543,19.5955137 74.9765331,19.0454012 74.5938571,18.2179195 C74.2938272,17.5682576 73.9917727,16.2826264 74.1392106,16.2826264 C74.1671889,16.2826264 74.3512562,16.4099313 74.5483924,16.5653616 C75.6958684,17.4703735 77.1072971,18.8990376 77.3390379,19.3897535 L77.4805857,19.6895121 L77.3622304,19.725224 C77.2000671,19.7737035 76.7870199,19.7675973 76.4128109,19.7111613 Z M88.6177665,20.0077742 C88.5321752,19.9975972 88.3389044,19.9750228 88.1885214,19.9579995 L87.9151813,19.9270985 L88.0050062,19.7674123 C88.1259385,19.5525853 88.619239,19.1397696 89.2730464,18.7060449 C89.8937216,18.2941544 91.4969484,17.4411378 91.910916,17.3021756 C92.2823639,17.1774612 92.5908608,17.1278715 92.5908608,17.1928192 C92.5908608,17.2820067 91.9895127,18.2016363 91.6992385,18.5563506 C91.1411462,19.2382089 90.3003264,19.7947976 89.6305052,19.9254331 C89.271942,19.9955619 88.8209769,20.032199 88.6177665,20.0077742 Z M73.7900348,19.98631 C73.3028085,19.9287638 73.0359108,19.8432771 72.5941491,19.6031002 C71.8753659,19.2119337 71.4058101,18.7304697 70.7665441,17.7286839 C70.4324618,17.2048466 70.4228903,17.181347 70.5421659,17.1652488 C70.7420631,17.1380485 71.5475419,17.4489093 72.2931989,17.8411859 C73.5472499,18.5006548 74.5053206,19.1549426 74.9373268,19.6467687 L75.1629934,19.9035989 L74.9829755,19.940051 C74.6547834,20.006479 74.1325842,20.026833 73.7900348,19.98631 Z M60.0663393,15.1788857 L60.0530864,9.11432581 L58.923649,9.09970795 L57.7940275,9.08490506 L57.7940275,7.29023941 L58.923649,7.27562155 L60.0530864,7.2610037 L60.0827213,5.35309592 C60.1153012,3.23998305 60.1296584,3.13192193 60.4760732,2.38752149 C60.6989788,1.90827785 61.2506288,1.29247753 61.6901817,1.03194663 C61.8477433,0.93850337 62.1867955,0.788624086 62.4432013,0.698696515 C63.453179,0.344722354 64.5229786,0.334545365 65.8828684,0.66576008 C65.999383,0.694070612 65.9997512,0.698696515 65.9997512,1.78689413 L65.9997512,2.87934758 L65.7531009,2.83863963 C65.6174432,2.81625026 65.1675826,2.7970065 64.753431,2.79608131 C63.8148714,2.79367584 63.3732938,2.91191395 63.0112332,3.26218739 C62.6002108,3.65983008 62.5720485,3.81563052 62.5720485,5.6820902 L62.5720485,7.28820401 L65.636034,7.28820401 L65.636034,9.0871255 L62.5720485,9.0871255 L62.5720485,21.2432606 L60.0795921,21.2432606 L60.0663393,15.1788857 Z M28.2425622,14.238532 L28.2425622,7.23361835 L30.7872937,7.23361835 L30.7872937,21.2432606 L28.2425622,21.2432606 L28.2425622,14.238532 Z M14.2199412,14.2657323 L14.2199412,7.23361835 L16.6608587,7.23361835 L16.6608587,8.26945073 C16.6608587,8.83899201 16.680922,9.30509809 16.705403,9.30509809 C16.729884,9.30509809 16.8348024,9.16113996 16.9382482,8.98498554 C17.4709392,8.07904853 18.3612731,7.40107607 19.5026749,7.03229901 C19.9230848,6.89629744 20.0298439,6.88464016 20.8677186,6.88297484 C21.562757,6.88149455 21.8802733,6.9048091 22.2180369,6.98178414 C24.2433303,7.44381942 25.4640651,8.66579817 25.7760593,10.543175 C25.8410351,10.9339713 25.8535517,11.8397233 25.8535517,16.1536562 L25.8535517,21.2976613 L23.3605431,21.2976613 L23.360359,16.6778636 C23.3599909,11.6754112 23.3467381,11.3936011 23.0792882,10.6480905 C22.6614552,9.48217768 21.7109313,8.86896787 20.322327,8.86896787 C19.2648599,8.86896787 18.533008,9.18908042 17.7729938,9.98362566 C17.3682296,10.4068033 17.2784048,10.5352184 17.1410905,10.8858619 C16.75731,11.8669236 16.7155267,12.5043732 16.7140542,17.3865521 L16.7127657,21.2976613 L14.2199412,21.2976613 L14.2199412,14.2657323 Z M54.5332739,12.4122252 C54.5021665,11.3173663 54.1476527,10.3357495 53.5608459,9.71976411 C52.4435569,8.54681993 50.4285714,8.43875881 49.1724956,9.48421308 C48.4172671,10.113151 47.9055598,11.2407613 47.8376389,12.4262879 L47.8070838,12.9582669 L51.1775415,12.9442041 L54.5478152,12.9301414 L54.5332739,12.4122252 Z M49.7697942,21.5184094 C47.2922473,21.0524884 45.7817904,19.2826176 45.3017427,16.2826264 C45.1861484,15.5613555 45.1449173,13.9924339 45.2211212,13.2258291 C45.4191777,11.2341 46.0529217,9.67443025 47.1149904,8.56495347 C47.6062663,8.05184822 48.0275965,7.74043237 48.6363073,7.44104388 C50.4328049,6.55749624 53.036622,6.71718244 54.7206545,7.8142618 C55.2509526,8.1597243 55.8896664,8.83732669 56.2248531,9.41001358 C56.9105041,10.5822176 57.169855,11.7529414 57.1704072,13.6795378 L57.1705913,14.7557081 L52.4834996,14.7697708 L47.7962238,14.7836485 L47.7796577,15.1923934 C47.7704544,15.4173973 47.7903336,15.8340988 47.824018,16.1188694 C48.1170532,18.6064954 49.5281137,19.9330196 51.6528035,19.7174525 C53.1082242,19.5697937 53.8962167,18.9095847 54.2597498,17.5327306 C54.3182832,17.3112424 54.3661407,17.074026 54.3661407,17.0061178 L54.3661407,16.8823286 L57.0148703,16.8823286 L57.0148703,17.0083382 C57.0148703,17.0773567 56.9659083,17.3373325 56.9062705,17.585466 C56.4545692,19.4598822 55.2323618,20.7679028 53.416353,21.3200506 C52.3896252,21.6323917 50.8283657,21.7173233 49.7697942,21.5184094 Z M37.6688367,21.5905735 C35.593477,21.26565 34.2847579,20.3023518 33.4568229,18.4902927 C33.0018083,17.4947982 32.7835044,16.5076304 32.7166879,15.1446541 C32.5344612,11.4356044 33.6896681,8.74221811 35.9809388,7.53411706 C36.8648304,7.06782595 37.6511662,6.88723067 38.8113429,6.88371498 C40.1340511,6.87982922 41.0310114,7.15183237 41.99442,7.84849349 C43.0345848,8.60085049 43.7539201,9.94624836 43.8586544,11.3356848 L43.8904981,11.7581224 L41.3822119,11.7581224 L41.3822119,11.5917749 C41.3822119,10.9807855 41.0072667,10.0039796 40.5986371,9.55045602 C39.8384388,8.70669116 38.3981116,8.51869443 37.2471383,9.11303056 C36.8344592,9.32619221 36.3091309,9.85872626 36.071684,10.3044783 C35.5286853,11.3242126 35.2555293,12.94883 35.3228979,14.7562632 C35.3970771,16.7426263 35.7970555,18.0547176 36.5773171,18.8720223 C37.1481101,19.4698741 37.7800134,19.7311452 38.6556219,19.7311452 C40.0762539,19.7311452 41.0405829,18.91125 41.3827641,17.4133823 C41.4392728,17.166174 41.4856578,16.884364 41.4858419,16.7868499 L41.4860259,16.6097703 L44.0123507,16.6097703 L43.9705674,16.9752167 C43.7471096,18.9234624 42.6000017,20.5084821 40.9073181,21.2084738 C40.1984746,21.5015711 39.7653641,21.5802115 38.7594359,21.59816 C38.2453357,21.6074118 37.7546121,21.6038961 37.6688367,21.5905735 Z M3.46911787,21.598345 C2.05235126,21.2675004 0.964881194,20.2597935 0.461088781,18.8113305 C0.112465168,17.8082495 0.128110895,18.0906147 0.107311281,12.3987175 L0.0885364087,7.23361835 L2.63400418,7.23361835 L2.66621597,17.0187002 L2.80500277,17.550124 C3.20829439,19.0944358 4.04359216,19.7714831 5.54558196,19.7714831 C6.51506484,19.7714831 7.31428539,19.4426738 7.94324362,18.7846853 C8.35481828,18.3542912 8.60625432,17.8491425 8.7925305,17.079207 C9.06439802,15.9541872 9.07820307,15.6720071 9.07820307,11.2929415 L9.07820307,7.23361835 L11.6231186,7.23361835 L11.6231186,21.2976613 L9.18220114,21.2976613 L9.18220114,20.2621989 C9.18220114,19.6924726 9.16269,19.2263666 9.13876124,19.2263666 C9.11501655,19.2263666 9.00402392,19.3658838 8.89211095,19.5364872 C8.27474897,20.4783212 7.28501868,21.1794232 6.11839964,21.5015711 C5.70351177,21.6162935 5.47913363,21.6410884 4.71580622,21.6577416 C4.05353179,21.6719894 3.71503189,21.6558913 3.46911787,21.598345 Z M78.3276638,23.7344024 L78.1402832,23.5541772 L78.7005843,22.9405973 C79.2673278,22.319801 79.9765394,21.715843 80.5937173,21.3281922 C81.0144953,21.0637756 80.994616,21.0833894 80.9038708,21.0230676 C80.7766803,20.9386911 80.0665483,20.7068408 79.7703839,20.6526252 L79.4926262,20.6021104 L79.2367726,20.8404369 C78.7040816,21.337074 78.2238498,21.4801069 77.08797,21.480662 C76.0268216,21.4814022 75.224656,21.3267119 74.1281666,20.9101956 C73.6635805,20.7338561 73.662108,20.7325609 73.8165405,20.666688 C74.0241685,20.5780557 75.0630448,20.3358433 75.6955003,20.2285224 C76.3855689,20.1113945 78.2466742,20.0669858 78.9382153,20.1508072 C79.6903146,20.242215 80.360688,20.3941297 80.9938798,20.6163581 L81.5348538,20.8063903 L82.0412232,20.6215392 C82.6311591,20.405972 83.3585934,20.2411048 84.122473,20.1495119 C84.8158548,20.0664307 86.6664682,20.1138 87.3712622,20.2327782 C88.0110804,20.3404692 89.0313659,20.5773155 89.2404664,20.666688 C89.395083,20.7325609 89.3936105,20.7338561 88.9286563,20.9101956 C87.837873,21.3244915 87.0362596,21.4788117 85.9690369,21.4799219 C84.8375748,21.4810321 84.4005988,21.3522469 83.8121354,20.8437676 L83.5266469,20.5969294 L83.26748,20.65133 C82.9440736,20.7192382 82.2556617,20.9531239 82.1518476,21.030284 C82.1017813,21.0672913 82.0942346,21.096897 82.130864,21.1128101 C82.2744365,21.1755374 83.2518343,21.8842259 83.5647488,22.1525283 C84.0013567,22.5264864 84.8524842,23.4566631 84.8524842,23.5593582 C84.8524842,23.6685295 84.5134321,23.9260998 84.3978378,23.9050057 C84.3446423,23.8950137 84.1187916,23.671305 83.8955179,23.4074435 C83.3006122,22.703936 82.3948166,21.894958 81.7231547,21.4673394 L81.5280433,21.3429951 L81.2556236,21.5187795 C80.5545109,21.9708228 79.5373546,22.9047003 79.0098175,23.5808224 C78.7044497,23.9718038 78.5991632,23.9954884 78.3276638,23.7344024 L78.3276638,23.7344024 Z" id="Fill-1"></path>
            </g>
        </g>
    </g>
</svg>